<?xml version="1.0" encoding="utf-8"?>
<!-- Generator: Adobe Illustrator 18.0.0, SVG Export Plug-In . SVG Version: 6.00 Build 0)  -->
<!DOCTYPE svg PUBLIC "-//W3C//DTD SVG 1.1//EN" "http://www.w3.org/Graphics/SVG/1.1/DTD/svg11.dtd">
<svg version="1.1" id="Layer_1" xmlns="http://www.w3.org/2000/svg" xmlns:xlink="http://www.w3.org/1999/xlink" x="0px" y="0px"
	 width="137px" height="138px" viewBox="0 0 137 138" enable-background="new 0 0 137 138" xml:space="preserve">
<g>
	<path fill="#FFFFFF" d="M17,116.4c-0.8,0.2-2,0.3-2.8,0.3c-5,0-7.9-2.1-7.9-6.8V98.5H2.2v-3l4.1-1.1v-5.2l5-1.4v6.6h6.3v4.1h-6.3
		v10.8c0,2.2,1.1,3.2,3.7,3.2c0.8,0,1.4-0.1,2-0.2V116.4z"/>
	<path fill="#FFFFFF" d="M33.9,98.3c-0.5-0.2-1.4-0.3-2.5-0.3c-2.7,0-4.6,0.6-5.8,1.3v16.9h-5V94.3h3l0.8,1.7
		c1.7-1.3,4.2-2.3,7.1-2.3c0.9,0,1.8,0.1,2.4,0.3V98.3z"/>
	<path fill="#FFFFFF" d="M42.8,98c-2.9,0-5.3,0.7-7,1.3v-4.2c1.8-0.7,4.7-1.3,7.4-1.3c7.4,0,9.1,3.1,9.1,7.8v14.6h-3l-0.8-1.7
		c-1.8,1.4-4.3,2.3-6.8,2.3c-5.8,0-7.7-3.5-7.7-7c0-4.7,3.1-6.7,8.2-7.1l5-0.4v-1.1C47.2,98.9,46.1,98,42.8,98z M42.5,106.1
		c-2.2,0.3-3.6,1.1-3.6,3.4c0,1.7,0.7,3.2,3.5,3.2c2,0,3.4-0.6,4.8-1.4v-5.7L42.5,106.1z"/>
	<path fill="#FFFFFF" d="M59.2,94.3l5.2,15.8l5.2-15.8H75l-8.6,22.2h-4.1l-8.6-22.2H59.2z"/>
	<path fill="#FFFFFF" d="M85.1,93.8c7.9,0,9.2,5.1,9.2,11.1c0,0.7,0,1.4-0.1,2.1h-14c0.1,3.3,1.3,5.4,5.9,5.4c2.8,0,5.2-0.5,7.2-1.3
		v4.2c-2.6,1-5.5,1.4-7.9,1.4c-7.5,0-10.2-4.4-10.2-11.4C75.1,98.2,77.8,93.8,85.1,93.8z M80.2,103.6h9c0-3-0.2-5.6-4.1-5.6
		C81.4,98.1,80.4,100.4,80.2,103.6z"/>
	<path fill="#FFFFFF" d="M105.3,98c-2.9,0-5.3,0.7-7,1.3v-4.2c1.8-0.7,4.7-1.3,7.4-1.3c7.4,0,9.1,3.1,9.1,7.8v14.6h-3l-0.8-1.7
		c-1.8,1.4-4.3,2.3-6.8,2.3c-5.8,0-7.7-3.5-7.7-7c0-4.7,3.1-6.7,8.2-7.1l5-0.4v-1.1C109.7,98.9,108.6,98,105.3,98z M105,106.1
		c-2.2,0.3-3.6,1.1-3.6,3.4c0,1.7,0.7,3.2,3.5,3.2c2,0,3.4-0.6,4.8-1.4v-5.7L105,106.1z"/>
	<path fill="#FFFFFF" d="M126.2,103.1c6.7,0.6,8.5,2.5,8.5,6.6c0,3.8-2.4,7-9.6,7c-3.1,0-5.9-0.6-7.4-1.2v-4.2
		c1.5,0.5,3.9,1.2,6.7,1.2c3.6,0,5.4-0.8,5.4-2.7c0-1.6-0.7-2.4-3.7-2.7c-6.8-0.6-8.5-2.6-8.5-6.4c0-3.8,2.5-6.9,9.1-6.9
		c3.1,0,5.2,0.3,7,1.1v4.2c-1.9-0.7-4-1.2-6.9-1.2c-2.7,0-4.3,0.7-4.3,2.7C122.5,102.2,123.3,102.8,126.2,103.1z"/>
</g>
<g>
	<path fill="#FFFFFF" d="M30.7,131c0,0.7,0.2,1.2,0.6,1.6c0.4,0.3,1.1,0.5,2.2,0.5c0.6,0,1.2,0,1.5-0.1c0.4-0.1,0.7-0.2,0.9-0.4
		c0.2-0.2,0.3-0.4,0.4-0.6c0.1-0.2,0.1-0.5,0.1-0.8c0-0.3,0-0.6-0.1-0.8c-0.1-0.2-0.2-0.4-0.5-0.5c-0.2-0.1-0.5-0.3-0.9-0.3
		s-0.8-0.2-1.4-0.2c-1.2-0.1-2.1-0.4-2.7-0.8c-0.6-0.4-0.8-1-0.8-1.9c0-1,0.3-1.7,1-2.1c0.6-0.4,1.5-0.6,2.6-0.6
		c1.2,0,2.1,0.2,2.7,0.7c0.6,0.5,0.9,1.2,0.9,2.2h-0.9c0-0.7-0.2-1.3-0.6-1.6c-0.4-0.3-1.1-0.5-2-0.5c-0.8,0-1.5,0.1-1.9,0.4
		c-0.5,0.3-0.7,0.8-0.7,1.5c0,0.7,0.2,1.1,0.7,1.4c0.4,0.3,1.1,0.4,2.1,0.5c0.7,0.1,1.3,0.2,1.8,0.3c0.5,0.1,0.8,0.3,1.1,0.5
		c0.3,0.2,0.5,0.5,0.6,0.8c0.1,0.3,0.2,0.7,0.2,1.1c0,0.4,0,0.8-0.1,1.1c-0.1,0.3-0.3,0.6-0.6,0.9c-0.3,0.3-0.7,0.5-1.2,0.6
		c-0.5,0.1-1.2,0.2-2,0.2c-0.7,0-1.4-0.1-1.8-0.2c-0.5-0.1-0.9-0.3-1.1-0.6c-0.3-0.3-0.5-0.6-0.6-0.9c-0.1-0.4-0.2-0.8-0.2-1.2H30.7
		z"/>
	<path fill="#FFFFFF" d="M43.9,123.8c0.6,0,1.1,0.1,1.6,0.2c0.5,0.1,0.8,0.4,1.2,0.7c0.3,0.3,0.6,0.8,0.7,1.4
		c0.2,0.6,0.3,1.3,0.3,2.2v1.1c0,0.9-0.1,1.6-0.3,2.2c-0.2,0.6-0.4,1-0.7,1.4c-0.3,0.3-0.7,0.6-1.2,0.7c-0.5,0.1-1,0.2-1.6,0.2
		c-0.5,0-1.1-0.1-1.6-0.4c-0.6-0.2-1.1-0.5-1.5-0.9v4.3h-0.9v-13h0.6l0.3,1.1c0.5-0.3,1-0.6,1.6-0.9C42.8,124,43.3,123.8,43.9,123.8
		z M43.8,124.7c-0.5,0-1,0.1-1.5,0.3c-0.5,0.2-1.1,0.5-1.5,0.9v6c0.5,0.4,1,0.7,1.5,0.9c0.5,0.2,1.1,0.3,1.5,0.3
		c0.5,0,1-0.1,1.3-0.2c0.4-0.1,0.7-0.3,0.9-0.6c0.2-0.3,0.4-0.7,0.5-1.1c0.1-0.5,0.2-1.1,0.2-1.8v-1.1c0-0.7-0.1-1.3-0.2-1.8
		c-0.1-0.5-0.3-0.9-0.5-1.1c-0.2-0.3-0.5-0.5-0.9-0.6C44.7,124.7,44.3,124.7,43.8,124.7z"/>
	<path fill="#FFFFFF" d="M57.6,129.4c0,0.9-0.1,1.6-0.2,2.2c-0.1,0.6-0.4,1-0.7,1.4c-0.3,0.3-0.7,0.6-1.2,0.7
		c-0.5,0.1-1.1,0.2-1.8,0.2c-0.7,0-1.3-0.1-1.8-0.2c-0.5-0.1-0.9-0.4-1.2-0.7c-0.3-0.3-0.5-0.8-0.7-1.4c-0.1-0.6-0.2-1.3-0.2-2.2
		v-1.1c0-0.9,0.1-1.6,0.2-2.2c0.1-0.6,0.4-1,0.7-1.4c0.3-0.3,0.7-0.6,1.2-0.7c0.5-0.1,1.1-0.2,1.8-0.2c0.7,0,1.3,0.1,1.8,0.2
		s0.9,0.4,1.2,0.7c0.3,0.3,0.5,0.8,0.7,1.4c0.1,0.6,0.2,1.3,0.2,2.2V129.4z M56.7,128.3c0-0.7,0-1.3-0.1-1.8
		c-0.1-0.5-0.3-0.9-0.5-1.1c-0.2-0.3-0.5-0.5-0.9-0.6c-0.4-0.1-0.9-0.2-1.4-0.2c-0.6,0-1,0.1-1.4,0.2c-0.4,0.1-0.7,0.3-0.9,0.6
		c-0.2,0.3-0.4,0.7-0.5,1.1c-0.1,0.5-0.1,1.1-0.1,1.8v1.1c0,0.7,0,1.3,0.1,1.8c0.1,0.5,0.3,0.9,0.5,1.1c0.2,0.3,0.5,0.5,0.9,0.6
		c0.4,0.1,0.9,0.2,1.4,0.2c0.6,0,1-0.1,1.4-0.2c0.4-0.1,0.7-0.3,0.9-0.6c0.2-0.3,0.4-0.7,0.5-1.1c0.1-0.5,0.1-1.1,0.1-1.8V128.3z"/>
	<path fill="#FFFFFF" d="M63.9,124.8c-0.7,0-1.2,0.1-1.6,0.3c-0.4,0.2-0.8,0.5-1.2,0.9v7.8h-0.9V124h0.6l0.3,1.1
		c0.4-0.4,0.8-0.7,1.3-0.9c0.5-0.2,1-0.3,1.6-0.3V124.8z"/>
	<path fill="#FFFFFF" d="M66.4,121.7l0.9-0.2v2.5h2.3v0.8h-2.3v6.8c0,0.5,0.1,0.8,0.3,1.1s0.5,0.4,1,0.4c0.3,0,0.6,0,0.8-0.1
		c0.2,0,0.5-0.1,0.7-0.1v0.8c-0.2,0.1-0.4,0.1-0.7,0.1c-0.2,0-0.5,0.1-0.8,0.1c-0.7,0-1.3-0.2-1.6-0.5s-0.5-0.9-0.5-1.7v-6.8h-1.2
		v-0.6l1.2-0.2V121.7z"/>
	<path fill="#FFFFFF" d="M72.3,131c0,0.7,0.2,1.2,0.6,1.6c0.4,0.3,1.1,0.5,2.2,0.5c0.6,0,1.2,0,1.5-0.1c0.4-0.1,0.7-0.2,0.9-0.4
		c0.2-0.2,0.3-0.4,0.4-0.6c0.1-0.2,0.1-0.5,0.1-0.8c0-0.3,0-0.6-0.1-0.8c-0.1-0.2-0.2-0.4-0.5-0.5c-0.2-0.1-0.5-0.3-0.9-0.3
		c-0.4-0.1-0.8-0.2-1.4-0.2c-1.2-0.1-2.1-0.4-2.7-0.8c-0.6-0.4-0.8-1-0.8-1.9c0-1,0.3-1.7,1-2.1c0.6-0.4,1.5-0.6,2.6-0.6
		c1.2,0,2.1,0.2,2.7,0.7c0.6,0.5,0.9,1.2,0.9,2.2h-0.9c0-0.7-0.2-1.3-0.6-1.6c-0.4-0.3-1.1-0.5-2-0.5c-0.8,0-1.5,0.1-1.9,0.4
		c-0.5,0.3-0.7,0.8-0.7,1.5c0,0.7,0.2,1.1,0.7,1.4c0.4,0.3,1.1,0.4,2.1,0.5c0.7,0.1,1.3,0.2,1.8,0.3c0.5,0.1,0.8,0.3,1.1,0.5
		c0.3,0.2,0.5,0.5,0.6,0.8c0.1,0.3,0.2,0.7,0.2,1.1c0,0.4,0,0.8-0.1,1.1c-0.1,0.3-0.3,0.6-0.6,0.9c-0.3,0.3-0.7,0.5-1.2,0.6
		c-0.5,0.1-1.2,0.2-2,0.2c-0.7,0-1.4-0.1-1.8-0.2c-0.5-0.1-0.9-0.3-1.1-0.6c-0.3-0.3-0.5-0.6-0.6-0.9c-0.1-0.4-0.2-0.8-0.2-1.2H72.3
		z"/>
	<path fill="#FFFFFF" d="M92.5,133.7h-0.9v-7.1c0-0.3,0-0.6-0.1-0.9c-0.1-0.3-0.2-0.5-0.3-0.6c-0.1-0.2-0.3-0.3-0.6-0.3
		c-0.2-0.1-0.6-0.1-0.9-0.1c-0.5,0-1,0.1-1.5,0.3c-0.5,0.2-1,0.5-1.5,0.9v7.8h-0.9V124h0.6l0.3,1.1c0.5-0.4,1.1-0.7,1.6-0.9
		c0.5-0.2,1.1-0.3,1.6-0.3c0.7,0,1.3,0.1,1.6,0.3c0.4,0.2,0.6,0.5,0.9,0.9c0.6-0.4,1.1-0.7,1.6-0.9s1.1-0.3,1.6-0.3
		c0.6,0,1,0.1,1.4,0.2c0.3,0.1,0.6,0.3,0.8,0.6c0.2,0.2,0.3,0.5,0.4,0.9c0.1,0.3,0.1,0.7,0.1,1.2v7.1h-0.9v-7.1
		c0-0.7-0.1-1.2-0.4-1.5c-0.3-0.3-0.8-0.4-1.6-0.4c-0.5,0-0.9,0.1-1.4,0.3c-0.5,0.2-1,0.5-1.5,0.9V133.7z"/>
	<path fill="#FFFFFF" d="M101.6,129.3c0,0.8,0.1,1.5,0.2,2c0.1,0.5,0.3,0.9,0.5,1.2c0.3,0.3,0.6,0.5,1,0.5c0.4,0.1,0.9,0.1,1.5,0.1
		s1.2,0,1.7-0.1c0.5-0.1,1-0.2,1.4-0.3v0.9c-0.4,0.1-0.9,0.2-1.4,0.3c-0.5,0.1-1.2,0.1-1.8,0.1c-0.7,0-1.3-0.1-1.8-0.2
		c-0.5-0.1-0.9-0.4-1.2-0.7c-0.3-0.3-0.6-0.8-0.7-1.4c-0.2-0.6-0.2-1.3-0.2-2.2v-1.1c0-0.9,0.1-1.6,0.2-2.2c0.2-0.6,0.4-1,0.7-1.4
		c0.3-0.3,0.7-0.6,1.2-0.7c0.5-0.1,1.1-0.2,1.7-0.2c0.7,0,1.2,0.1,1.7,0.2c0.5,0.1,0.9,0.4,1.2,0.7c0.3,0.3,0.5,0.8,0.7,1.4
		c0.1,0.6,0.2,1.3,0.2,2.2v0.9H101.6z M107.5,128.5c0-0.8,0-1.4-0.1-1.9c-0.1-0.5-0.2-0.9-0.5-1.2c-0.2-0.3-0.5-0.5-0.9-0.6
		c-0.4-0.1-0.8-0.2-1.4-0.2c-0.6,0-1,0.1-1.4,0.2c-0.4,0.1-0.7,0.3-0.9,0.6c-0.2,0.3-0.4,0.7-0.5,1.2c-0.1,0.5-0.1,1.1-0.1,1.9
		H107.5z"/>
	<path fill="#FFFFFF" d="M114.2,133.9c-0.6,0-1.1-0.1-1.6-0.2c-0.5-0.1-0.8-0.4-1.2-0.7c-0.3-0.3-0.6-0.8-0.7-1.4
		c-0.2-0.6-0.3-1.3-0.3-2.2v-1.1c0-0.9,0.1-1.6,0.3-2.2c0.2-0.6,0.4-1,0.7-1.4c0.3-0.3,0.7-0.6,1.2-0.7c0.5-0.1,1-0.2,1.6-0.2
		c0.5,0,1.1,0.1,1.6,0.4c0.6,0.2,1.1,0.5,1.5,0.9v-4.3h0.9v13h-0.6l-0.3-1.1c-0.5,0.3-1,0.6-1.6,0.9
		C115.3,133.8,114.7,133.9,114.2,133.9z M114.3,133.1c0.5,0,1-0.1,1.5-0.3c0.5-0.2,1.1-0.5,1.5-0.9v-6c-0.5-0.4-1-0.7-1.5-0.9
		c-0.5-0.2-1.1-0.3-1.5-0.3c-0.5,0-1,0.1-1.3,0.2c-0.4,0.1-0.7,0.3-0.9,0.6c-0.2,0.3-0.4,0.7-0.5,1.1c-0.1,0.5-0.2,1.1-0.2,1.8v1.1
		c0,0.7,0.1,1.3,0.2,1.8c0.1,0.5,0.3,0.9,0.5,1.1c0.2,0.3,0.5,0.5,0.9,0.6C113.3,133,113.8,133.1,114.3,133.1z"/>
	<path fill="#FFFFFF" d="M121.2,120.7h1.2v1.2h-1.2V120.7z M121.3,124h0.9v9.7h-0.9V124z"/>
	<path fill="#FFFFFF" d="M124.8,131.2c0-0.8,0.2-1.4,0.7-1.9c0.5-0.5,1.2-0.7,2.3-0.8l3.7-0.2v-1.4c0-0.4,0-0.8-0.1-1.1
		c-0.1-0.3-0.2-0.5-0.4-0.7c-0.2-0.2-0.5-0.3-0.8-0.4c-0.3-0.1-0.8-0.1-1.3-0.1c-0.5,0-0.9,0-1.2,0.1c-0.3,0.1-0.6,0.2-0.8,0.3
		c-0.2,0.2-0.4,0.4-0.5,0.6c-0.1,0.3-0.1,0.6-0.1,1h-0.9c0-0.6,0.1-1.1,0.3-1.4c0.2-0.4,0.4-0.7,0.7-0.9c0.3-0.2,0.7-0.4,1.1-0.4
		c0.4-0.1,0.9-0.1,1.5-0.1c0.6,0,1.2,0.1,1.6,0.2c0.5,0.1,0.8,0.3,1.1,0.5c0.3,0.2,0.5,0.6,0.6,0.9c0.1,0.4,0.2,0.9,0.2,1.5v6.8
		h-0.6l-0.3-1.1c-0.6,0.4-1.1,0.7-1.6,0.9c-0.5,0.2-1.1,0.3-1.8,0.3c-1,0-1.8-0.2-2.4-0.6C125.1,132.8,124.8,132.1,124.8,131.2z
		 M128.2,133.1c0.7,0,1.3-0.1,1.8-0.3c0.5-0.2,1-0.5,1.5-0.9V129l-3.6,0.3c-0.7,0.1-1.3,0.2-1.6,0.5c-0.3,0.3-0.5,0.7-0.5,1.4
		c0,0.7,0.2,1.2,0.6,1.5C126.9,132.9,127.5,133.1,128.2,133.1z"/>
</g>
<rect x="2.7" y="34.1" fill="#99FF3E" width="90.6" height="50.6"/>
<rect x="97.3" y="34.1" fill="#7255FD" width="36.9" height="50.6"/>
<rect x="2.7" y="2" fill="#0063FF" width="37.8" height="28.4"/>
<rect x="44.5" y="2" fill="#00DAFC" width="89.7" height="28.4"/>
</svg>
