<?xml version="1.0" encoding="utf-8"?>
<!-- Generator: Adobe Illustrator 18.0.0, SVG Export Plug-In . SVG Version: 6.00 Build 0)  -->
<!DOCTYPE svg PUBLIC "-//W3C//DTD SVG 1.1//EN" "http://www.w3.org/Graphics/SVG/1.1/DTD/svg11.dtd">
<svg version="1.1" id="Layer_1" xmlns="http://www.w3.org/2000/svg" xmlns:xlink="http://www.w3.org/1999/xlink" x="0px" y="0px"
	 width="135.1px" height="36.8px" viewBox="0 0 135.1 36.8" enable-background="new 0 0 135.1 36.8" xml:space="preserve">
<g>
	<path fill="#FFFFFF" d="M2.2,16.4C2.2,8.4,9.4,2,18,2c4.9,0,12.5,0.4,15.3,8.7l-8.5,3.7c-1.3-4.2-3.4-4.9-6.1-4.9c-4,0-6,4.6-6,8.8
		c0,0-0.6,9.6,6.6,9.6c5.9,0,6.2-3.8,6.2-3.8h-6.8v-7h16.8c0,0-0.2,1.7-0.3,3.3c-0.3,5.1-2.3,14.9-16.9,14.9
		C0.9,35.2,2.2,16.4,2.2,16.4z"/>
	<path fill="#FFFFFF" d="M34.2,24c0-10.3,5-13.9,11.9-13.9c13.9,0,12.5,13.4,12.5,13.4c0,6.1-3.7,11.7-11.9,11.7
		C34.2,35.2,34.2,24,34.2,24z M50.1,24c0-4.8-1.4-7.3-4.1-7.3c-3.5,0-3.3,6.1-3.3,6.1c0,2.6,0.8,6,3.4,6C49.8,28.8,50.1,24,50.1,24z
		"/>
	<path fill="#FFFFFF" d="M58.7,4.6l8.7-3.5v33.7h-8.7V4.6z"/>
	<path fill="#FFFFFF" d="M70,17.1h-2.5v-6.5H70V8.5c0-2.5,0.6-4.1,1.8-5.4c1.3-1.3,3.1-1.9,5.6-1.9c2.3,0,3.7,0.2,5.5,0.7v5.6
		c-1.5-0.4-2-0.4-3.1-0.4c-1.4,0-1.2,1.6-1.2,3v0.5h4.1v6.4h-4.2v17.6H70V17.1z"/>
	<path fill="#FFFFFF" d="M79.9,27.4h7v7.2h-7V27.4z"/>
	<path fill="#FFFFFF" d="M86.8,32.4l1.8-5.4c6,2.9,9.4,2.9,10.7,2.3c1-0.4,0.7-1.2,0.7-1.2c0-0.8-1.8-1.6-4.1-2.2
		c-4.2-1.1-9.2-2-9.1-9.1c0,0,0.5-7.8,12.1-7.3c3.1,0.1,6.4,0.9,8.8,2.5l-2.2,5.8c-2.2-1.2-4.2-1.9-6.6-1.8c-1.1,0-3.5,0-3.5,0.6
		c0,0-1.2,1.7,2.9,2.5c4.3,0.9,10.5,3.3,9.4,9.3c0,0-0.2,6.8-9.6,6.7C94.5,35.2,89.7,34.5,86.8,32.4z"/>
	<path fill="#FFFFFF" d="M106.1,22.8c0,0,0.2-12.7,11.7-12.8c7.4,0,13.1,5.8,12.8,15.2l-16.3,0.1c0.6,2.3,2.6,3.8,4.9,3.8
		c1.8,0,4.9-0.4,6.5-1.9l3.3,4.9c-2.1,2.6-5.7,3.1-10,3.3C111.1,35.8,106.1,29.4,106.1,22.8z M121.7,20.1c-0.3-2.4-1.7-3.9-3.7-3.9
		c-2,0-3.3,1.5-3.7,3.9H121.7z"/>
</g>
</svg>
