<?xml version="1.0" encoding="utf-8"?>
<!-- Generator: Adobe Illustrator 18.0.0, SVG Export Plug-In . SVG Version: 6.00 Build 0)  -->
<!DOCTYPE svg PUBLIC "-//W3C//DTD SVG 1.1//EN" "http://www.w3.org/Graphics/SVG/1.1/DTD/svg11.dtd">
<svg version="1.1" id="Layer_1" xmlns="http://www.w3.org/2000/svg" xmlns:xlink="http://www.w3.org/1999/xlink" x="0px" y="0px"
	 width="195.4px" height="39px" viewBox="0 0 195.4 39" enable-background="new 0 0 195.4 39" xml:space="preserve">
<g>
	<g>
		<path fill="#FFFFFF" d="M8.5,36.7h13.3v-4L18,32.6V9.9h3.2c0.6,0,1,0.1,1.2,0.3c0.2,0.2,0.2,0.6,0.2,1.2v2.2l4.8-0.3v-8H2.7v8
			l4.8,0.3v-2.2c0-1,0.4-1.5,1.1-1.5h3.7v21.5c0,0.8-0.5,1.3-1.4,1.4L8.5,33V36.7z"/>
	</g>
	<g>
		<path fill="#FFFFFF" d="M38.1,12.3c-3.7,0-6.6,1.3-8.6,3.8c-2,2.5-3.1,5.7-3.1,9.4c0,3.7,0.9,6.7,2.7,8.8c1.8,2.1,4.6,3.2,8.5,3.2
			c1.9,0,3.6-0.3,5.1-0.9c1.5-0.6,2.5-1.2,3.2-1.7l-1.8-3.8c-1.9,1.4-3.9,2.1-5.9,2.1c-2,0-3.4-0.5-4.4-1.5c-0.9-1-1.5-2.4-1.6-4.1
			l0,0h0c2.6,0,5-0.3,7.1-0.9c1.3-0.4,2.3-0.9,3.2-1.5c0.9-0.6,1.6-1.4,2.2-2.5c0.6-1,0.9-2.3,0.9-3.7c0-2.1-0.7-3.7-2.1-4.8
			C42.4,12.8,40.5,12.3,38.1,12.3z M32.1,23.4L32.1,23.4c0.1-2,0.6-3.7,1.6-5.1c0.9-1.4,2.3-2.1,4.1-2.1c1.9,0,2.9,1,2.9,2.9
			c0,1-0.5,1.8-1.5,2.6c-1,0.7-2.1,1.2-3.2,1.4C34.8,23.3,33.5,23.4,32.1,23.4L32.1,23.4z"/>
	</g>
	<g>
		<path fill="#FFFFFF" d="M63.6,36.7h11.2V33l-2.7-0.1V20.5c0-2.7-0.7-4.8-2-6.2c-1.3-1.4-3.2-2.1-5.5-2.1c-1.6,0-3,0.3-4.4,1
			c-1.3,0.7-2.4,1.6-3.3,2.8l0,0.1V13h-8v3.7l2,0.1c0.8,0,1.2,0.5,1.2,1.5v13.1c0,0.6-0.1,1-0.3,1.2c-0.2,0.2-0.6,0.3-1.1,0.4
			l-1.5,0.1v3.5h11.2V33l-2.7-0.1V21.4c0-1.3,0.4-2.4,1.3-3.4c0.9-0.9,2.1-1.4,3.6-1.4c1.5,0,2.5,0.4,3.1,1.3
			c0.5,0.8,0.8,2.1,0.8,3.9v9.8c0,0.6-0.1,1-0.3,1.2c-0.2,0.2-0.6,0.3-1.1,0.4l-1.5,0.1V36.7z"/>
	</g>
	<g>
		<path fill="#FFFFFF" d="M92,36.7h11.2V33l-2.7-0.1V20.5c0-2.7-0.7-4.8-2-6.2c-1.3-1.4-3.2-2.1-5.5-2.1c-1.6,0-3,0.3-4.4,1
			c-1.3,0.7-2.4,1.6-3.3,2.8l0,0.1V13h-8v3.7l2,0.1c0.8,0,1.2,0.5,1.2,1.5v13.1c0,0.6-0.1,1-0.3,1.2c-0.2,0.2-0.6,0.3-1.1,0.4
			l-1.5,0.1v3.5h11.2V33l-2.7-0.1V21.4c0-1.3,0.4-2.4,1.3-3.4c0.9-0.9,2.1-1.4,3.6-1.4c1.5,0,2.5,0.4,3.1,1.3
			c0.5,0.8,0.8,2.1,0.8,3.9v9.8c0,0.6-0.1,1-0.3,1.2c-0.2,0.2-0.6,0.3-1.1,0.4L92,33.2V36.7z"/>
	</g>
	<g>
		<path fill="#FFFFFF" d="M106,36.7h11.2V33l-2.7-0.1V13h-8.4v3.9l1.6,0.1c0.4,0,0.8,0.1,0.9,0.3c0.2,0.2,0.3,0.6,0.3,1.1v13.2
			c0,0.9-0.5,1.4-1.4,1.5l-1.5,0.1V36.7z M111.2,2.8c-1.1,0-1.9,0.3-2.6,1c-0.7,0.7-1,1.5-1,2.5c0,1,0.3,1.8,1,2.5
			c0.7,0.6,1.5,1,2.6,1c1.1,0,1.9-0.3,2.6-1c0.7-0.6,1-1.5,1-2.5c0-1-0.3-1.8-1-2.5C113.2,3.2,112.3,2.8,111.2,2.8z"/>
	</g>
	<g>
		<path fill="#FFFFFF" d="M120.6,35.9c1.9,1,4.9,1.5,8.7,1.5c2.6,0,4.8-0.7,6.5-2c1.7-1.3,2.6-3.2,2.6-5.5c0-1.8-0.6-3.3-1.7-4.5
			c-0.4-0.5-1-0.9-1.8-1.3c-0.8-0.4-1.5-0.7-2-0.9c-0.5-0.2-1.4-0.4-2.5-0.7c-1.1-0.3-2.1-0.7-2.8-1.1c-0.5-0.3-0.9-0.6-1.1-1
			c-0.2-0.4-0.4-1-0.4-1.7c0-0.7,0.3-1.3,1-1.8c0.7-0.5,1.5-0.7,2.6-0.7c1.1,0,2,0.1,2.8,0.4c0.7,0.3,1.1,0.8,1.1,1.6v2l4.2-0.3
			v-5.6c-2.6-1.2-5.2-1.9-7.8-1.9c-2.6,0-4.8,0.7-6.5,2c-1.7,1.3-2.6,3.2-2.6,5.6c0,2.4,0.8,4.2,2.4,5.2c0.8,0.5,1.6,0.9,2.2,1.2
			c0.7,0.3,1.3,0.5,1.9,0.6c0.6,0.2,1.2,0.3,1.8,0.5c0.6,0.2,1.2,0.3,1.6,0.5c0.4,0.2,0.9,0.5,1.4,0.9c0.5,0.4,0.7,1,0.7,1.7
			c0,1.9-1.3,2.9-4,2.9c-2.7,0-4-0.7-4-2.1V29l-4.2,0.3V35.9z"/>
	</g>
	<g>
		<path fill="#FFFFFF" d="M144.7,30.7c-1,0-1.9,0.3-2.5,1c-0.6,0.6-0.9,1.5-0.9,2.4c0,1,0.3,1.8,0.9,2.4c0.6,0.6,1.4,0.9,2.5,0.9
			c1.1,0,1.9-0.3,2.5-1c0.6-0.6,0.9-1.5,0.9-2.4c0-1-0.3-1.8-0.9-2.4C146.6,31,145.7,30.7,144.7,30.7z"/>
	</g>
	<g>
		<path fill="#FFFFFF" d="M152.1,35.9c1.9,1,4.9,1.5,8.7,1.5c2.6,0,4.8-0.7,6.5-2c1.7-1.3,2.6-3.2,2.6-5.5c0-1.8-0.6-3.3-1.7-4.5
			c-0.4-0.5-1-0.9-1.8-1.3c-0.8-0.4-1.5-0.7-2-0.9c-0.5-0.2-1.4-0.4-2.5-0.7c-1.1-0.3-2.1-0.7-2.8-1.1c-0.5-0.3-0.9-0.6-1.1-1
			c-0.2-0.4-0.4-1-0.4-1.7c0-0.7,0.3-1.3,1-1.8c0.7-0.5,1.5-0.7,2.6-0.7c1.1,0,2,0.1,2.8,0.4c0.7,0.3,1.1,0.8,1.1,1.6v2l4.2-0.3
			v-5.6c-2.6-1.2-5.2-1.9-7.8-1.9c-2.6,0-4.8,0.7-6.5,2c-1.7,1.3-2.6,3.2-2.6,5.6c0,2.4,0.8,4.2,2.4,5.2c0.8,0.5,1.6,0.9,2.2,1.2
			c0.7,0.3,1.3,0.5,1.9,0.6c0.6,0.2,1.2,0.3,1.8,0.5c0.6,0.2,1.1,0.3,1.6,0.5c0.4,0.2,0.9,0.5,1.4,0.9c0.5,0.4,0.7,1,0.7,1.7
			c0,1.9-1.3,2.9-4,2.9c-2.7,0-4-0.7-4-2.1V29l-4.2,0.3V35.9z"/>
	</g>
	<g>
		<path fill="#FFFFFF" d="M184.9,12.3c-3.7,0-6.6,1.3-8.6,3.8c-2,2.5-3.1,5.7-3.1,9.4c0,3.7,0.9,6.7,2.7,8.8
			c1.8,2.1,4.6,3.2,8.5,3.2c1.9,0,3.6-0.3,5.1-0.9c1.5-0.6,2.5-1.2,3.2-1.7l-1.8-3.8c-1.9,1.4-3.9,2.1-5.9,2.1c-2,0-3.4-0.5-4.4-1.5
			c-0.9-1-1.5-2.4-1.6-4.1v0h0c2.6,0,5-0.3,7.1-0.9c1.3-0.4,2.3-0.9,3.2-1.5c0.9-0.6,1.6-1.4,2.2-2.5c0.6-1,0.9-2.3,0.9-3.7
			c0-2.1-0.7-3.7-2.1-4.8C189.1,12.8,187.2,12.3,184.9,12.3z M178.9,23.4L178.9,23.4c0.1-2,0.6-3.7,1.6-5.1c0.9-1.4,2.3-2.1,4.1-2.1
			c1.9,0,2.9,1,2.9,2.9c0,1-0.5,1.8-1.5,2.6c-1,0.7-2.1,1.2-3.2,1.4C181.6,23.3,180.3,23.4,178.9,23.4L178.9,23.4z"/>
	</g>
</g>
</svg>
