<?xml version="1.0" encoding="utf-8"?>
<!-- Generator: Adobe Illustrator 18.0.0, SVG Export Plug-In . SVG Version: 6.00 Build 0)  -->
<!DOCTYPE svg PUBLIC "-//W3C//DTD SVG 1.1//EN" "http://www.w3.org/Graphics/SVG/1.1/DTD/svg11.dtd">
<svg version="1.1" id="Layer_1" xmlns="http://www.w3.org/2000/svg" xmlns:xlink="http://www.w3.org/1999/xlink" x="0px" y="0px"
	 width="183.7px" height="46.5px" viewBox="0 0 183.7 46.5" enable-background="new 0 0 183.7 46.5" xml:space="preserve">
<rect x="2" y="20.4" fill="#99FF3E" width="38.4" height="21.5"/>
<rect x="42.1" y="20.4" fill="#7255FD" width="15.7" height="21.5"/>
<rect x="2" y="6.8" fill="#0063FF" width="16" height="12"/>
<rect x="19.7" y="6.8" fill="#00DAFC" width="38.1" height="12"/>
<g>
	<path fill="#FFFFFF" d="M78.1,26.4c-0.7,0.2-1.8,0.3-2.5,0.3c-4.4,0-7-1.9-7-6V10.5H65V7.9l3.6-1V2.2L73.1,1v5.8h5.6v3.7h-5.6v9.6
		c0,1.9,1,2.9,3.3,2.9c0.7,0,1.3-0.1,1.8-0.2V26.4z"/>
	<path fill="#FFFFFF" d="M93.1,10.3c-0.5-0.2-1.3-0.2-2.2-0.2c-2.4,0-4.1,0.5-5.1,1.2v14.9h-4.5V6.8H84l0.7,1.5c1.5-1.2,3.7-2,6.3-2
		c0.8,0,1.6,0.1,2.1,0.2V10.3z"/>
	<path fill="#FFFFFF" d="M101,10.1c-2.6,0-4.7,0.6-6.2,1.2V7.5c1.6-0.7,4.2-1.1,6.5-1.1c6.5,0,8.1,2.8,8.1,6.9v12.9h-2.6l-0.7-1.5
		c-1.6,1.3-3.8,2-6,2c-5.1,0-6.9-3.1-6.9-6.2c0-4.2,2.8-6,7.3-6.3l4.5-0.3v-1C104.9,10.9,103.9,10.1,101,10.1z M100.7,17.3
		c-2,0.2-3.2,1-3.2,3c0,1.5,0.6,2.9,3.1,2.9c1.8,0,3-0.5,4.3-1.3v-5L100.7,17.3z"/>
	<path fill="#FFFFFF" d="M115.5,6.8l4.6,14l4.6-14h4.8L122,26.6h-3.7l-7.6-19.7H115.5z"/>
	<path fill="#FFFFFF" d="M138.5,6.4c7,0,8.1,4.5,8.1,9.8c0,0.7,0,1.3-0.1,1.9h-12.4c0.1,2.9,1.2,4.8,5.2,4.8c2.5,0,4.6-0.4,6.3-1.2
		v3.7c-2.3,0.9-4.9,1.2-7,1.2c-6.7,0-9.1-3.9-9.1-10.1C129.7,10.3,132,6.4,138.5,6.4z M134.2,15.1h8c0-2.6-0.2-5-3.6-5
		C135.2,10.1,134.3,12.2,134.2,15.1z"/>
	<path fill="#FFFFFF" d="M156.4,10.1c-2.6,0-4.7,0.6-6.2,1.2V7.5c1.6-0.7,4.2-1.1,6.5-1.1c6.5,0,8.1,2.8,8.1,6.9v12.9h-2.6l-0.7-1.5
		c-1.6,1.3-3.8,2-6,2c-5.1,0-6.9-3.1-6.9-6.2c0-4.2,2.8-6,7.3-6.3l4.5-0.3v-1C160.3,10.9,159.4,10.1,156.4,10.1z M156.1,17.3
		c-2,0.2-3.2,1-3.2,3c0,1.5,0.6,2.9,3.1,2.9c1.8,0,3-0.5,4.3-1.3v-5L156.1,17.3z"/>
	<path fill="#FFFFFF" d="M174.9,14.6c6,0.5,7.5,2.2,7.5,5.8c0,3.3-2.1,6.2-8.5,6.2c-2.8,0-5.2-0.5-6.6-1v-3.7
		c1.3,0.5,3.4,1.1,5.9,1.1c3.2,0,4.7-0.7,4.7-2.4c0-1.4-0.6-2.2-3.3-2.4c-6-0.5-7.5-2.3-7.5-5.7s2.2-6.2,8.1-6.2
		c2.7,0,4.6,0.3,6.2,1v3.8c-1.7-0.6-3.6-1.1-6.1-1.1c-2.4,0-3.8,0.7-3.8,2.4C171.6,13.8,172.3,14.4,174.9,14.6z"/>
</g>
<g>
	<path fill="#FFFFFF" d="M69.3,39.4c0,0.6,0.2,1.1,0.5,1.4c0.4,0.3,1,0.4,1.9,0.4c0.6,0,1,0,1.4-0.1c0.3-0.1,0.6-0.2,0.8-0.4
		c0.2-0.2,0.3-0.3,0.4-0.6c0.1-0.2,0.1-0.5,0.1-0.7c0-0.3,0-0.5-0.1-0.7c-0.1-0.2-0.2-0.3-0.4-0.5C73.6,38.1,73.3,38,73,38
		c-0.3-0.1-0.7-0.1-1.2-0.2c-1.1-0.1-1.9-0.3-2.4-0.7c-0.5-0.4-0.7-0.9-0.7-1.7c0-0.9,0.3-1.5,0.9-1.9c0.6-0.4,1.3-0.6,2.3-0.6
		c1.1,0,1.9,0.2,2.4,0.6c0.5,0.4,0.8,1.1,0.8,2h-0.8c0-0.7-0.2-1.1-0.5-1.4c-0.3-0.3-0.9-0.4-1.8-0.4c-0.7,0-1.3,0.1-1.7,0.4
		c-0.4,0.2-0.6,0.7-0.6,1.3c0,0.6,0.2,1,0.6,1.2s1,0.4,1.8,0.5c0.6,0.1,1.2,0.1,1.6,0.2c0.4,0.1,0.8,0.3,1,0.4
		c0.3,0.2,0.4,0.4,0.5,0.7c0.1,0.3,0.1,0.6,0.1,1c0,0.4,0,0.7-0.1,1c-0.1,0.3-0.2,0.6-0.5,0.8c-0.2,0.2-0.6,0.4-1,0.5
		c-0.4,0.1-1,0.2-1.8,0.2c-0.7,0-1.2-0.1-1.6-0.2c-0.4-0.1-0.8-0.3-1-0.5c-0.2-0.2-0.4-0.5-0.5-0.8c-0.1-0.3-0.1-0.7-0.1-1.1H69.3z"
		/>
	<path fill="#FFFFFF" d="M80.9,33c0.5,0,1,0.1,1.4,0.2c0.4,0.1,0.7,0.3,1,0.6c0.3,0.3,0.5,0.7,0.6,1.2c0.1,0.5,0.2,1.2,0.2,2v1
		c0,0.8-0.1,1.5-0.2,2c-0.1,0.5-0.4,0.9-0.6,1.2c-0.3,0.3-0.6,0.5-1,0.6c-0.4,0.1-0.9,0.2-1.4,0.2c-0.5,0-1-0.1-1.4-0.3
		c-0.5-0.2-1-0.5-1.4-0.8v3.8h-0.8V33.2h0.5l0.3,0.9c0.4-0.3,0.9-0.6,1.4-0.8C80,33.1,80.5,33,80.9,33z M80.9,33.7
		c-0.4,0-0.9,0.1-1.4,0.3c-0.5,0.2-0.9,0.5-1.4,0.8v5.3c0.4,0.3,0.9,0.6,1.4,0.8c0.5,0.2,0.9,0.3,1.4,0.3c0.5,0,0.8,0,1.2-0.1
		c0.3-0.1,0.6-0.3,0.8-0.5c0.2-0.2,0.3-0.6,0.4-1c0.1-0.4,0.1-1,0.1-1.6v-1c0-0.7,0-1.2-0.1-1.6c-0.1-0.4-0.2-0.8-0.4-1
		c-0.2-0.2-0.5-0.4-0.8-0.5C81.7,33.8,81.3,33.7,80.9,33.7z"/>
	<path fill="#FFFFFF" d="M93.1,37.9c0,0.8-0.1,1.4-0.2,1.9c-0.1,0.5-0.3,0.9-0.6,1.2c-0.3,0.3-0.6,0.5-1.1,0.6
		c-0.4,0.1-1,0.2-1.6,0.2c-0.6,0-1.1-0.1-1.6-0.2c-0.4-0.1-0.8-0.3-1.1-0.6c-0.3-0.3-0.5-0.7-0.6-1.2c-0.1-0.5-0.2-1.2-0.2-1.9v-1
		c0-0.8,0.1-1.4,0.2-1.9c0.1-0.5,0.3-0.9,0.6-1.2c0.3-0.3,0.6-0.5,1.1-0.6c0.4-0.1,1-0.2,1.6-0.2c0.6,0,1.1,0.1,1.6,0.2
		c0.4,0.1,0.8,0.3,1.1,0.6c0.3,0.3,0.5,0.7,0.6,1.2c0.1,0.5,0.2,1.2,0.2,1.9V37.9z M92.3,37c0-0.7,0-1.2-0.1-1.6
		c-0.1-0.4-0.2-0.8-0.4-1c-0.2-0.2-0.5-0.4-0.8-0.5c-0.3-0.1-0.8-0.1-1.3-0.1c-0.5,0-0.9,0-1.3,0.1c-0.3,0.1-0.6,0.3-0.8,0.5
		c-0.2,0.2-0.4,0.6-0.4,1S87,36.3,87,37v1c0,0.7,0,1.2,0.1,1.6c0.1,0.4,0.2,0.8,0.4,1c0.2,0.2,0.5,0.4,0.8,0.5
		c0.3,0.1,0.8,0.1,1.3,0.1c0.5,0,0.9,0,1.3-0.1c0.3-0.1,0.6-0.3,0.8-0.5c0.2-0.2,0.4-0.6,0.4-1c0.1-0.4,0.1-1,0.1-1.6V37z"/>
	<path fill="#FFFFFF" d="M98.7,33.8c-0.6,0-1.1,0.1-1.5,0.2c-0.4,0.2-0.7,0.4-1.1,0.8v6.9h-0.8v-8.6h0.5l0.3,0.9
		c0.4-0.3,0.7-0.6,1.1-0.8c0.4-0.2,0.9-0.3,1.4-0.3V33.8z"/>
	<path fill="#FFFFFF" d="M100.9,31.1l0.8-0.2v2.2h2.1v0.7h-2.1v6c0,0.4,0.1,0.7,0.2,0.9s0.4,0.3,0.9,0.3c0.3,0,0.5,0,0.7-0.1
		c0.2,0,0.4-0.1,0.6-0.1v0.7c-0.2,0-0.4,0.1-0.6,0.1c-0.2,0-0.5,0.1-0.7,0.1c-0.6,0-1.1-0.2-1.4-0.5c-0.3-0.3-0.5-0.8-0.5-1.5v-6h-1
		v-0.5l1-0.2V31.1z"/>
	<path fill="#FFFFFF" d="M106.1,39.4c0,0.6,0.2,1.1,0.5,1.4c0.4,0.3,1,0.4,1.9,0.4c0.6,0,1,0,1.4-0.1c0.3-0.1,0.6-0.2,0.8-0.4
		c0.2-0.2,0.3-0.3,0.4-0.6c0.1-0.2,0.1-0.5,0.1-0.7c0-0.3,0-0.5-0.1-0.7c-0.1-0.2-0.2-0.3-0.4-0.5c-0.2-0.1-0.5-0.2-0.8-0.3
		c-0.3-0.1-0.7-0.1-1.2-0.2c-1.1-0.1-1.9-0.3-2.4-0.7c-0.5-0.4-0.7-0.9-0.7-1.7c0-0.9,0.3-1.5,0.9-1.9c0.6-0.4,1.3-0.6,2.3-0.6
		c1.1,0,1.9,0.2,2.4,0.6c0.5,0.4,0.8,1.1,0.8,2h-0.8c0-0.7-0.2-1.1-0.5-1.4c-0.3-0.3-0.9-0.4-1.8-0.4c-0.7,0-1.3,0.1-1.7,0.4
		c-0.4,0.2-0.6,0.7-0.6,1.3c0,0.6,0.2,1,0.6,1.2s1,0.4,1.8,0.5c0.6,0.1,1.2,0.1,1.6,0.2c0.4,0.1,0.8,0.3,1,0.4
		c0.3,0.2,0.4,0.4,0.5,0.7c0.1,0.3,0.1,0.6,0.1,1c0,0.4,0,0.7-0.1,1c-0.1,0.3-0.2,0.6-0.5,0.8c-0.2,0.2-0.6,0.4-1,0.5
		c-0.4,0.1-1,0.2-1.8,0.2c-0.7,0-1.2-0.1-1.6-0.2c-0.4-0.1-0.8-0.3-1-0.5c-0.2-0.2-0.4-0.5-0.5-0.8c-0.1-0.3-0.1-0.7-0.1-1.1H106.1z
		"/>
	<path fill="#FFFFFF" d="M124.1,41.7h-0.8v-6.3c0-0.3,0-0.6-0.1-0.8s-0.1-0.4-0.3-0.5c-0.1-0.1-0.3-0.2-0.5-0.3
		c-0.2-0.1-0.5-0.1-0.8-0.1c-0.4,0-0.9,0.1-1.3,0.3c-0.4,0.2-0.9,0.5-1.3,0.8v6.9h-0.8v-8.6h0.5l0.3,0.9c0.5-0.4,1-0.6,1.4-0.8
		c0.5-0.2,0.9-0.3,1.4-0.3c0.6,0,1.1,0.1,1.4,0.3c0.3,0.2,0.6,0.5,0.8,0.8c0.5-0.4,1-0.6,1.4-0.8s0.9-0.3,1.5-0.3
		c0.5,0,0.9,0.1,1.2,0.2c0.3,0.1,0.5,0.3,0.7,0.5s0.3,0.5,0.4,0.8c0.1,0.3,0.1,0.6,0.1,1v6.3h-0.8v-6.3c0-0.6-0.1-1.1-0.4-1.3
		c-0.2-0.3-0.7-0.4-1.4-0.4c-0.4,0-0.8,0.1-1.3,0.3c-0.4,0.2-0.9,0.5-1.3,0.8V41.7z"/>
	<path fill="#FFFFFF" d="M132.2,37.8c0,0.7,0,1.3,0.1,1.7c0.1,0.4,0.2,0.8,0.5,1c0.2,0.2,0.5,0.4,0.9,0.5c0.4,0.1,0.8,0.1,1.3,0.1
		c0.5,0,1,0,1.5-0.1c0.5-0.1,0.9-0.2,1.3-0.3v0.8c-0.4,0.1-0.8,0.2-1.3,0.2c-0.5,0.1-1,0.1-1.6,0.1c-0.6,0-1.1-0.1-1.6-0.2
		c-0.4-0.1-0.8-0.3-1.1-0.6c-0.3-0.3-0.5-0.7-0.6-1.2c-0.1-0.5-0.2-1.2-0.2-2v-1c0-0.8,0.1-1.5,0.2-2c0.1-0.5,0.4-0.9,0.6-1.2
		c0.3-0.3,0.6-0.5,1.1-0.6c0.4-0.1,0.9-0.2,1.5-0.2c0.6,0,1.1,0.1,1.5,0.2c0.4,0.1,0.8,0.3,1,0.6c0.3,0.3,0.5,0.7,0.6,1.2
		c0.1,0.5,0.2,1.2,0.2,2v0.8H132.2z M137.3,37.1c0-0.7,0-1.2-0.1-1.7c-0.1-0.4-0.2-0.8-0.4-1c-0.2-0.2-0.5-0.4-0.8-0.5
		c-0.3-0.1-0.7-0.1-1.2-0.1c-0.5,0-0.9,0-1.2,0.1c-0.3,0.1-0.6,0.3-0.8,0.5c-0.2,0.2-0.4,0.6-0.4,1c-0.1,0.4-0.1,1-0.1,1.7H137.3z"
		/>
	<path fill="#FFFFFF" d="M143.3,41.9c-0.5,0-1-0.1-1.4-0.2c-0.4-0.1-0.7-0.3-1-0.6c-0.3-0.3-0.5-0.7-0.6-1.2c-0.1-0.5-0.2-1.2-0.2-2
		v-1c0-0.8,0.1-1.5,0.2-2c0.1-0.5,0.4-0.9,0.6-1.2c0.3-0.3,0.6-0.5,1-0.6c0.4-0.1,0.9-0.2,1.4-0.2c0.5,0,1,0.1,1.4,0.3
		s1,0.5,1.4,0.8v-3.8h0.8v11.5h-0.5l-0.3-0.9c-0.4,0.3-0.9,0.6-1.4,0.8C144.3,41.8,143.8,41.9,143.3,41.9z M143.4,41.2
		c0.4,0,0.9-0.1,1.4-0.3c0.5-0.2,0.9-0.5,1.4-0.8v-5.3c-0.4-0.3-0.9-0.6-1.4-0.8c-0.5-0.2-0.9-0.3-1.4-0.3c-0.5,0-0.8,0-1.2,0.1
		c-0.3,0.1-0.6,0.3-0.8,0.5c-0.2,0.2-0.3,0.6-0.4,1s-0.1,1-0.1,1.6v1c0,0.7,0,1.2,0.1,1.6c0.1,0.4,0.2,0.8,0.4,1
		c0.2,0.2,0.5,0.4,0.8,0.5C142.5,41.2,142.9,41.2,143.4,41.2z"/>
	<path fill="#FFFFFF" d="M149.5,30.3h1.1v1.1h-1.1V30.3z M149.6,33.2h0.8v8.6h-0.8V33.2z"/>
	<path fill="#FFFFFF" d="M152.7,39.5c0-0.7,0.2-1.3,0.6-1.7c0.4-0.4,1.1-0.6,2-0.7l3.2-0.2v-1.2c0-0.4,0-0.7-0.1-1
		c-0.1-0.3-0.2-0.5-0.4-0.6c-0.2-0.2-0.4-0.3-0.7-0.3c-0.3-0.1-0.7-0.1-1.1-0.1c-0.4,0-0.8,0-1.1,0.1c-0.3,0.1-0.5,0.2-0.7,0.3
		c-0.2,0.1-0.3,0.3-0.4,0.6c-0.1,0.2-0.1,0.5-0.1,0.9h-0.8c0-0.5,0.1-0.9,0.2-1.3c0.1-0.3,0.4-0.6,0.6-0.8c0.3-0.2,0.6-0.3,1-0.4
		c0.4-0.1,0.8-0.1,1.3-0.1c0.6,0,1.1,0,1.5,0.1c0.4,0.1,0.7,0.2,1,0.5c0.3,0.2,0.4,0.5,0.5,0.8c0.1,0.3,0.2,0.8,0.2,1.3v6h-0.5
		l-0.3-0.9c-0.5,0.4-1,0.7-1.4,0.8c-0.5,0.2-1,0.3-1.6,0.3c-0.9,0-1.6-0.2-2.1-0.6C153,41,152.7,40.3,152.7,39.5z M155.7,41.2
		c0.6,0,1.1-0.1,1.6-0.3c0.4-0.2,0.9-0.5,1.3-0.8v-2.6l-3.2,0.3c-0.7,0.1-1.1,0.2-1.4,0.5c-0.3,0.3-0.5,0.7-0.5,1.2
		c0,0.6,0.2,1.1,0.6,1.3C154.5,41.1,155,41.2,155.7,41.2z"/>
</g>
</svg>
