<?xml version="1.0" encoding="utf-8"?>
<!-- Generator: Adobe Illustrator 18.0.0, SVG Export Plug-In . SVG Version: 6.00 Build 0)  -->
<!DOCTYPE svg PUBLIC "-//W3C//DTD SVG 1.1//EN" "http://www.w3.org/Graphics/SVG/1.1/DTD/svg11.dtd">
<svg version="1.1" id="Layer_1" xmlns="http://www.w3.org/2000/svg" xmlns:xlink="http://www.w3.org/1999/xlink" x="0px" y="0px"
	 width="76.6px" height="91.1px" viewBox="0 0 76.6 91.1" enable-background="new 0 0 76.6 91.1" xml:space="preserve">
<g>
	<g>
		<polygon fill="#33519A" points="26.8,74.7 24,74.7 24,84.6 26.8,84.6 49.3,84.6 52.1,84.6 52.1,74.7 49.3,74.7 		"/>
		<path fill="#33519A" d="M71.8,15.1c-1.5-2-4.1-2.3-7-1.6c-2.9,0.7-6.4,1.7-6.4,1.7V6.8H18.4v8.2c-3.4-1-3.4-1-6.4-1.7
			c-2.9-0.7-5.4-0.4-7,1.7c-1.6,2.1-1,5.6-0.9,6.2c1.2,8.5,5.7,21,20.3,26l1.1,0.4c2.1,2.5,4.9,4.8,8.5,6.5v10c0,0,0.6,4.9-5.6,6.9
			c-1.1,0.4-0.8,1.8,0.2,1.8c1,0,18.9,0,19.7,0c0.8,0,1.3-1.5,0.2-1.8c-6.2-2-5.6-6.9-5.6-6.9v-10c3.6-1.8,6.3-4,8.5-6.5l1.1-0.4
			c14.6-5,19-17.5,20.3-26C72.8,20.7,73.4,17.2,71.8,15.1z M8.4,19.2c-0.1-3.2,3.2-1.7,3.2-1.7l6.9,2v5.6c0,0-0.8,8.6,3.5,16.5
			C12,36.8,8.5,25.2,8.4,19.2z M55,41.6c4.2-7.9,3.5-16.5,3.5-16.5v-5.6l6.9-2c0,0,3.2-1.5,3.2,1.7C68.4,25.2,64.9,36.8,55,41.6z"/>
	</g>
</g>
</svg>
