<svg xmlns="http://www.w3.org/2000/svg"><symbol viewBox="0 0 76.6 91.1" id="icon-champion"><title>champion</title> <g> <g> <polygon fill="#34519B" points="26.8,74.7 24,74.7 24,84.6 26.8,84.6 49.3,84.6 52.1,84.6 52.1,74.7 49.3,74.7 		"/> <path fill="#34519B" d="M71.8,15.1c-1.5-2-4.1-2.3-7-1.6c-2.9,0.7-6.4,1.7-6.4,1.7V6.8H18.4v8.2c-3.4-1-3.4-1-6.4-1.7
			c-2.9-0.7-5.4-0.4-7,1.7c-1.6,2.1-1,5.6-0.9,6.2c1.2,8.5,5.7,21,20.3,26l1.1,0.4c2.1,2.5,4.9,4.8,8.5,6.5v10c0,0,0.6,4.9-5.6,6.9
			c-1.1,0.4-0.8,1.8,0.2,1.8c1,0,18.9,0,19.7,0c0.8,0,1.3-1.5,0.2-1.8c-6.2-2-5.6-6.9-5.6-6.9v-10c3.6-1.8,6.3-4,8.5-6.5l1.1-0.4
			c14.6-5,19-17.5,20.3-26C72.8,20.7,73.4,17.2,71.8,15.1z M8.4,19.2c-0.1-3.2,3.2-1.7,3.2-1.7l6.9,2v5.6c0,0-0.8,8.6,3.5,16.5
			C12,36.8,8.5,25.2,8.4,19.2z M55,41.6c4.2-7.9,3.5-16.5,3.5-16.5v-5.6l6.9-2c0,0,3.2-1.5,3.2,1.7C68.4,25.2,64.9,36.8,55,41.6z"/> </g> </g> </symbol><symbol viewBox="0 0 78.9 81.7" id="icon-mic"><title>mic</title> <g> <path fill="#FFFFFF" d="M75.5,50.2L42.2,27.6l0.2-0.3c2.1-3.1,1.5-7.6-1.6-9.7l-21.5-14c-3.1-2.1-7.2-1.3-9.3,1.8l-6.5,9.5
		c-2.1,3.1-1.3,7.2,1.8,9.3l21.3,14.4c3.1,2.1,7.2,1.3,9.3-1.8l0.2-0.3l33.3,22.6c1,0.7,2.3,0.4,3-0.6l3.7-5.4
		C76.8,52.2,76.5,50.9,75.5,50.2z"/> <path fill="#FFFFFF" d="M64.6,74.2H50.3V51.4l-5.6-4v26.7h-15c-1.4,0-2.5,1.1-2.5,2.5c0,1.4,1.1,2.5,2.5,2.5h35
		c1.4,0,2.5-1.1,2.5-2.5C67.2,75.3,66,74.2,64.6,74.2z"/> </g> </symbol><symbol viewBox="0 0 93.8 90.4" id="icon-price-tag"><title>price-tag</title> <g> <path fill="#282A50" d="M52.8,16.9l39.3,39.3L78.7,69.6L59.5,88.8L20.2,49.5V19.8c0,0,0-1.3,0.8-2.1c0.9-0.9,2.5-0.8,2.5-0.8H52.8z
		 M28.1,25.3c-1.4,1.4-1.4,3.7,0,5.1c1.4,1.4,3.7,1.4,5.1,0c1.4-1.4,1.4-3.7,0-5.1C31.8,23.8,29.5,23.8,28.1,25.3z"/> <path fill="#282A50" d="M18.3,22.3c0,0-0.2-0.1-0.2-0.2c-1.2-0.8-2.4-1.6-3.5-2.6C6.1,13,2.1,6.1,3.7,4c0.5-0.6,1.4-0.7,2.1-0.7
		c3.6,0,9.7,2.9,15.5,7.5c2.1,1.6,3.9,3.3,5.5,4.9c0,0,0.1,0.1,0.1,0.1s0.7,0.7,1.4,0.3c0.5-0.4,0-1.3,0-1.3s-0.1-0.1-0.1-0.2
		c-1.7-1.8-3.7-3.6-5.8-5.2C16.3,4.7,9.8,1.6,5.8,1.6C4.3,1.6,3.1,2.1,2.4,3c-2.9,3.7,3.5,12,11.1,17.9c1.3,1,2.7,2,4,2.8
		c0.1,0.1,0.3,0.2,0.3,0.2s0.9,0.4,1.2-0.2C19.3,22.9,18.3,22.3,18.3,22.3z"/> </g> </symbol></svg>