<?xml version="1.0" encoding="utf-8"?>
<!-- Generator: Adobe Illustrator 18.0.0, SVG Export Plug-In . SVG Version: 6.00 Build 0)  -->
<!DOCTYPE svg PUBLIC "-//W3C//DTD SVG 1.1//EN" "http://www.w3.org/Graphics/SVG/1.1/DTD/svg11.dtd">
<svg version="1.1" id="Layer_1" xmlns="http://www.w3.org/2000/svg" xmlns:xlink="http://www.w3.org/1999/xlink" x="0px" y="0px"
	 width="78.9px" height="81.7px" viewBox="0 0 78.9 81.7" enable-background="new 0 0 78.9 81.7" xml:space="preserve">
<g>
	<path fill="#FFFFFF" d="M75.5,50.2L42.2,27.6l0.2-0.3c2.1-3.1,1.5-7.6-1.6-9.7l-21.5-14c-3.1-2.1-7.2-1.3-9.3,1.8l-6.5,9.5
		c-2.1,3.1-1.3,7.2,1.8,9.3l21.3,14.4c3.1,2.1,7.2,1.3,9.3-1.8l0.2-0.3l33.3,22.6c1,0.7,2.3,0.4,3-0.6l3.7-5.4
		C76.8,52.2,76.5,50.9,75.5,50.2z"/>
	<path fill="#FFFFFF" d="M64.6,74.2H50.3V51.4l-5.6-4v26.7h-15c-1.4,0-2.5,1.1-2.5,2.5c0,1.4,1.1,2.5,2.5,2.5h35
		c1.4,0,2.5-1.1,2.5-2.5C67.2,75.3,66,74.2,64.6,74.2z"/>
</g>
</svg>
