<?xml version="1.0" encoding="utf-8"?>
<!-- Generator: Adobe Illustrator 18.0.0, SVG Export Plug-In . SVG Version: 6.00 Build 0)  -->
<!DOCTYPE svg PUBLIC "-//W3C//DTD SVG 1.1//EN" "http://www.w3.org/Graphics/SVG/1.1/DTD/svg11.dtd">
<svg version="1.1" id="Layer_1" xmlns="http://www.w3.org/2000/svg" xmlns:xlink="http://www.w3.org/1999/xlink" x="0px" y="0px"
	 width="93.8px" height="90.4px" viewBox="0 0 93.8 90.4" enable-background="new 0 0 93.8 90.4" xml:space="preserve">
<g>
	<path fill="#282A50" d="M52.8,16.9l39.3,39.3L78.7,69.6L59.5,88.8L20.2,49.5V19.8c0,0,0-1.3,0.8-2.1c0.9-0.9,2.5-0.8,2.5-0.8H52.8z
		 M28.1,25.3c-1.4,1.4-1.4,3.7,0,5.1c1.4,1.4,3.7,1.4,5.1,0c1.4-1.4,1.4-3.7,0-5.1C31.8,23.8,29.5,23.8,28.1,25.3z"/>
	<path fill="#282A50" d="M18.3,22.3c0,0-0.2-0.1-0.2-0.2c-1.2-0.8-2.4-1.6-3.5-2.6C6.1,13,2.1,6.1,3.7,4c0.5-0.6,1.4-0.7,2.1-0.7
		c3.6,0,9.7,2.9,15.5,7.5c2.1,1.6,3.9,3.3,5.5,4.9c0,0,0.1,0.1,0.1,0.1s0.7,0.7,1.4,0.3c0.5-0.4,0-1.3,0-1.3s-0.1-0.1-0.1-0.2
		c-1.7-1.8-3.7-3.6-5.8-5.2C16.3,4.7,9.8,1.6,5.8,1.6C4.3,1.6,3.1,2.1,2.4,3c-2.9,3.7,3.5,12,11.1,17.9c1.3,1,2.7,2,4,2.8
		c0.1,0.1,0.3,0.2,0.3,0.2s0.9,0.4,1.2-0.2C19.3,22.9,18.3,22.3,18.3,22.3z"/>
</g>
</svg>
