<?xml version="1.0" standalone="no"?>
<!DOCTYPE svg PUBLIC "-//W3C//DTD SVG 1.1//EN" "http://www.w3.org/Graphics/SVG/1.1/DTD/svg11.dtd" >
<svg xmlns="http://www.w3.org/2000/svg" xmlns:xlink="http://www.w3.org/1999/xlink" version="1.1">
<metadata>
Created by FontForge 20150102 at Wed Feb 18 14:58:55 2015
 By uniteet7
2009 Erik Spiekermann, Christian Schwartz, Kris Sowersby published by FSI FontShop International GmbH
</metadata>
<defs>
<font id="MetaSerifWebBook" horiz-adv-x="1" >
  <font-face 
    font-family="MetaSerifWebBook"
    font-weight="450"
    font-stretch="normal"
    units-per-em="1000"
    panose-1="2 1 6 4 5 1 1 2 1 2"
    ascent="763"
    descent="-237"
    x-height="491"
    cap-height="689"
    bbox="-759 -276 1306 923"
    underline-thickness="50"
    underline-position="-50"
    unicode-range="U+0020-FEFF"
  />
<missing-glyph horiz-adv-x="553" 
d="M71 689h411v-689h-411v689zM432 50v589h-311v-589h311z" />
    <glyph glyph-name="uniFB00" unicode="ff" horiz-adv-x="589" 
d="M190 104q0 -20 2.5 -33t9.5 -21t20 -11.5t33 -4.5v-34h-226v34q21 1 35 4.5t21.5 11t10.5 20.5t3 34v332h-63v32l63 23v46q0 80 51 126.5t142 46.5q38 0 70 -11t54 -30q20 27 51 44t73 17q29 0 54.5 -5t43.5 -13v-83h-61q-8 52 -46 52q-29 0 -44.5 -21.5t-15.5 -73.5v-95
h121l-14 -55h-106v-332q0 -20 3 -33t12.5 -21t27 -11.5t46.5 -4.5v-34h-246v34q20 1 32.5 4.5t20 11t10.5 20.5t3 34v332h-191v-332zM189 491h192v71q0 29 -7.5 48t-20.5 30.5t-30.5 16t-36.5 4.5q-51 0 -74 -30.5t-23 -92.5v-47z" />
    <glyph glyph-name="fi" unicode="fi" horiz-adv-x="568" 
d="M190 104q0 -20 2.5 -33t9.5 -21t20 -11.5t33 -4.5v-34h-226v34q21 1 35 4.5t21.5 11t10.5 20.5t3 34v332h-63v32l63 23v66q0 80 49 126.5t135 46.5q37 0 70.5 -5.5t51.5 -12.5v-90h-73q-4 25 -18.5 42t-39.5 17q-85 0 -85 -123v-67h219l49 13h15v-400q0 -21 2 -34.5
t9.5 -21t21 -10.5t37.5 -4v-34h-227v34q20 1 32.5 4.5t20 11t10.5 20.5t3 34v247q0 50 -13 67.5t-53 17.5h-125v-332z" />
    <glyph glyph-name="fl" unicode="fl" horiz-adv-x="572" 
d="M381 584q0 97 -93 97q-53 0 -76 -30.5t-23 -95.5v-64h121l-14 -55h-106v-332q0 -20 2.5 -33t9.5 -21t20 -11.5t33 -4.5v-34h-226v34q21 1 35 4.5t21.5 11t10.5 20.5t3 34v332h-63v32l63 23v63q0 83 52 129.5t146 46.5q38 0 68.5 -7.5t50.5 -18.5l27 26h29v-623
q0 -22 2.5 -36t10 -21.5t22.5 -11t39 -4.5v-34h-239v34q23 1 37.5 4.5t22.5 11t11 20.5t3 34v480z" />
    <glyph glyph-name="uniFB03" unicode="ffi" horiz-adv-x="850" 
d="M421 664q23 32 58.5 49t85.5 17q37 0 70.5 -5.5t51.5 -12.5v-90h-73q-4 25 -18.5 42t-39.5 17q-85 0 -85 -123v-67h219l49 13h15v-400q0 -21 2 -34.5t9.5 -21t21 -10.5t37.5 -4v-34h-227v34q20 1 32.5 4.5t20 11t10.5 20.5t3 34v247q0 27 -3 44t-11.5 26t-22.5 12t-36 3
h-118v-332q0 -20 2.5 -33t9.5 -21t20 -11.5t33 -4.5v-34h-222v34q20 1 32.5 4.5t20 11t10.5 20.5t3 34v332h-191v-332q0 -20 2.5 -33t9.5 -21t20 -11.5t33 -4.5v-34h-226v34q21 1 35 4.5t21.5 11t10.5 20.5t3 34v332h-63v32l63 23v46q0 80 51 126.5t142 46.5
q41 0 74.5 -12.5t54.5 -33.5zM381 560q0 31 -8 51t-21 31t-30.5 15t-35.5 4q-51 0 -74 -30.5t-23 -92.5v-47h192v69z" />
    <glyph glyph-name="uniFB04" unicode="ffl" horiz-adv-x="854" 
d="M418 667q26 30 66.5 46.5t94.5 16.5q38 0 68.5 -7.5t50.5 -18.5l27 26h29v-623q0 -22 2.5 -36t10 -21.5t22.5 -11t39 -4.5v-34h-239v34q23 1 37.5 4.5t22.5 11t11 20.5t3 34v480q0 97 -93 97q-53 0 -76 -30.5t-23 -95.5v-64h121l-14 -55h-106v-332q0 -20 2.5 -33t9.5 -21
t20 -11.5t33 -4.5v-34h-222v34q20 1 32.5 4.5t20 11t10.5 20.5t3 34v332h-191v-332q0 -20 2.5 -33t9.5 -21t20 -11.5t33 -4.5v-34h-226v34q21 1 35 4.5t21.5 11t10.5 20.5t3 34v332h-63v32l63 23v46q0 80 51 126.5t142 46.5q39 0 71.5 -11.5t54.5 -31.5zM189 491h192v69
q0 31 -8 51t-21 31t-30.5 15t-35.5 4q-51 0 -74 -30.5t-23 -92.5v-47z" />
    <glyph glyph-name=".notdef" horiz-adv-x="553" 
d="M71 689h411v-689h-411v689zM432 50v589h-311v-589h311z" />
    <glyph glyph-name=".null" horiz-adv-x="0" 
 />
    <glyph glyph-name="nonmarkingreturn" horiz-adv-x="225" 
 />
    <glyph glyph-name="space" unicode=" " horiz-adv-x="225" 
 />
    <glyph glyph-name="exclam" unicode="!" horiz-adv-x="291" 
d="M86 687l115 17l-31 -494h-53zM144 -8q-27 0 -45.5 19.5t-18.5 48.5q0 27 18.5 46t46.5 19q27 0 46.5 -19t19.5 -46q0 -29 -20 -48.5t-47 -19.5z" />
    <glyph glyph-name="quotedbl" unicode="&#x22;" horiz-adv-x="434" 
d="M264 453v256h85v-256h-85zM85 453v256h85v-256h-85z" />
    <glyph glyph-name="numbersign" unicode="#" horiz-adv-x="551" 
d="M64 499h102l29 209h62l-29 -209h132l29 209h62l-29 -209h94v-69h-103l-21 -151h94v-68h-103l-30 -211h-62l29 211h-132l-29 -211h-62l29 211h-91v68h101l20 151h-92v69zM198 279h132l21 151h-132z" />
    <glyph glyph-name="dollar" unicode="$" horiz-adv-x="570" 
d="M261 -100v89q-39 0 -71 5.5t-57.5 13.5t-44.5 17.5t-32 18.5v124h69q4 -32 12.5 -56t24 -40.5t39.5 -25.5t60 -10v277l-37 12q-76 23 -115.5 65.5t-39.5 115.5q0 39 13 72.5t37.5 59t60.5 41.5t81 20v86h45v-84q68 -2 108.5 -17.5t66.5 -33.5v-107h-65q-8 45 -31.5 74
t-78.5 35v-249l36 -11q36 -11 67 -27t53 -39t34.5 -54t12.5 -71q0 -90 -52 -144.5t-151 -64.5v-92h-45zM422 166q0 30 -6.5 51t-20.5 36t-36 26t-53 21v-263q63 8 89.5 43t26.5 86zM151 537q0 -27 6.5 -45.5t20 -32t34 -24t49.5 -19.5v237q-52 -5 -81 -35t-29 -81z" />
    <glyph glyph-name="percent" unicode="%" horiz-adv-x="891" 
d="M342 442q0 -47 -12 -84t-33.5 -63t-50 -40t-61.5 -14q-32 0 -60.5 14t-49.5 40.5t-33 64t-12 85.5q0 47 12 85t33 65t49 41.5t60 14.5q36 0 65.5 -16t50 -44.5t31.5 -66.5t11 -82zM262 437q0 93 -21 135t-55 42q-41 0 -57.5 -39.5t-16.5 -120.5q0 -95 18 -136t56 -41
q35 0 55.5 38.5t20.5 121.5zM222 -123h-53l487 853h54zM861 192q0 -47 -12 -84t-33.5 -63t-50 -40t-61.5 -14q-32 0 -60.5 14t-49.5 40.5t-33 64t-12 85.5q0 47 12 85t33 65t49 41.5t60 14.5q36 0 65.5 -16t50 -44.5t31.5 -66.5t11 -82zM781 187q0 93 -21 135t-55 42
q-41 0 -57.5 -39.5t-16.5 -120.5q0 -95 18 -136t56 -41q35 0 55.5 38.5t20.5 121.5z" />
    <glyph glyph-name="ampersand" unicode="&#x26;" horiz-adv-x="693" 
d="M472 548q0 -33 -11.5 -59.5t-32 -49t-49 -41.5t-62.5 -36l195 -196q20 46 20 106q0 21 -2.5 35.5t-10.5 23t-23 12.5t-40 5v35h214v-35q-25 -1 -39 -5t-21.5 -12.5t-10.5 -23t-5 -35.5q-5 -41 -16.5 -76.5t-28.5 -66.5l68 -68q16 -15 38 -21.5t38 -6.5v-33h-140l-60 60
q-38 -34 -90 -52.5t-118 -18.5q-62 0 -107.5 13t-76.5 35.5t-46 54t-15 67.5q0 38 11 65.5t32.5 48.5t52.5 39t70 37l-30 30q-21 21 -37.5 38.5t-28 36.5t-18 41.5t-6.5 52.5q0 29 12.5 56.5t36.5 49t59.5 34.5t81.5 13q95 0 145.5 -39.5t50.5 -113.5zM305 35q45 0 85.5 13
t72.5 42l-229 231q-23 -15 -40 -28t-28 -28.5t-16.5 -35.5t-5.5 -47q0 -28 10 -54.5t30 -47t50 -33t71 -12.5zM179 555q0 -42 23.5 -72.5t56.5 -62.5l31 -30q26 21 42.5 37t26.5 33.5t13.5 38t3.5 49.5q0 108 -100 108q-45 0 -71 -26.5t-26 -74.5z" />
    <glyph glyph-name="quotesingle" unicode="'" horiz-adv-x="255" 
d="M85 453v256h85v-256h-85z" />
    <glyph glyph-name="parenleft" unicode="(" horiz-adv-x="333" 
d="M148 324q0 -65 5 -132t22 -127t49.5 -109.5t88.5 -79.5l-17 -35q-73 31 -119 82t-72 115t-35.5 137t-9.5 147t10.5 140t37.5 123t72.5 104.5t115.5 85.5l17 -35q-55 -35 -87.5 -79t-50 -96.5t-22.5 -113t-5 -127.5z" />
    <glyph glyph-name="parenright" unicode=")" horiz-adv-x="333" 
d="M185 324q0 65 -5.5 125.5t-22.5 113.5t-49.5 97.5t-87.5 79.5l17 35q70 -38 115.5 -85.5t72.5 -104.5t37.5 -123t10.5 -140t-9.5 -147t-35.5 -137t-72 -115t-119 -82l-17 35q55 30 88 77t50 105t22 126t5 140z" />
    <glyph glyph-name="asterisk" unicode="*" horiz-adv-x="461" 
d="M295 491l69 -127l-37 -29l-98 108l-95 -105l-36 27l68 126l-126 64l13 41l139 -30l18 142h42l17 -142l138 29l14 -42z" />
    <glyph glyph-name="plus" unicode="+" horiz-adv-x="575" 
d="M316 507v-209h204v-53h-204v-211h-59v211h-202v53h202v209h59z" />
    <glyph glyph-name="comma" unicode="," horiz-adv-x="297" 
d="M218 31q0 -29 -10.5 -56.5t-29 -50.5t-45 -40.5t-58.5 -26.5l-20 31q44 17 66 39t22 44q0 14 -9.5 20t-26.5 13q-14 6 -28 19t-14 39q0 29 20.5 49.5t51.5 20.5q35 0 58 -28t23 -73z" />
    <glyph glyph-name="hyphen" unicode="-" horiz-adv-x="313" 
d="M55 235v71h203v-71h-203z" />
    <glyph glyph-name="period" unicode="." horiz-adv-x="272" 
d="M207 59q0 -31 -20 -52t-51 -21t-51 21t-20 52t20 52t51 21t51 -21t20 -52z" />
    <glyph glyph-name="slash" unicode="/" horiz-adv-x="398" 
d="M289 761h68l-260 -910h-68z" />
    <glyph glyph-name="zero" unicode="0" horiz-adv-x="570" 
d="M531 322q0 -77 -19.5 -139t-52.5 -105t-78 -66t-96 -23t-96 23.5t-78.5 67.5t-52.5 106.5t-19 141.5q0 78 19 141.5t52 107.5t77.5 68t95.5 24q57 0 103 -27t78 -73.5t49.5 -110t17.5 -136.5zM428 316q0 157 -40 231t-105 74q-78 0 -110.5 -70t-32.5 -210q0 -81 9 -139
t27 -95t45 -54t64 -17q66 0 104.5 68t38.5 212z" />
    <glyph glyph-name="one" unicode="1" horiz-adv-x="570" 
d="M347 108q0 -23 5.5 -36t21 -20t42 -9.5t68.5 -3.5v-39h-364v39q42 1 68.5 3t41.5 9.5t20.5 21t5.5 36.5v457q-31 -17 -71.5 -32.5t-73.5 -26.5l-13 29l191 121h58v-549z" />
    <glyph glyph-name="two" unicode="2" horiz-adv-x="570" 
d="M271 668q47 0 83.5 -13.5t61.5 -37.5t38 -57.5t13 -73.5q0 -46 -19.5 -90.5t-53 -89t-78 -88.5t-94.5 -90l-60 -55h338l-16 -73h-417v46l125 127q42 42 74.5 79.5t55 74.5t34.5 74.5t12 81.5q0 60 -31.5 92t-77.5 32q-53 0 -86.5 -17t-64.5 -42l-27 40q37 36 84.5 58
t105.5 22z" />
    <glyph glyph-name="three" unicode="3" horiz-adv-x="570" 
d="M253 604q-54 0 -91 -15.5t-62 -34.5l-31 39q41 32 89 52.5t106 20.5q88 0 139 -41.5t51 -114.5q0 -56 -33 -97.5t-96 -59.5q69 -14 108 -54.5t39 -96.5t-25.5 -99.5t-66 -73.5t-92 -45.5t-103.5 -15.5q-73 0 -121 15l-11 43q24 -5 50.5 -7.5t49.5 -2.5q48 0 89 12
t70 35.5t45.5 57t16.5 77.5q0 37 -10 61t-30 38t-49.5 19.5t-67.5 5.5q-11 0 -21.5 -0.5t-23.5 -1.5v51q14 -1 26 -1.5t29 -0.5q65 0 100 30.5t35 107.5q0 44 -29 70.5t-80 26.5z" />
    <glyph glyph-name="four" unicode="4" horiz-adv-x="570" 
d="M350 156h-305v42l225 461h98l-251 -454h233q1 157 39 276l52 17v-293h84v-49h-84v-167l-91 -19v186z" />
    <glyph glyph-name="five" unicode="5" horiz-adv-x="570" 
d="M468 206q0 -59 -23.5 -104t-62.5 -75t-89.5 -45.5t-104.5 -15.5q-21 0 -37.5 1t-30 3.5t-25 5.5t-24.5 8l-11 46q27 -8 52.5 -11.5t60.5 -3.5q39 0 75 10.5t63 32.5t43 56.5t16 83.5q0 66 -33 101t-100 35q-38 0 -69.5 -6.5t-60.5 -17.5l31 342h317l-14 -75h-248
l-18 -201q21 6 44.5 9.5t43.5 3.5q46 0 84 -12.5t65 -36t41.5 -57.5t14.5 -77z" />
    <glyph glyph-name="six" unicode="6" horiz-adv-x="570" 
d="M460 662q-59 -23 -108 -50.5t-85.5 -64.5t-61 -86t-34.5 -115q27 22 64.5 37.5t78.5 15.5q42 0 78.5 -13t63.5 -37.5t42.5 -60.5t15.5 -82q0 -47 -16 -87.5t-44.5 -70t-68.5 -46.5t-87 -17q-51 0 -93.5 18.5t-73 53.5t-47 86t-16.5 116q0 97 31.5 170.5t83.5 127.5
t120 89.5t142 56.5zM295 342q-35 0 -68.5 -12.5t-60.5 -32.5q-1 -11 -1 -22v-23q0 -60 9.5 -101.5t27 -67.5t42 -37.5t54.5 -11.5q55 0 87 39.5t32 130.5q0 43 -10 70t-26.5 42t-38.5 20.5t-47 5.5z" />
    <glyph glyph-name="seven" unicode="7" horiz-adv-x="570" 
d="M480 587q-42 -56 -79.5 -126t-68.5 -148t-55.5 -160t-39.5 -162l-101 -26q18 77 48 160t67.5 163.5t79 154.5t83.5 133h-337l17 75h399z" />
    <glyph glyph-name="eight" unicode="8" horiz-adv-x="570" 
d="M55 165q0 31 12.5 58t33 49t47 39t53.5 30q-22 12 -42.5 26.5t-36.5 33.5t-25.5 43t-9.5 53q0 38 16.5 69.5t44 54t63.5 35t76 12.5q45 0 81.5 -11.5t62.5 -32t40.5 -49t14.5 -62.5q0 -28 -11.5 -51.5t-29.5 -42.5t-41 -34t-47 -26q28 -12 56 -27.5t50.5 -37.5t36.5 -51
t14 -68q0 -43 -17.5 -78t-48.5 -59.5t-73.5 -37.5t-91.5 -13q-55 0 -97.5 14t-71.5 38t-44 56.5t-15 69.5zM424 156q0 33 -12 56t-35 41.5t-57.5 34.5t-79.5 35q-41 -29 -66 -65t-25 -87q0 -66 34.5 -101t101.5 -35q63 0 101 32t38 89zM174 511q0 -23 7 -41.5t23.5 -34.5
t43.5 -30.5t66 -29.5q32 22 56 54t24 80q0 51 -27 81t-81 30t-83 -31t-29 -78z" />
    <glyph glyph-name="nine" unicode="9" horiz-adv-x="570" 
d="M61 -13q88 27 147.5 61t102.5 77q35 35 57 80t30 103q-26 -22 -63.5 -37t-78.5 -15q-42 0 -78.5 13t-63.5 37.5t-42.5 60.5t-15.5 82q0 47 16.5 87.5t46 70t70 46.5t87.5 17q103 0 164.5 -68.5t61.5 -200.5q0 -99 -32.5 -174.5t-88 -130.5t-130 -91t-158.5 -55zM275 313
q34 0 67.5 12t60.5 32q1 14 1.5 28t0.5 30q0 58 -9 97.5t-26 63.5t-40.5 34.5t-53.5 10.5q-55 0 -89 -39.5t-34 -130.5q0 -43 10 -70t26.5 -42t38.5 -20.5t47 -5.5z" />
    <glyph glyph-name="colon" unicode=":" horiz-adv-x="312" 
d="M227 373q0 -31 -20 -52t-51 -21t-51 21t-20 52t20 52t51 21t51 -21t20 -52zM227 59q0 -31 -20 -52t-51 -21t-51 21t-20 52t20 52t51 21t51 -21t20 -52z" />
    <glyph glyph-name="semicolon" unicode=";" horiz-adv-x="327" 
d="M238 31q0 -29 -10.5 -56.5t-29 -50.5t-45 -40.5t-58.5 -26.5l-20 31q44 17 66 39t22 44q0 14 -10 19.5t-26 13.5q-14 6 -28 19t-14 39q0 29 20.5 49.5t51.5 20.5q35 0 58 -28t23 -73zM227 373q0 -31 -20 -52t-51 -21t-51 21t-20 52t20 52t51 21t51 -21t20 -52z" />
    <glyph glyph-name="less" unicode="&#x3c;" horiz-adv-x="477" 
d="M55 254v72l367 232v-68l-316 -196l316 -173v-65z" />
    <glyph glyph-name="equal" unicode="=" horiz-adv-x="575" 
d="M55 226h465v-53h-465v53zM55 374h465v-53h-465v53z" />
    <glyph glyph-name="greater" unicode="&#x3e;" horiz-adv-x="477" 
d="M55 56v65l316 173l-316 196v68l367 -232v-72z" />
    <glyph glyph-name="question" unicode="?" horiz-adv-x="447" 
d="M277 60q0 -30 -21 -51.5t-50 -21.5t-48.5 21.5t-19.5 51.5q0 29 19.5 48.5t48.5 19.5t50 -19.5t21 -48.5zM211 654q-42 0 -63 -24.5t-26 -66.5h-64v90q9 6 23.5 14.5t35.5 15.5t47 12t57 5q36 0 67 -8t54.5 -26.5t36.5 -47.5t13 -71q0 -35 -12 -62t-28.5 -46t-33 -30.5
t-25.5 -17.5q-21 -14 -35.5 -26t-24 -25.5t-13.5 -30t-4 -38.5q0 -12 2 -27t6 -29h-41q-8 14 -16 32.5t-8 47.5q0 26 11 57t46 63q13 12 28 25t27.5 29t20.5 37.5t8 51.5q0 46 -25.5 71t-63.5 25z" />
    <glyph glyph-name="at" unicode="@" horiz-adv-x="906" 
d="M614 -1q-61 0 -90 23.5t-29 80.5q-20 -44 -54 -74t-91 -30q-54 0 -84.5 36t-30.5 102q0 73 23.5 131.5t62.5 99.5t89 62.5t103 21.5q48 0 80 -13t59 -37q-10 -32 -14.5 -51.5t-10.5 -44.5l-43 -175q-7 -29 -7 -49q0 -26 12 -35t37 -9q26 0 53 14t49.5 42t37 70.5
t14.5 100.5q0 82 -23.5 142t-64.5 98.5t-97.5 57t-122.5 18.5q-76 0 -139.5 -27t-109.5 -77t-71.5 -122t-25.5 -162q0 -71 21 -131.5t60 -104t95.5 -68t127.5 -24.5q54 0 91.5 6.5t69.5 17.5l15 -30q-40 -16 -84 -25.5t-104 -9.5q-82 0 -150.5 25t-118 72.5t-77 116
t-27.5 156.5q0 95 32 174.5t89 136.5t135.5 88.5t172.5 31.5q88 0 159.5 -24.5t122 -70.5t78 -110.5t27.5 -143.5q0 -74 -21 -126.5t-56 -86t-79.5 -49t-90.5 -15.5zM554 376q-6 12 -20 21t-34 9q-42 0 -74.5 -21.5t-54.5 -57.5t-33.5 -83.5t-11.5 -99.5q0 -46 15 -64.5
t39 -18.5q20 0 37.5 10.5t33.5 28.5t30.5 41t29.5 48z" />
    <glyph glyph-name="A" unicode="A" horiz-adv-x="657" 
d="M426 215h-230l-33 -108q-6 -21 -6 -35q0 -22 17.5 -28.5t55.5 -8.5v-35h-214v35q18 1 30.5 5.5t22 14t17.5 25.5t16 41l184 568h89l182 -566q7 -21 13.5 -37t15.5 -26.5t22 -17t33 -7.5v-35h-245v35q36 2 52 11t16 31q0 8 -1.5 16.5t-3.5 13.5zM211 263h201l-45 148
q-20 66 -33.5 117t-18.5 74h-4q-8 -30 -20.5 -76t-33.5 -115z" />
    <glyph glyph-name="B" unicode="B" horiz-adv-x="607" 
d="M37 35q25 1 40.5 5t24.5 12.5t12 23t3 35.5v467q0 21 -3 35.5t-12 23t-24.5 12.5t-40.5 5v35h252q133 0 191.5 -44t58.5 -126q0 -54 -27.5 -92.5t-98.5 -56.5v-4q83 -13 122 -62t39 -115q0 -50 -19.5 -85.5t-52.5 -58.5t-77 -34t-92 -11h-296v35zM339 49q40 0 66 8.5
t41.5 26.5t21.5 45.5t6 65.5t-7 65t-24 43.5t-46.5 24t-74.5 7.5h-110v-286h127zM315 383q73 0 100.5 31t27.5 94q0 73 -29.5 102.5t-102.5 29.5h-99v-257h103z" />
    <glyph glyph-name="C" unicode="C" horiz-adv-x="577" 
d="M348 -11q-78 0 -135.5 24.5t-95 70t-55.5 110t-18 145.5q0 86 21.5 153.5t60.5 114t93.5 70.5t120.5 24q41 0 72 -3.5t54 -10t40.5 -15t31.5 -18.5v-112h-70q-14 58 -41.5 85t-89.5 27q-43 0 -78 -16.5t-59.5 -53t-37.5 -96.5t-13 -147q0 -90 14 -149t39.5 -93.5
t62.5 -48.5t83 -14q60 0 89.5 24.5t40.5 83.5h65v-105q-26 -19 -73 -34.5t-122 -15.5z" />
    <glyph glyph-name="D" unicode="D" horiz-adv-x="670" 
d="M37 35q25 1 40.5 5t24.5 12.5t12 23t3 35.5v467q0 21 -3 35.5t-12 23t-24.5 12.5t-40.5 5v35h253q76 0 138.5 -20t106 -62.5t67.5 -107.5t24 -155q0 -75 -17.5 -138t-57.5 -108.5t-104 -71.5t-157 -26h-253v35zM300 51q56 0 97.5 12.5t69.5 44t41.5 86t13.5 138.5
q0 86 -14 145.5t-42 96t-69 52.5t-95 16h-87v-591h85z" />
    <glyph glyph-name="E" unicode="E" horiz-adv-x="565" 
d="M37 35q25 1 40.5 5t24.5 12.5t12 23t3 35.5v467q0 21 -3 35.5t-12 23t-24.5 12.5t-40.5 5v35h470l10 -150h-42q-8 28 -16 47.5t-18.5 31.5t-25 17t-36.5 5h-167v-256h93q23 0 39 3t26 11t14.5 22t6.5 35h41v-190h-41q-3 41 -20.5 56t-64.5 15h-94v-287h168q29 0 47.5 5
t30 18t17.5 35.5t9 57.5h45v-165h-492v35z" />
    <glyph glyph-name="F" unicode="F" horiz-adv-x="552" 
d="M37 35q25 1 40.5 5t24.5 12.5t12 23t3 35.5v467q0 21 -3 35.5t-12 23t-24.5 12.5t-40.5 5v35h472l12 -155h-42q-11 33 -20 53.5t-20 32.5t-26.5 16t-38.5 4h-162v-272h93q23 0 39 3t26 11t14.5 22t6.5 35h41v-193h-41q-3 42 -20.5 58t-64.5 16h-94v-206q0 -22 3.5 -37
t13.5 -24t27 -13t44 -5v-35h-263v35z" />
    <glyph glyph-name="G" unicode="G" horiz-adv-x="644" 
d="M461 229q0 21 -3 35.5t-13 23t-27.5 12.5t-46.5 5v35h250v-35q-39 -2 -52 -17.5t-13 -58.5v-189q-21 -13 -47 -22.5t-54.5 -16t-57.5 -9.5t-57 -3q-69 0 -123.5 24t-93 69t-59 110.5t-20.5 148.5q0 84 22 151t61 113.5t93.5 71t119.5 24.5q81 0 132.5 -15.5t79.5 -35.5
v-111h-70q-6 28 -15 50t-25.5 36t-43 21.5t-66.5 7.5q-52 0 -87.5 -24t-57.5 -66.5t-31.5 -100.5t-9.5 -127t9.5 -124.5t33 -95t62 -60.5t96.5 -21q74 0 114 31v163z" />
    <glyph glyph-name="H" unicode="H" horiz-adv-x="708" 
d="M496 340h-284v-229q0 -21 3 -35.5t12 -23t24.5 -12.5t40.5 -5v-35h-255v35q25 1 40.5 5t24.5 12.5t12 23t3 35.5v467q0 21 -3 35.5t-12 23t-24.5 12.5t-40.5 5v35h255v-35q-25 -1 -40.5 -5t-24.5 -12.5t-12 -23t-3 -35.5v-188h284v188q0 21 -3 35.5t-12 23t-24.5 12.5
t-40.5 5v35h255v-35q-25 -1 -40.5 -5t-24.5 -12.5t-12 -23t-3 -35.5v-467q0 -21 3 -35.5t12 -23t24.5 -12.5t40.5 -5v-35h-255v35q25 1 40.5 5t24.5 12.5t12 23t3 35.5v229z" />
    <glyph glyph-name="I" unicode="I" horiz-adv-x="329" 
d="M117 578q0 21 -3 35.5t-12 23t-24.5 12.5t-40.5 5v35h255v-35q-25 -1 -40.5 -5t-24.5 -12.5t-12 -23t-3 -35.5v-467q0 -21 3 -35.5t12 -23t24.5 -12.5t40.5 -5v-35h-255v35q25 1 40.5 5t24.5 12.5t12 23t3 35.5v467z" />
    <glyph glyph-name="J" unicode="J" horiz-adv-x="339" 
d="M122 578q0 21 -3.5 35.5t-13 23t-26 12.5t-42.5 5v35h265v-35q-26 -1 -42.5 -5t-26 -12.5t-13 -23t-3.5 -35.5v-471q0 -59 -9.5 -99.5t-31 -69.5t-58 -48.5t-90.5 -36.5l-24 37q40 21 63.5 40.5t35.5 43.5t15.5 54t3.5 72v478z" />
    <glyph glyph-name="K" unicode="K" horiz-adv-x="622" 
d="M117 578q0 21 -3 35.5t-12 23t-24.5 12.5t-40.5 5v35h255v-35q-25 -1 -40.5 -5t-24.5 -12.5t-12 -23t-3 -35.5v-467q0 -21 3 -35.5t12 -23t24.5 -12.5t40.5 -5v-35h-255v35q25 1 40.5 5t24.5 12.5t12 23t3 35.5v467zM314 390l211 -306q9 -14 17.5 -22.5t18 -14t22.5 -8.5
t33 -4v-35h-149l-239 361l184 215q14 17 19 28t5 20q0 28 -54 30v35h212v-35q-18 -3 -32 -8.5t-29 -17t-32.5 -30t-42.5 -46.5z" />
    <glyph glyph-name="L" unicode="L" horiz-adv-x="544" 
d="M212 49h144q27 0 46 6t32 20t21.5 37t16.5 57h44l-15 -169h-464v35q25 1 40.5 5t24.5 12.5t12 23t3 35.5v467q0 21 -3 35.5t-12 23t-24.5 12.5t-40.5 5v35h260v-35q-27 -1 -43.5 -5t-25.5 -13t-12.5 -24t-3.5 -36v-527z" />
    <glyph glyph-name="M" unicode="M" horiz-adv-x="801" 
d="M758 654q-27 -2 -43.5 -6.5t-25 -13.5t-11 -23t-0.5 -33l40 -464q2 -22 5 -36.5t10.5 -24t21 -13.5t34.5 -5v-35h-237v35q26 0 41.5 4.5t23 13t9 22t0.5 32.5l-29 366q-2 23 -2.5 51t-0.5 47v20h-6q-1 -8 -3.5 -21.5t-5.5 -28.5t-6.5 -30.5t-7.5 -28.5l-150 -482h-60
l-147 460q-5 15 -9.5 35t-8.5 39.5t-7 35t-4 22.5h-6q0 -11 -1.5 -46.5t-4.5 -85.5l-20 -352q-1 -18 -0.5 -32t7 -23t22 -13.5t44.5 -4.5v-35h-208v35q21 1 34.5 5t21 13t11 23.5t5.5 37.5l34 464q1 19 -0.5 33t-10 23t-25 14t-44.5 6v35h193l145 -453q11 -35 16 -67.5
t7 -48.5h6q1 7 2.5 20t4.5 29t7 33t9 33l136 454h194v-35z" />
    <glyph glyph-name="N" unicode="N" horiz-adv-x="685" 
d="M516 578q0 21 -3 35.5t-12 23t-24.5 12.5t-40.5 5v35h219v-35q-23 -1 -37 -5t-22 -12.5t-10.5 -23t-2.5 -35.5v-578h-71l-250 408q-42 67 -59.5 108.5t-24.5 61.5h-6q3 -20 7.5 -65.5t4.5 -118.5v-283q0 -21 3 -35.5t12 -23t24.5 -12.5t40.5 -5v-35h-227v35q25 1 40.5 5
t24.5 12.5t12 23t3 35.5v467q0 21 -3 35.5t-12 23t-24.5 12.5t-40.5 5v35h162l255 -418q11 -18 21.5 -38.5t19.5 -40t16 -37t11 -29.5h6q-2 11 -4 32t-4 49t-3 60t-1 66v245z" />
    <glyph glyph-name="O" unicode="O" horiz-adv-x="674" 
d="M340 -11q-74 0 -129.5 27t-92.5 74.5t-55.5 113t-18.5 143.5q0 85 20.5 151t59 111t92 68.5t119.5 23.5q79 0 135 -29.5t91.5 -79t52 -115t16.5 -137.5q0 -79 -19.5 -144t-57 -111t-91.5 -71t-122 -25zM335 654q-100 0 -144.5 -74.5t-44.5 -221.5q0 -73 10 -132.5
t32.5 -102t60 -66t91.5 -23.5q43 0 77.5 16.5t58.5 52.5t37 92.5t13 135.5q0 77 -10 137t-33 101.5t-59.5 63t-88.5 21.5z" />
    <glyph glyph-name="P" unicode="P" horiz-adv-x="577" 
d="M212 114q0 -22 3.5 -37t13.5 -24t27 -13t44 -5v-35h-263v35q25 1 40.5 5t24.5 12.5t12 23t3 35.5v467q0 21 -3 35.5t-12 23t-24.5 12.5t-40.5 5v35h252q74 0 123.5 -15.5t79.5 -42t42.5 -62.5t12.5 -78q0 -97 -59 -150.5t-173 -53.5h-103v-173zM446 480q0 44 -7 74.5
t-24 49.5t-47.5 27.5t-76.5 8.5h-79v-305h97q75 0 106 33.5t31 111.5z" />
    <glyph glyph-name="Q" unicode="Q" horiz-adv-x="676" 
d="M588 -125q-34 0 -63 17.5t-59.5 39t-65.5 39.5t-82 20q-66 2 -117.5 29.5t-86 75t-52.5 111.5t-18 140q0 85 20.5 151t59 111t92 68.5t119.5 23.5q79 0 135 -29.5t91.5 -79t52 -115t16.5 -137.5q0 -67 -14 -123.5t-41 -99t-66 -70.5t-89 -37q30 -7 54 -17.5t46.5 -20
t45 -16.5t49.5 -7q24 0 37.5 1t20.5 3l-27 -68q-5 -3 -19 -6.5t-39 -3.5zM335 654q-100 0 -144.5 -74.5t-44.5 -221.5q0 -73 10 -132.5t32.5 -102t60 -66t91.5 -23.5q43 0 77.5 16.5t58.5 52.5t37 92.5t13 135.5q0 77 -10 137t-33 101.5t-59.5 63t-88.5 21.5z" />
    <glyph glyph-name="R" unicode="R" horiz-adv-x="611" 
d="M324 324q37 -9 60.5 -26t40.5 -40q20 -25 47 -70.5t56 -94.5q8 -14 15 -24t16.5 -17.5t22.5 -11.5t33 -5v-35h-148q-34 66 -65 127t-63 112q-14 22 -27 38.5t-27.5 27t-32 15.5t-40.5 6v-217q0 -40 15.5 -56.5t62.5 -17.5v-35h-253v35q25 1 40.5 5t24.5 12.5t12 23
t3 35.5v467q0 21 -3 35.5t-12 23t-24.5 12.5t-40.5 5v35h248q56 0 102 -9.5t78.5 -31.5t50.5 -57.5t18 -87.5q0 -43 -16 -75.5t-44 -54t-66.5 -33t-83.5 -12.5v-4zM433 502q0 40 -8 67t-25.5 42.5t-44.5 22t-64 6.5h-79v-278h74q33 0 60 7t46.5 23t30 43t10.5 67z" />
    <glyph glyph-name="S" unicode="S" horiz-adv-x="538" 
d="M245 -11q-39 0 -71 5.5t-57.5 13.5t-44.5 17.5t-32 18.5v124h69q5 -33 14 -58t26 -41.5t43.5 -24.5t66.5 -8t68.5 10t45.5 27.5t25 41t8 51.5q0 32 -7 53.5t-23 37t-40.5 26t-58.5 21.5l-69 21q-76 23 -115.5 65.5t-39.5 115.5q0 43 15.5 78.5t44 61.5t70 40.5t93.5 14.5
q74 0 118.5 -16t70.5 -35v-107h-65q-5 25 -13 45.5t-24 35t-40 22.5t-60 8q-60 0 -94 -31t-34 -86q0 -28 7 -47t21.5 -33t37.5 -24t55 -20l70 -21q36 -11 67 -27t53 -39t34.5 -54t12.5 -71q0 -100 -63.5 -156t-184.5 -56z" />
    <glyph glyph-name="T" unicode="T" horiz-adv-x="551" 
d="M523 689l8 -157h-47q-6 32 -11.5 53t-14 33t-22.5 17t-36 5h-77v-529q0 -24 4.5 -38.5t15 -22.5t28 -11t42.5 -4v-35h-275v35q25 1 42.5 4t28 11t15 22.5t4.5 38.5v529h-77q-23 0 -36.5 -5t-22 -17t-14 -33t-11.5 -53h-47l8 157h495z" />
    <glyph glyph-name="U" unicode="U" horiz-adv-x="684" 
d="M517 578q0 21 -3 35.5t-12.5 23t-26 12.5t-43.5 5v35h224v-35q-23 -1 -37 -5t-22 -12.5t-10.5 -23t-2.5 -35.5v-354q0 -124 -60.5 -179.5t-173.5 -55.5q-125 0 -186 58t-61 170v361q0 21 -3 35.5t-11.5 23t-23 12.5t-37.5 5v35h255v-35q-27 -1 -43.5 -5t-26 -12.5
t-12.5 -23t-3 -35.5v-339q0 -50 8 -86t27 -59t51 -34t80 -11q83 0 118 41t35 134v354z" />
    <glyph glyph-name="V" unicode="V" horiz-adv-x="653" 
d="M279 0l-179 566q-7 22 -14 38t-16 26.5t-22 16t-32 7.5v35h245v-35q-36 -2 -52 -10.5t-16 -31.5q0 -10 5 -30l89 -303q6 -21 13 -47.5t14 -53.5t13 -52t10 -43h6l10 37q6 23 13 49.5t15 55t16 54.5l91 303q3 11 4.5 18.5t1.5 17.5q0 20 -16.5 27t-52.5 9v35h212v-35
q-18 -3 -30.5 -7t-22 -13t-17.5 -25t-16 -41l-181 -568h-91z" />
    <glyph glyph-name="W" unicode="W" horiz-adv-x="897" 
d="M471 438q-4 16 -7.5 33.5t-6 34t-4.5 30.5t-3 23h-4q-1 -7 -3.5 -20.5t-5.5 -30t-6.5 -34.5t-7.5 -36l-103 -438h-96l-128 566q-5 24 -11 40t-15 26t-22 15t-32 7v35h241v-35q-37 -3 -53.5 -12t-16.5 -32q0 -9 0.5 -14.5t2.5 -13.5l66 -298q5 -24 9.5 -50.5t8 -51
t6 -44.5t3.5 -30h6q1 7 4.5 24t8.5 40.5t11 52t14 59.5l97 405h75l101 -406q7 -29 13.5 -56.5t11.5 -51t9 -41t6 -26.5h6q1 7 4 24.5t7 41.5t9.5 52.5t11.5 56.5l61 277q3 15 4 24.5t1 16.5q0 29 -17 40t-56 13v35h209v-35q-36 -5 -52.5 -27t-27.5 -70l-128 -557h-92z" />
    <glyph glyph-name="X" unicode="X" horiz-adv-x="632" 
d="M359 374l149 -257q13 -23 25 -38t24 -24t24 -13.5t27 -6.5v-35h-244v35q55 1 55 31q0 16 -16 46l-110 198h-4l-105 -200q-14 -25 -14 -43q0 -17 15 -23.5t44 -8.5v-35h-205v35q15 2 27.5 6.5t24 15t24 27.5t27.5 44l133 235l-128 217q-13 22 -24 35.5t-21.5 21.5
t-22 11.5t-26.5 5.5v35h239v-35q-31 -2 -43.5 -9t-12.5 -21q0 -9 4.5 -20.5t12.5 -25.5l88 -157h4l83 156q15 27 15 45q0 29 -53 32v35h194v-35q-15 -2 -27 -6.5t-23 -13.5t-22 -23.5t-23 -36.5z" />
    <glyph glyph-name="Y" unicode="Y" horiz-adv-x="594" 
d="M323 345l108 234q12 27 12 43q0 17 -15 23.5t-44 8.5v35h199v-35q-15 -2 -27 -6.5t-23 -14.5t-22 -27t-25 -45l-137 -279v-171q0 -21 3.5 -35.5t13 -23t26 -12.5t42.5 -5v-35h-265v35q26 1 42.5 5t26 12.5t13 23t3.5 35.5v165l-149 296q-12 24 -22.5 39t-21.5 24t-23 13
t-27 6v35h238v-35q-29 -1 -41 -8t-12 -22q0 -10 3.5 -21t10.5 -26l109 -232h4z" />
    <glyph glyph-name="Z" unicode="Z" horiz-adv-x="519" 
d="M123 49h197q29 0 49.5 6.5t35 21t24 38t17.5 57.5h44l-15 -172h-451v56l374 584h-186q-51 0 -76.5 -27t-40.5 -86h-44l14 162h432v-56z" />
    <glyph glyph-name="bracketleft" unicode="[" horiz-adv-x="300" 
d="M90 -155v928h185v-42h-106v-844h106v-42h-185z" />
    <glyph glyph-name="backslash" unicode="\" horiz-adv-x="398" 
d="M375 -149h-68l-260 910h68z" />
    <glyph glyph-name="bracketright" unicode="]" horiz-adv-x="300" 
d="M25 -155v42h106v844h-106v42h185v-928h-185z" />
    <glyph glyph-name="asciicircum" unicode="^" horiz-adv-x="604" 
d="M464 310l-165 326l-160 -326h-74l203 398h68l203 -398h-75z" />
    <glyph glyph-name="underscore" unicode="_" horiz-adv-x="496" 
d="M-2 -125v50h500v-50h-500z" />
    <glyph glyph-name="grave" unicode="`" horiz-adv-x="392" 
d="M292 566l-212 96l53 91l179 -153z" />
    <glyph glyph-name="a" unicode="a" horiz-adv-x="512" 
d="M420 131q0 -28 2.5 -45.5t10 -27.5t22.5 -14t39 -6v-33q-11 -5 -30 -8t-39 -3q-27 0 -43.5 5t-26.5 14.5t-14.5 22.5t-6.5 29q-6 -11 -18 -25t-29 -26t-39.5 -20.5t-50.5 -8.5q-72 0 -116.5 37t-44.5 106q0 45 19 76t53.5 49.5t82.5 27t107 8.5h17q8 0 18 -1v44
q0 64 -19 94t-72 30q-32 0 -52.5 -7.5t-34 -20t-20 -29t-9.5 -33.5h-63v89q16 9 37.5 18t46 16.5t51 12t52.5 4.5q85 0 129.5 -40t44.5 -128q0 -11 -0.5 -32t-1.5 -48.5t-1.5 -60t-0.5 -66.5zM331 240q-11 1 -18 1.5t-17 0.5q-86 0 -124.5 -25t-38.5 -82q0 -54 21 -73.5
t65 -19.5q35 0 63.5 21.5t45.5 51.5z" />
    <glyph glyph-name="b" unicode="b" horiz-adv-x="555" 
d="M421 256q0 51 -7 86t-21 56.5t-35.5 30.5t-50.5 9q-21 0 -40.5 -6t-36.5 -15t-30.5 -20t-21.5 -21v-268q25 -24 52.5 -41t72.5 -17q30 0 52 10t36.5 34t22 63.5t7.5 98.5zM165 67q-2 -7 -5.5 -16t-8 -18.5t-9.5 -18t-10 -14.5h-58q7 18 10 43t3 74v467q0 27 -3.5 43.5
t-12.5 25.5t-23.5 12t-36.5 4v32l140 29h15q5 -14 8.5 -39t3.5 -60v-203q25 27 63 51t91 24q85 0 136 -61.5t51 -187.5q0 -125 -51.5 -194.5t-145.5 -69.5q-29 0 -52 7t-42.5 18t-35 24.5t-27.5 27.5z" />
    <glyph glyph-name="c" unicode="c" horiz-adv-x="463" 
d="M415 372h-68q-8 45 -25 65t-59 20q-29 0 -52.5 -10t-40 -33.5t-26 -61.5t-9.5 -94q0 -60 8.5 -101t26 -66t43.5 -36t61 -11q22 0 39.5 3.5t33 10.5t29.5 17t31 24l26 -28q-33 -38 -75.5 -60t-97.5 -22q-46 0 -87 15.5t-71.5 46t-48 77.5t-17.5 110q0 65 17.5 114.5t48 83
t72.5 50.5t91 17q58 0 94.5 -13t55.5 -26v-92z" />
    <glyph glyph-name="d" unicode="d" horiz-adv-x="567" 
d="M383 74q-29 -37 -69.5 -60.5t-80.5 -23.5q-38 0 -73.5 13.5t-63 43.5t-44 78t-16.5 116q0 58 14 106.5t40.5 83t64.5 53.5t86 19q38 0 73 -15t63 -45v141q0 27 -3.5 43.5t-12.5 25.5t-23.5 12t-36.5 4v32l146 29h21v-592q0 -27 3.5 -43.5t12 -25.5t24 -12t39.5 -4v-30
l-127 -36h-15q-5 9 -12.5 33t-9.5 54zM134 253q0 -58 7 -97.5t21 -64t35.5 -35t51.5 -10.5q34 0 66 19.5t62 52.5v271q-23 29 -56 43t-65 14q-29 0 -51.5 -8t-38 -30t-24 -59.5t-8.5 -95.5z" />
    <glyph glyph-name="e" unicode="e" horiz-adv-x="483" 
d="M289 49q32 0 69.5 12.5t63.5 29.5l21 -34q-36 -28 -80 -48t-98 -20q-108 0 -168.5 68t-60.5 192q0 61 16.5 109t45 81t68 50.5t85.5 17.5q95 0 147.5 -62t52.5 -177v-27h-319q1 -54 10.5 -91t29 -59.5t49 -32t68.5 -9.5zM249 459q-26 0 -46 -8.5t-35 -28t-23.5 -52
t-11.5 -80.5h223q0 92 -25 130.5t-82 38.5z" />
    <glyph glyph-name="f" unicode="f" horiz-adv-x="316" 
d="M190 104q0 -20 3 -33t12.5 -21t27 -11.5t46.5 -4.5v-34h-250v34q21 1 35 4.5t21.5 11t10.5 20.5t3 34v332h-63v32l63 23v94q0 69 44 107t115 38q29 0 59 -5t48 -13l-9 -83h-61q-8 52 -46 52q-29 0 -44.5 -21.5t-15.5 -73.5v-95h121l-14 -55h-106v-332z" />
    <glyph glyph-name="g" unicode="g" horiz-adv-x="523" 
d="M254 -189q-52 0 -91 9.5t-65.5 25t-40 36.5t-13.5 44q0 27 16.5 43t34.5 27l42 2q-4 -7 -7.5 -21.5t-3.5 -30.5q0 -42 27 -64.5t99 -22.5q39 0 66 7t43.5 19.5t23.5 29.5t7 37q0 23 -6 37.5t-23 23t-47.5 12t-79.5 4.5q-26 1 -50.5 2.5t-38.5 3.5q-33 4 -49 27t-16 51
q0 29 26 50.5t67 35.5q-55 13 -87 52.5t-32 89.5q0 36 13 66.5t37.5 52t59.5 33.5t78 12q20 0 37.5 -2t40.5 -9q20 -6 39 -11t36 -5q23 0 42 8.5t39 22.5l34 -65q-17 -8 -33.5 -13t-36.5 -5q-29 0 -70 19q25 -19 42.5 -45.5t17.5 -60.5q0 -25 -9 -50.5t-30.5 -47.5
t-57.5 -36.5t-90 -17.5q-5 -1 -11 -1h-11q-27 -8 -44 -21.5t-17 -30.5q0 -25 36 -25h92q44 0 78 -6.5t57.5 -22.5t36 -42.5t12.5 -66.5q0 -37 -17 -66.5t-46.5 -50.5t-70 -32t-86.5 -11zM243 232q45 0 68 26.5t23 83.5q0 60 -22 88t-70 28q-45 0 -68 -26.5t-23 -86.5
q0 -58 23.5 -85.5t68.5 -27.5z" />
    <glyph glyph-name="h" unicode="h" horiz-adv-x="583" 
d="M190 421q34 34 72 58t95 24q60 0 97.5 -34t37.5 -100v-265q0 -21 2.5 -34t10 -20.5t20 -11t32.5 -4.5v-34h-226v34q24 1 37.5 4t21 10t9.5 19t2 30v254q0 45 -18.5 63.5t-54.5 18.5q-45 0 -76.5 -17t-61.5 -46v-273q0 -18 2 -30t9.5 -19t21 -10t37.5 -4v-34h-231v34
q21 1 35 4.5t21.5 11t10.5 20.5t3 34v480q0 27 -3.5 43.5t-12.5 25.5t-23.5 12t-36.5 4v32l140 29h15q4 -12 8 -38t4 -61v-210z" />
    <glyph glyph-name="i" unicode="i" horiz-adv-x="286" 
d="M29 0v34q21 1 35 4.5t21.5 11t10.5 20.5t3 34v245q0 27 -3 43.5t-11.5 25.5t-22.5 12t-36 4v30l149 40h15v-400q0 -21 2 -34.5t9.5 -21t21 -10.5t37.5 -4v-34h-231zM200 644q0 -26 -18 -44.5t-44 -18.5t-44 18.5t-18 44.5t18 44.5t44 18.5t44 -18.5t18 -44.5z" />
    <glyph glyph-name="j" unicode="j" horiz-adv-x="269" 
d="M99 349q0 27 -3 43.5t-11.5 25.5t-22.5 12t-36 4v30l149 40h15v-493q0 -56 -10 -91t-29 -58t-45 -38t-58 -30l-29 40q23 10 38.5 25t24.5 36t13 49.5t4 67.5v337zM200 644q0 -26 -18 -44.5t-44 -18.5t-44 18.5t-18 44.5t18 44.5t44 18.5t44 -18.5t18 -44.5z" />
    <glyph glyph-name="k" unicode="k" horiz-adv-x="531" 
d="M29 34q21 1 35 4.5t21.5 11t10.5 20.5t3 34v480q0 27 -3.5 43.5t-12.5 25.5t-23.5 12t-36.5 4v32l140 29h15q5 -14 8.5 -39.5t3.5 -59.5v-534q0 -18 2 -30t9.5 -19t21 -10t37.5 -4v-34h-231v34zM199 262l137 140q25 25 16.5 39t-43.5 16v34h188v-34q-30 -3 -55 -25
t-60 -57l-92 -91l151 -190q23 -29 43 -43t45 -17v-34h-121z" />
    <glyph glyph-name="l" unicode="l" horiz-adv-x="294" 
d="M194 107q0 -22 2.5 -36t10 -21.5t22.5 -11t39 -4.5v-34h-239v34q23 1 37.5 4.5t22.5 11t11 20.5t3 34v480q0 27 -3.5 43.5t-12.5 25.5t-24.5 12t-39.5 4v32l144 29h15q5 -16 8.5 -42.5t3.5 -56.5v-524z" />
    <glyph glyph-name="m" unicode="m" horiz-adv-x="831" 
d="M458 425q34 32 71 55t85 23q54 0 90 -34t36 -100v-265q0 -21 2.5 -34t10 -20.5t20 -11t32.5 -4.5v-34h-221v34q22 1 34.5 4t19.5 10t9 19t2 30v254q0 45 -14 63.5t-47 18.5q-36 0 -64 -13t-54 -36v-287q0 -18 2.5 -30t9.5 -18.5t18.5 -10t29.5 -4.5v-34h-216v34
q22 1 34.5 4t19.5 10t9 19t2 30v254q0 45 -14 63.5t-47 18.5q-41 0 -69.5 -16t-58.5 -42v-278q0 -18 2 -30t8.5 -19t19.5 -10t35 -4v-34h-226v34q21 1 35 4.5t21.5 11t10.5 20.5t3 34v245q0 27 -3 43.5t-11.5 25.5t-22.5 12t-36 4v30l128 40h15q6 -15 11 -37t6 -45
q34 32 70.5 56.5t87.5 24.5q41 0 71.5 -20t42.5 -58z" />
    <glyph glyph-name="n" unicode="n" horiz-adv-x="583" 
d="M492 104q0 -21 2.5 -34t10 -20.5t20 -11t32.5 -4.5v-34h-226v34q24 1 37.5 4t21 10t9.5 19t2 30v254q0 45 -18.5 63.5t-54.5 18.5q-45 0 -76.5 -17t-61.5 -46v-273q0 -18 2 -30t9.5 -19t21 -10t37.5 -4v-34h-231v34q21 1 35 4.5t21.5 11t10.5 20.5t3 34v245q0 27 -3 43.5
t-11.5 25.5t-22.5 12t-36 4v30l128 40h15q5 -12 10.5 -36.5t6.5 -50.5q17 18 35 33.5t39 27t44.5 18.5t52.5 7q60 0 97.5 -34t37.5 -100v-265z" />
    <glyph glyph-name="o" unicode="o" horiz-adv-x="532" 
d="M496 242q0 -60 -17 -107t-48 -79.5t-73 -50t-92 -17.5t-92.5 17.5t-73 51t-47.5 81.5t-17 109t17 109t47.5 81.5t72 51t91.5 17.5q55 0 98.5 -20t73 -55.5t45 -83.5t15.5 -105zM398 238q0 115 -34 167t-100 52q-38 0 -63 -14t-40 -39.5t-21 -63t-6 -83.5q0 -114 30 -167
t104 -53q65 0 97.5 52t32.5 149z" />
    <glyph glyph-name="p" unicode="p" horiz-adv-x="568" 
d="M434 236q0 58 -6.5 97t-20 62.5t-35.5 33.5t-52 10q-35 0 -67.5 -15.5t-62.5 -48.5v-271q23 -29 55.5 -44.5t61.5 -15.5q31 0 55 8.5t40 30.5t24 59t8 94zM185 421q28 36 70 59t83 23t76.5 -14.5t61.5 -45t41 -77.5t15 -111q0 -59 -13.5 -106.5t-39 -82t-64 -53
t-87.5 -18.5q-38 0 -73.5 13.5t-64.5 43.5v-145q0 -20 2.5 -33t11 -20.5t23.5 -11t41 -4.5v-34h-239v34q21 1 35 4.5t21.5 11t10.5 20.5t3 34v441q0 27 -3 43.5t-11.5 25.5t-22.5 12t-36 4v30l128 40h15q4 -9 9 -31.5t7 -51.5z" />
    <glyph glyph-name="q" unicode="q" horiz-adv-x="544" 
d="M134 253q0 -58 7 -97.5t21 -64t35.5 -35t51.5 -10.5q34 0 66 19.5t62 52.5v271q-23 29 -56 43t-65 14q-29 0 -51.5 -8t-38 -30t-24 -59.5t-8.5 -95.5zM393 426q6 21 17 40t21 29h50q-5 -20 -8.5 -57.5t-3.5 -82.5v-447q0 -21 3 -34t10.5 -20.5t21.5 -11t35 -4.5v-34h-239
v34q25 1 40.5 4.5t24 11t11 20.5t2.5 33v161q-29 -34 -67 -56t-78 -22q-38 0 -73.5 13.5t-63 43.5t-44 78t-16.5 116q0 58 14 106.5t40.5 83t64.5 53.5t86 19q49 0 86.5 -21t65.5 -56z" />
    <glyph glyph-name="r" unicode="r" horiz-adv-x="364" 
d="M186 390q29 52 62 84.5t74 32.5q17 0 30 -5l-22 -99q-5 2 -12.5 3.5t-18.5 1.5q-31 0 -52 -6.5t-33.5 -21.5t-18 -40t-5.5 -61v-175q0 -21 2.5 -34.5t11.5 -21t26 -10.5t45 -4v-34h-246v34q21 1 35 4.5t21.5 11t10.5 20.5t3 34v245q0 27 -3 43.5t-11.5 25.5t-22.5 12
t-36 4v30l128 40h15q5 -13 11 -42.5t6 -71.5z" />
    <glyph glyph-name="s" unicode="s" horiz-adv-x="431" 
d="M202 -12q-35 0 -61.5 4.5t-46.5 11t-34 13.5t-23 13v97h67q5 -51 29.5 -72t77.5 -21q43 0 73 19.5t30 67.5q0 41 -21.5 58.5t-64.5 28.5l-59 14q-57 14 -92 46t-35 93q0 35 14 62t37.5 45t55.5 27.5t68 9.5q59 0 95.5 -13t54.5 -22v-90h-64q-8 40 -30 59.5t-64 19.5
q-45 0 -68.5 -20.5t-23.5 -56.5q0 -32 17 -50t63 -29l59 -14q71 -17 104 -49.5t33 -86.5q0 -75 -51.5 -120t-139.5 -45z" />
    <glyph glyph-name="t" unicode="t" horiz-adv-x="321" 
d="M284 436h-106v-302q0 -29 3 -48t10.5 -29.5t19.5 -14.5t31 -4q27 0 57 10l8 -36q-50 -26 -99 -26q-57 0 -89 30t-32 105v315h-60v32l67 23q7 35 18.5 72.5t28.5 65.5l47 12q-2 -14 -3.5 -31.5t-3 -37.5t-2 -41t-0.5 -40h119z" />
    <glyph glyph-name="u" unicode="u" horiz-adv-x="580" 
d="M481 138q0 -27 3 -43.5t11.5 -25.5t22.5 -12t36 -4v-30l-121 -36h-15q-8 20 -14 42t-8 47q-17 -18 -34.5 -34t-37.5 -28t-43.5 -19t-51.5 -7q-60 0 -99 32t-39 101v228q0 27 -3 43.5t-11 25.5t-21.5 12t-34.5 4v30l139 40h22v-366q0 -47 19.5 -64t55.5 -17q45 0 74 17.5
t59 46.5v228q0 27 -3 43.5t-11 25.5t-21.5 12t-34.5 4v30l139 40h22v-366z" />
    <glyph glyph-name="v" unicode="v" horiz-adv-x="505" 
d="M220 -5l-148 392q-8 20 -14.5 32.5t-15 20.5t-18.5 11.5t-25 5.5v34h222v-34q-36 -2 -50 -8.5t-14 -20.5q0 -10 7 -30l81 -223q5 -13 12 -39.5t11 -47.5h4q2 10 9 36.5t15 49.5l79 224q3 9 5 16.5t2 12.5q0 15 -14 21.5t-50 8.5v34h188v-34q-15 -2 -25.5 -5.5t-18.5 -11
t-15 -20.5t-14 -33l-144 -392h-69z" />
    <glyph glyph-name="w" unicode="w" horiz-adv-x="747" 
d="M271 -5h-73l-126 392q-6 20 -12.5 33t-14.5 20.5t-18 11t-25 5.5v34h214v-34q-24 -2 -40.5 -7t-16.5 -24q0 -5 1 -11t4 -17l60 -199q3 -11 7 -26t7.5 -29t6 -26t3.5 -18h4q2 11 8.5 38.5t15.5 59.5l80 293h63l95 -292q9 -27 15.5 -56.5t8.5 -42.5h4q5 20 11.5 46.5
t12.5 51.5l51 200q4 13 4 26q0 16 -12 23.5t-44 9.5v34h180v-34q-16 -2 -27 -6t-18.5 -11.5t-13 -20.5t-11.5 -32l-114 -392h-71l-80 258q-13 42 -21 75.5t-11 45.5h-4q-1 -6 -4 -18.5t-6.5 -29t-8.5 -35.5l-10 -38z" />
    <glyph glyph-name="x" unicode="x" horiz-adv-x="521" 
d="M157 86q-10 -16 -10 -27q0 -22 49 -25v-34h-182v34q16 1 27 4.5t20 10.5t17.5 18.5t20.5 29.5l108 160l-94 137q-13 19 -22.5 30.5t-19 18t-21.5 9.5t-30 5v34h223v-34q-24 -2 -34.5 -6t-10.5 -13q0 -11 14 -33l65 -103h4l62 103q7 11 9.5 18t2.5 13q0 8 -8.5 13.5
t-37.5 7.5v34h176v-34q-16 -2 -27.5 -5.5t-21 -10.5t-18.5 -18t-20 -29l-85 -132l110 -165q12 -18 21 -30t18 -18.5t20 -10t28 -4.5v-34h-222v34q50 3 50 20q0 9 -14 32l-82 129h-4z" />
    <glyph glyph-name="y" unicode="y" horiz-adv-x="505" 
d="M81 -144q28 7 52.5 16t44 24.5t35 40.5t27.5 65l-36 -5q-10 39 -22 80t-30 92l-80 218q-14 38 -29 52t-44 18v34h222v-34q-37 -2 -50.5 -9t-13.5 -22q0 -5 2 -12t5 -16l72 -202q16 -45 24 -80t11 -52h3q2 12 8.5 40.5t20.5 70.5l72 223q4 13 6 23q2 18 -10 26t-53 10v34
h188v-34q-15 -2 -25.5 -5.5t-19 -11t-15 -20.5t-13.5 -33l-140 -403q-16 -45 -33.5 -79t-39.5 -57.5t-50 -38.5t-65 -22z" />
    <glyph glyph-name="z" unicode="z" horiz-adv-x="455" 
d="M408 0h-368v49l281 393h-122q-26 0 -42 -4t-26.5 -14.5t-16 -28.5t-9.5 -46h-43v142h358v-53l-278 -389h111q35 0 56.5 4.5t35 16t22.5 31.5t20 52h45z" />
    <glyph glyph-name="braceleft" unicode="{" horiz-adv-x="351" 
d="M206 429q0 -33 -8 -55t-19.5 -35.5t-25 -19.5t-24.5 -8v-4q11 -2 24.5 -8t25 -19.5t19.5 -35.5t8 -55v-230q0 -28 12.5 -51t50.5 -23h57v-40h-80q-58 0 -86.5 27t-28.5 92v237q0 51 -26.5 71t-79.5 20v34q53 0 79.5 20t26.5 71v237q0 32 9 54.5t25 37t36.5 21t44.5 6.5
h80v-40h-57q-38 0 -50.5 -23t-12.5 -51v-230z" />
    <glyph glyph-name="bar" unicode="|" horiz-adv-x="244" 
d="M90 -149v910h64v-910h-64z" />
    <glyph glyph-name="braceright" unicode="}" horiz-adv-x="351" 
d="M145 659q0 28 -12.5 51t-50.5 23h-57v40h80q58 0 86.5 -27t28.5 -92v-237q0 -51 26.5 -71t79.5 -20v-34q-53 0 -79.5 -20t-26.5 -71v-237q0 -32 -9 -55t-25 -37t-36.5 -20.5t-44.5 -6.5h-80v39h57q38 0 50.5 23t12.5 51v231q0 33 8 55t19.5 35.5t25 19.5t24.5 8v4
q-11 2 -24.5 8t-25 19.5t-19.5 35.5t-8 55v230z" />
    <glyph glyph-name="asciitilde" unicode="~" horiz-adv-x="554" 
d="M361 320q73 0 105 63l38 -21q-17 -59 -48 -92t-89 -33q-29 0 -54.5 7.5t-48 17t-43.5 17t-40 7.5q-37 0 -58.5 -17.5t-38.5 -49.5l-34 19q13 63 41 96.5t87 33.5q29 0 53 -7.5t45.5 -16.5t42 -16.5t42.5 -7.5z" />
    <glyph glyph-name="uni00A0" unicode="&#xa0;" horiz-adv-x="225" 
 />
    <glyph glyph-name="exclamdown" unicode="&#xa1;" horiz-adv-x="291" 
d="M121 305h53l31 -477l-115 -17zM80 455q0 29 20 48.5t47 19.5t45.5 -19.5t18.5 -48.5q0 -27 -18.5 -46t-46.5 -19q-27 0 -46.5 19t-19.5 46z" />
    <glyph glyph-name="cent" unicode="&#xa2;" horiz-adv-x="570" 
d="M288 -100v90q-42 4 -78.5 21t-63 48t-42 75.5t-15.5 103.5q0 60 15 106.5t41.5 79.5t63 52.5t79.5 24.5v96h45v-94q51 -2 84 -14.5t51 -24.5v-92h-68q-7 39 -21 59.5t-46 24.5v-412q21 0 37.5 4t31 11t28.5 17t30 23l26 -28q-30 -35 -67.5 -55.5t-85.5 -25.5v-90h-45z
M188 258q0 -102 25 -150.5t75 -59.5v406q-46 -9 -73 -54t-27 -142z" />
    <glyph glyph-name="sterling" unicode="&#xa3;" horiz-adv-x="570" 
d="M374 49q27 0 46 6t32 20t21.5 37t16.5 57h44l-15 -169h-474v35q25 1 40.5 5t24.5 12.5t12 23t3 35.5v190h-80v44h80v87q0 65 17.5 110.5t48 74.5t72.5 42t91 13q58 0 94 -14.5t56 -31.5v-94h-74q-7 48 -25.5 71t-63.5 23q-27 0 -49 -7.5t-38 -26.5t-25 -51.5t-9 -81.5
v-114h191v-44h-191v-252h154z" />
    <glyph glyph-name="currency" unicode="&#xa4;" horiz-adv-x="570" 
d="M285 99q-40 0 -70 10l-50 -78l-57 38l48 74q-26 23 -41 57t-15 79q0 44 14.5 78t40.5 57l-47 73l57 38l48 -76q33 12 72 12q35 0 68 -11l48 75l57 -38l-45 -70q26 -24 41.5 -58.5t15.5 -79.5t-15.5 -80t-43.5 -58l47 -72l-57 -38l-50 77q-30 -9 -66 -9zM285 416
q-53 0 -72.5 -35t-19.5 -94q0 -72 20 -107t72 -35q53 0 73 35t20 107q0 60 -19.5 94.5t-73.5 34.5z" />
    <glyph glyph-name="yen" unicode="&#xa5;" horiz-adv-x="570" 
d="M337 219v-112q0 -21 3.5 -35.5t13 -23t26 -12.5t42.5 -5v-31h-265v31q26 1 42.5 5t26 12.5t13 23t3.5 35.5v112h-182v44h182v13l-31 60h-151v44h129l-96 192q-12 24 -22.5 39t-21.5 24t-23 13t-27 6v35h238v-35q-29 -1 -41 -8t-12 -22q0 -10 3.5 -21t10.5 -26l109 -232h4
l108 234q12 27 12 43q0 17 -15 23.5t-44 8.5v35h199v-35q-15 -2 -27 -6.5t-23 -14.5t-22 -27t-25 -45l-89 -181h139v-44h-161l-26 -54v-19h187v-44h-187z" />
    <glyph glyph-name="brokenbar" unicode="&#xa6;" horiz-adv-x="261" 
d="M90 -150v401h64v-401h-64zM90 356v401h64v-401h-64z" />
    <glyph glyph-name="section" unicode="&#xa7;" horiz-adv-x="436" 
d="M411 311q0 -60 -33.5 -100t-92.5 -54q44 -25 67 -56t23 -83q0 -70 -46.5 -110.5t-131.5 -40.5q-67 0 -104 12t-55 23v97h67q5 -51 27.5 -72t73.5 -21q19 0 36.5 4.5t30.5 15t21 27t8 40.5q0 41 -22.5 64t-60.5 40l-64 28q-27 12 -51 25.5t-43 32t-30 44.5t-11 63
q0 54 33 89.5t90 50.5q-19 10 -35.5 22.5t-28.5 29.5t-19 40t-7 53q0 35 13.5 63.5t36.5 48t53 30t62 10.5q52 0 88.5 -11.5t54.5 -20.5v-90h-64q-8 40 -28 58t-58 18q-40 0 -63.5 -25t-23.5 -65q0 -36 22 -57t63 -39l58 -26q33 -15 59.5 -30t45.5 -33t29 -41t10 -54z
M181 413q-35 -11 -61.5 -37.5t-26.5 -68.5q0 -39 23.5 -60t66.5 -41l53 -25q42 5 70.5 31t28.5 71q0 20 -8 36t-21.5 29t-32 23t-38.5 19z" />
    <glyph glyph-name="dieresis" unicode="&#xa8;" horiz-adv-x="489" 
d="M200 638q0 -26 -17 -43t-43 -17t-43 17t-17 43t17 43t43 17t43 -17t17 -43zM409 638q0 -26 -17 -43t-43 -17t-43 17t-17 43t17 43t43 17t43 -17t17 -43z" />
    <glyph glyph-name="copyright" unicode="&#xa9;" horiz-adv-x="800" 
d="M279 348q0 -40 7.5 -73t22.5 -57t38.5 -37.5t55.5 -13.5q24 0 40 5t26 15t15.5 25t8.5 35h58v-87q-20 -13 -56 -24t-88 -11q-110 0 -163.5 56t-53.5 159q0 102 52.5 161.5t161.5 59.5q52 0 88 -11t56 -24v-88h-64q-3 20 -7.5 35.5t-13.5 26t-23.5 16t-38.5 5.5
q-65 0 -93.5 -47t-28.5 -126zM400 31q63 0 118 22t95.5 62.5t64 98.5t23.5 129q0 73 -23.5 131t-64 98.5t-95.5 62.5t-118 22t-118 -22t-95.5 -62.5t-64 -98.5t-23.5 -131q0 -71 23.5 -129t64 -98.5t95.5 -62.5t118 -22zM400 -12q-76 0 -141 25t-113 71.5t-75 112.5t-27 147
q0 80 28 146t76.5 113t113 72.5t138.5 25.5q73 0 138 -25.5t113.5 -72.5t76.5 -113t28 -146q0 -81 -27 -147t-75 -112.5t-113 -71.5t-141 -25z" />
    <glyph glyph-name="ordfeminine" unicode="&#xaa;" horiz-adv-x="395" 
d="M318 451q0 -21 1 -33.5t6 -19t15.5 -9t29.5 -3.5v-31q-9 -4 -23.5 -6.5t-29.5 -2.5q-20 0 -33 4t-20.5 11.5t-11 17.5t-4.5 22q-13 -23 -37.5 -42.5t-67.5 -19.5q-56 0 -89.5 28.5t-33.5 81.5q0 34 14.5 58t40.5 39t63 22t82 7h13q6 0 14 -1v26q0 50 -14.5 72t-55.5 22
q-23 0 -37 -5t-23 -13t-13 -20t-7 -25h-57v68q12 7 28.5 14t35.5 12.5t39.5 9t39.5 3.5q65 0 101.5 -30.5t36.5 -97.5q0 -18 -1.5 -62t-1.5 -97zM246 536q-9 1 -14 1.5t-13 0.5q-60 0 -87.5 -18.5t-27.5 -60.5q0 -39 15 -54t47 -15q25 0 45 15.5t32 38.5z" />
    <glyph glyph-name="guillemotleft" unicode="&#xab;" horiz-adv-x="505" 
d="M264 67l-39 -36l-170 213l170 213l39 -36l-113 -177zM460 67l-39 -36l-170 213l170 213l39 -36l-113 -177z" />
    <glyph glyph-name="logicalnot" unicode="&#xac;" horiz-adv-x="501" 
d="M55 293h391v-221h-59v165h-332v56z" />
    <glyph glyph-name="uni00AD" unicode="&#xad;" horiz-adv-x="313" 
d="M55 235v71h203v-71h-203z" />
    <glyph glyph-name="registered" unicode="&#xae;" horiz-adv-x="800" 
d="M403 136h-190v29q19 0 29.5 3t16 10t7 18t1.5 28v241q0 17 -1.5 28t-7 18t-16 10t-29.5 3v31h172q36 0 66 -5t51.5 -18t33 -35t11.5 -56q0 -32 -8.5 -53t-25 -33.5t-40 -17.5t-53.5 -6v-3q50 -13 82 -63q7 -11 15 -26t19 -37q6 -11 11.5 -18t12 -11t15.5 -5.5t23 -1.5
v-30h-115q-13 29 -27.5 57t-25.5 49q-13 24 -22 39.5t-18.5 25.5t-20.5 14.5t-28 4.5v-102q0 -18 2.5 -29.5t9.5 -18t19 -9t31 -2.5v-29zM468 441q0 40 -21 58t-80 18h-26v-156h39q50 0 69 16.5t19 63.5zM400 31q63 0 118 22t95.5 62.5t64 98.5t23.5 129q0 73 -23.5 131
t-64 98.5t-95.5 62.5t-118 22t-118 -22t-95.5 -62.5t-64 -98.5t-23.5 -131q0 -71 23.5 -129t64 -98.5t95.5 -62.5t118 -22zM400 -12q-76 0 -141 25t-113 71.5t-75 112.5t-27 147q0 80 28 146t76.5 113t113 72.5t138.5 25.5q73 0 138 -25.5t113.5 -72.5t76.5 -113t28 -146
q0 -81 -27 -147t-75 -112.5t-113 -71.5t-141 -25z" />
    <glyph glyph-name="macron" unicode="&#xaf;" horiz-adv-x="441" 
d="M80 590v57h281v-57h-281z" />
    <glyph glyph-name="degree" unicode="&#xb0;" horiz-adv-x="418" 
d="M373 525q0 -39 -12 -70t-33.5 -52.5t-52 -33.5t-66.5 -12q-78 0 -121 45.5t-43 124.5q0 78 44.5 123.5t117.5 45.5q79 0 122.5 -45.5t43.5 -125.5zM296 521q0 66 -22 92t-66 26q-86 0 -86 -108q0 -65 22 -91t66 -26q86 0 86 107z" />
    <glyph glyph-name="plusminus" unicode="&#xb1;" horiz-adv-x="501" 
d="M282 507v-155h164v-56h-164v-164h-59v164h-168v56h168v155h59zM55 81h391v-56h-391v56z" />
    <glyph glyph-name="twosuperior" unicode="&#xb2;" horiz-adv-x="333" 
d="M153 651q56 0 93 -28t37 -82q0 -29 -12.5 -53.5t-34.5 -48t-50.5 -47.5t-59.5 -51l-38 -33h214l-10 -58h-271v41l78 80q24 25 42 44.5t30.5 38.5t19 38t6.5 43q0 35 -18.5 52t-50.5 17q-24 0 -44.5 -8t-39.5 -22l-18 26q23 22 53 36.5t74 14.5z" />
    <glyph glyph-name="threesuperior" unicode="&#xb3;" horiz-adv-x="321" 
d="M138 605q-29 0 -49.5 -8.5t-36.5 -19.5l-19 30q26 20 56.5 32t70.5 12q52 0 86.5 -23.5t34.5 -70.5q0 -39 -26 -62t-66 -33q48 -5 74.5 -32t26.5 -66q0 -33 -15.5 -58t-41.5 -42t-60 -25.5t-71 -8.5q-46 0 -76 9l-10 33q13 -3 30.5 -4.5t29.5 -1.5q56 0 93.5 26.5
t37.5 74.5q0 41 -20 56t-56 15q-12 0 -18.5 -0.5t-14.5 -1.5v43q8 -1 15 -1h16q34 0 54 15.5t20 50.5q0 30 -17.5 45.5t-47.5 15.5z" />
    <glyph glyph-name="acute" unicode="&#xb4;" horiz-adv-x="392" 
d="M80 600l179 153l53 -91l-212 -96z" />
    <glyph glyph-name="mu" unicode="&#xb5;" horiz-adv-x="541" 
d="M44 -176q8 42 10.5 84.5t2.5 96.5v157q-1 95 -2 179.5t-4 145.5l76 14h22v-46q0 -36 -0.5 -85t-0.5 -103v-98q0 -38 6.5 -60t17 -33.5t24 -15t28.5 -3.5q35 0 70.5 18.5t60.5 45.5v368l68 12h23v-379q0 -34 8.5 -54t41.5 -20q8 0 14 0.5t17 2.5v-38q-17 -10 -37.5 -16
t-45.5 -6q-36 0 -56 22t-28 59q-26 -34 -64 -59.5t-84 -25.5q-18 0 -39 6.5t-32 20.5l-4 -2q3 -11 4.5 -26.5t2.5 -32.5t1.5 -32.5t0.5 -24.5l1 -81l-99 -14z" />
    <glyph glyph-name="paragraph" unicode="&#xb6;" horiz-adv-x="617" 
d="M507 -125h-55v767h-85v-767h-55v432h-77q-50 0 -90 8.5t-68 30t-42.5 59t-14.5 95.5q0 54 12 90t38 58t67 31.5t99 9.5h351v-31q-25 -1 -40.5 -5t-24.5 -12.5t-12 -23t-3 -35.5v-707zM195 500q0 -39 3.5 -66.5t12.5 -45t24.5 -25.5t40.5 -8h36v287h-36q-25 0 -40.5 -5.5
t-24.5 -21.5t-12.5 -43.5t-3.5 -71.5z" />
    <glyph glyph-name="periodcentered" unicode="&#xb7;" horiz-adv-x="291" 
d="M216 278q0 -31 -21 -53t-50 -22t-49.5 22t-20.5 53q0 32 20.5 53t49.5 21t50 -21t21 -53z" />
    <glyph glyph-name="cedilla" unicode="&#xb8;" horiz-adv-x="288" 
d="M233 -113q0 -85 -99 -85q-29 0 -48 7.5t-33 17.5l16 32q17 -11 31 -14.5t31 -3.5t28.5 6.5t11.5 29.5q0 10 -6 16t-16 10t-22.5 5.5t-25.5 1.5v21l23 80l37 -6l-13 -44q47 -3 66 -25t19 -49z" />
    <glyph glyph-name="onesuperior" unicode="&#xb9;" horiz-adv-x="314" 
d="M208 321q0 -14 3.5 -21.5t13 -12t26 -6t42.5 -2.5v-29h-248v29q26 1 42.5 2.5t26 5.5t13 12t3.5 22v257q-20 -10 -45 -19.5t-45 -15.5l-9 28l120 73h57v-323z" />
    <glyph glyph-name="ordmasculine" unicode="&#xba;" horiz-adv-x="397" 
d="M377 532q0 -45 -13.5 -81t-37.5 -61t-56.5 -38t-71.5 -13t-71.5 13.5t-56 38.5t-37 61.5t-13.5 82.5t13.5 83t37 62.5t56 39t70.5 13.5q43 0 76.5 -15t56.5 -42t35 -64t12 -80zM296 529q0 86 -24.5 124.5t-72.5 38.5q-54 0 -74.5 -39.5t-20.5 -108.5q0 -85 22 -124.5
t75 -39.5q48 0 71.5 38.5t23.5 110.5z" />
    <glyph glyph-name="guillemotright" unicode="&#xbb;" horiz-adv-x="505" 
d="M354 244l-113 177l39 36l170 -213l-170 -213l-39 36zM158 244l-113 177l39 36l170 -213l-170 -213l-39 36z" />
    <glyph glyph-name="onequarter" unicode="&#xbc;" horiz-adv-x="908" 
d="M208 321q0 -14 3.5 -21.5t13 -12t26 -6t42.5 -2.5v-29h-248v29q26 1 42.5 2.5t26 5.5t13 12t3.5 22v257q-20 -10 -45 -19.5t-45 -15.5l-9 28l120 73h57v-323zM227 -123h-54l487 853h54zM761 91h-192v25l142 278h76l-154 -267h128q0 52 6 88t18 72l54 10v-170h52v-36h-52
v-101l-78 -11v112z" />
    <glyph glyph-name="onehalf" unicode="&#xbd;" horiz-adv-x="909" 
d="M208 321q0 -14 3.5 -21.5t13 -12t26 -6t42.5 -2.5v-29h-248v29q26 1 42.5 2.5t26 5.5t13 12t3.5 22v257q-20 -10 -45 -19.5t-45 -15.5l-9 28l120 73h57v-323zM227 -123h-54l487 853h54zM742 401q56 0 93 -28t37 -82q0 -29 -12.5 -53.5t-34.5 -48t-50.5 -47.5t-59.5 -51
l-38 -33h214l-10 -58h-271v41l78 80q24 25 42 44.5t30.5 38.5t19 38t6.5 43q0 35 -18.5 52t-50.5 17q-24 0 -44.5 -8t-39.5 -22l-18 26q23 22 53 36.5t74 14.5z" />
    <glyph glyph-name="threequarters" unicode="&#xbe;" horiz-adv-x="915" 
d="M768 91h-192v25l142 278h76l-154 -267h128q0 52 6 88t18 72l54 10v-170h52v-36h-52v-101l-78 -11v112zM234 -123h-54l487 853h54zM138 605q-29 0 -49.5 -8.5t-36.5 -19.5l-19 30q26 20 56.5 32t70.5 12q52 0 86.5 -23.5t34.5 -70.5q0 -39 -26 -62t-66 -33q48 -5 74.5 -32
t26.5 -66q0 -33 -15.5 -58t-41.5 -42t-60 -25.5t-71 -8.5q-46 0 -76 9l-10 33q13 -3 30.5 -4.5t29.5 -1.5q56 0 93.5 26.5t37.5 74.5q0 41 -20 56t-56 15q-12 0 -18.5 -0.5t-14.5 -1.5v43q8 -1 15 -1h16q34 0 54 15.5t20 50.5q0 30 -17.5 45.5t-47.5 15.5z" />
    <glyph glyph-name="questiondown" unicode="&#xbf;" horiz-adv-x="446" 
d="M183 450q0 30 21 51.5t50 21.5t48.5 -21.5t19.5 -51.5q0 -29 -19.5 -48.5t-48.5 -19.5t-50 19.5t-21 48.5zM402 -143q-9 -6 -23.5 -14.5t-35.5 -15.5t-47 -12t-57 -5q-36 0 -67 8t-54.5 26.5t-36.5 47.5t-13 71q0 35 12 62t28.5 46t33 30.5t25.5 17.5q21 13 35.5 25
t24 25.5t13.5 30t4 39.5q0 12 -2 27t-6 29h41q8 -14 16 -32.5t8 -47.5q0 -26 -11 -57t-46 -63q-14 -12 -28.5 -25t-27 -29t-20.5 -37.5t-8 -51.5q0 -46 25.5 -71t63.5 -25q42 0 63 24.5t26 66.5h64v-90z" />
    <glyph glyph-name="Agrave" unicode="&#xc0;" horiz-adv-x="657" 
d="M426 215h-230l-33 -108q-6 -21 -6 -35q0 -22 17.5 -28.5t55.5 -8.5v-35h-214v35q18 1 30.5 5.5t22 14t17.5 25.5t16 41l184 568h89l182 -566q7 -21 13.5 -37t15.5 -26.5t22 -17t33 -7.5v-35h-245v35q36 2 52 11t16 31q0 8 -1.5 16.5t-3.5 13.5zM211 263h201l-45 148
q-20 66 -33.5 117t-18.5 74h-4q-8 -30 -20.5 -76t-33.5 -115zM424 727l-214 70l43 92l191 -128z" />
    <glyph glyph-name="Aacute" unicode="&#xc1;" horiz-adv-x="657" 
d="M426 215h-230l-33 -108q-6 -21 -6 -35q0 -22 17.5 -28.5t55.5 -8.5v-35h-214v35q18 1 30.5 5.5t22 14t17.5 25.5t16 41l184 568h89l182 -566q7 -21 13.5 -37t15.5 -26.5t22 -17t33 -7.5v-35h-245v35q36 2 52 11t16 31q0 8 -1.5 16.5t-3.5 13.5zM211 263h201l-45 148
q-20 66 -33.5 117t-18.5 74h-4q-8 -30 -20.5 -76t-33.5 -115zM212 761l191 128l43 -92l-214 -70z" />
    <glyph glyph-name="Acircumflex" unicode="&#xc2;" horiz-adv-x="657" 
d="M426 215h-230l-33 -108q-6 -21 -6 -35q0 -22 17.5 -28.5t55.5 -8.5v-35h-214v35q18 1 30.5 5.5t22 14t17.5 25.5t16 41l184 568h89l182 -566q7 -21 13.5 -37t15.5 -26.5t22 -17t33 -7.5v-35h-245v35q36 2 52 11t16 31q0 8 -1.5 16.5t-3.5 13.5zM211 263h201l-45 148
q-20 66 -33.5 117t-18.5 74h-4q-8 -30 -20.5 -76t-33.5 -115zM329 809l-137 -81l-25 30l162 149l162 -149l-25 -30z" />
    <glyph glyph-name="Atilde" unicode="&#xc3;" horiz-adv-x="657" 
d="M426 215h-230l-33 -108q-6 -21 -6 -35q0 -22 17.5 -28.5t55.5 -8.5v-35h-214v35q18 1 30.5 5.5t22 14t17.5 25.5t16 41l184 568h89l182 -566q7 -21 13.5 -37t15.5 -26.5t22 -17t33 -7.5v-35h-245v35q36 2 52 11t16 31q0 8 -1.5 16.5t-3.5 13.5zM211 263h201l-45 148
q-20 66 -33.5 117t-18.5 74h-4q-8 -30 -20.5 -76t-33.5 -115zM397 818q26 0 43 12.5t30 32.5l36 -14q-13 -38 -38.5 -66.5t-70.5 -28.5q-26 0 -44.5 7t-34 15t-29.5 15t-30 7q-29 0 -43.5 -13.5t-27.5 -33.5l-34 13q11 42 35.5 71t69.5 29q25 0 42.5 -7t32.5 -16t30 -16
t33 -7z" />
    <glyph glyph-name="Adieresis" unicode="&#xc4;" horiz-adv-x="657" 
d="M426 215h-230l-33 -108q-6 -21 -6 -35q0 -22 17.5 -28.5t55.5 -8.5v-35h-214v35q18 1 30.5 5.5t22 14t17.5 25.5t16 41l184 568h89l182 -566q7 -21 13.5 -37t15.5 -26.5t22 -17t33 -7.5v-35h-245v35q36 2 52 11t16 31q0 8 -1.5 16.5t-3.5 13.5zM211 263h201l-45 148
q-20 66 -33.5 117t-18.5 74h-4q-8 -30 -20.5 -76t-33.5 -115zM285 787q0 -26 -17 -43t-43 -17t-43 17t-17 43t17 43t43 17t43 -17t17 -43zM494 787q0 -26 -17 -43t-43 -17t-43 17t-17 43t17 43t43 17t43 -17t17 -43z" />
    <glyph glyph-name="Aring" unicode="&#xc5;" horiz-adv-x="657" 
d="M426 215h-230l-33 -108q-6 -21 -6 -35q0 -22 17.5 -28.5t55.5 -8.5v-35h-214v35q18 1 30.5 5.5t22 14t17.5 25.5t16 41l184 568h89l182 -566q7 -21 13.5 -37t15.5 -26.5t22 -17t33 -7.5v-35h-245v35q36 2 52 11t16 31q0 8 -1.5 16.5t-3.5 13.5zM211 263h201l-45 148
q-20 66 -33.5 117t-18.5 74h-4q-8 -30 -20.5 -76t-33.5 -115zM328 719q-45 0 -73 29t-28 73t28 73t73 29t73.5 -29t28.5 -73t-28.5 -73t-73.5 -29zM328 888q-28 0 -44.5 -19.5t-16.5 -48.5q0 -27 16.5 -46t44.5 -19q29 0 45.5 19t16.5 46q0 29 -16.5 48.5t-45.5 19.5z" />
    <glyph glyph-name="AE" unicode="&#xc6;" horiz-adv-x="904" 
d="M362 581q11 20 11 35q0 17 -17.5 26.5t-55.5 11.5v35h546l10 -150h-42q-8 28 -16 47.5t-18.5 31.5t-25 17t-36.5 5h-167v-256h93q23 0 39 3t26 11t14.5 22t6.5 35h41v-190h-41q-3 41 -20.5 56t-64.5 15h-94v-287h168q29 0 47.5 5t30 18t17.5 35.5t9 57.5h45v-165h-492v35
q25 1 40.5 5t24.5 12.5t12 23t3 35.5v134h-207l-77 -145q-13 -24 -13 -36q0 -26 57 -29v-35h-200v35q18 1 30.5 4.5t22.5 11t19.5 20.5t20.5 34zM273 293h183v164q0 63 1.5 107t3.5 79h-4z" />
    <glyph glyph-name="Ccedilla" unicode="&#xc7;" horiz-adv-x="577" 
d="M425 -113q0 -85 -99 -85q-29 0 -48 7.5t-33 17.5l16 32q17 -11 31 -14.5t31 -3.5t28.5 6.5t11.5 29.5q0 10 -6 16t-16 10t-22.5 5.5t-25.5 1.5v21l17 60q-69 6 -119 32.5t-82.5 71.5t-48.5 106.5t-16 137.5q0 86 21.5 153.5t60.5 114t93.5 70.5t120.5 24q41 0 72 -3.5
t54 -10t40.5 -15t31.5 -18.5v-112h-70q-14 58 -41.5 85t-89.5 27q-43 0 -78 -16.5t-59.5 -53t-37.5 -96.5t-13 -147q0 -90 14 -149t39.5 -93.5t62.5 -48.5t83 -14q60 0 89.5 24.5t40.5 83.5h65v-105q-26 -19 -73 -34.5t-122 -15.5l-8 -28q47 -3 66 -25t19 -49z" />
    <glyph glyph-name="Egrave" unicode="&#xc8;" horiz-adv-x="565" 
d="M37 35q25 1 40.5 5t24.5 12.5t12 23t3 35.5v467q0 21 -3 35.5t-12 23t-24.5 12.5t-40.5 5v35h470l10 -150h-42q-8 28 -16 47.5t-18.5 31.5t-25 17t-36.5 5h-167v-256h93q23 0 39 3t26 11t14.5 22t6.5 35h41v-190h-41q-3 41 -20.5 56t-64.5 15h-94v-287h168q29 0 47.5 5
t30 18t17.5 35.5t9 57.5h45v-165h-492v35zM393 727l-214 70l43 92l191 -128z" />
    <glyph glyph-name="Eacute" unicode="&#xc9;" horiz-adv-x="565" 
d="M37 35q25 1 40.5 5t24.5 12.5t12 23t3 35.5v467q0 21 -3 35.5t-12 23t-24.5 12.5t-40.5 5v35h470l10 -150h-42q-8 28 -16 47.5t-18.5 31.5t-25 17t-36.5 5h-167v-256h93q23 0 39 3t26 11t14.5 22t6.5 35h41v-190h-41q-3 41 -20.5 56t-64.5 15h-94v-287h168q29 0 47.5 5
t30 18t17.5 35.5t9 57.5h45v-165h-492v35zM181 761l191 128l43 -92l-214 -70z" />
    <glyph glyph-name="Ecircumflex" unicode="&#xca;" horiz-adv-x="565" 
d="M37 35q25 1 40.5 5t24.5 12.5t12 23t3 35.5v467q0 21 -3 35.5t-12 23t-24.5 12.5t-40.5 5v35h470l10 -150h-42q-8 28 -16 47.5t-18.5 31.5t-25 17t-36.5 5h-167v-256h93q23 0 39 3t26 11t14.5 22t6.5 35h41v-190h-41q-3 41 -20.5 56t-64.5 15h-94v-287h168q29 0 47.5 5
t30 18t17.5 35.5t9 57.5h45v-165h-492v35zM298 809l-137 -81l-25 30l162 149l162 -149l-25 -30z" />
    <glyph glyph-name="Edieresis" unicode="&#xcb;" horiz-adv-x="565" 
d="M37 35q25 1 40.5 5t24.5 12.5t12 23t3 35.5v467q0 21 -3 35.5t-12 23t-24.5 12.5t-40.5 5v35h470l10 -150h-42q-8 28 -16 47.5t-18.5 31.5t-25 17t-36.5 5h-167v-256h93q23 0 39 3t26 11t14.5 22t6.5 35h41v-190h-41q-3 41 -20.5 56t-64.5 15h-94v-287h168q29 0 47.5 5
t30 18t17.5 35.5t9 57.5h45v-165h-492v35zM254 787q0 -26 -17 -43t-43 -17t-43 17t-17 43t17 43t43 17t43 -17t17 -43zM463 787q0 -26 -17 -43t-43 -17t-43 17t-17 43t17 43t43 17t43 -17t17 -43z" />
    <glyph glyph-name="Igrave" unicode="&#xcc;" horiz-adv-x="329" 
d="M117 578q0 21 -3 35.5t-12 23t-24.5 12.5t-40.5 5v35h255v-35q-25 -1 -40.5 -5t-24.5 -12.5t-12 -23t-3 -35.5v-467q0 -21 3 -35.5t12 -23t24.5 -12.5t40.5 -5v-35h-255v35q25 1 40.5 5t24.5 12.5t12 23t3 35.5v467zM260 727l-214 70l43 92l191 -128z" />
    <glyph glyph-name="Iacute" unicode="&#xcd;" horiz-adv-x="329" 
d="M117 578q0 21 -3 35.5t-12 23t-24.5 12.5t-40.5 5v35h255v-35q-25 -1 -40.5 -5t-24.5 -12.5t-12 -23t-3 -35.5v-467q0 -21 3 -35.5t12 -23t24.5 -12.5t40.5 -5v-35h-255v35q25 1 40.5 5t24.5 12.5t12 23t3 35.5v467zM48 761l191 128l43 -92l-214 -70z" />
    <glyph glyph-name="Icircumflex" unicode="&#xce;" horiz-adv-x="329" 
d="M117 578q0 21 -3 35.5t-12 23t-24.5 12.5t-40.5 5v35h255v-35q-25 -1 -40.5 -5t-24.5 -12.5t-12 -23t-3 -35.5v-467q0 -21 3 -35.5t12 -23t24.5 -12.5t40.5 -5v-35h-255v35q25 1 40.5 5t24.5 12.5t12 23t3 35.5v467zM165 809l-137 -81l-25 30l162 149l162 -149l-25 -30z
" />
    <glyph glyph-name="Idieresis" unicode="&#xcf;" horiz-adv-x="329" 
d="M117 578q0 21 -3 35.5t-12 23t-24.5 12.5t-40.5 5v35h255v-35q-25 -1 -40.5 -5t-24.5 -12.5t-12 -23t-3 -35.5v-467q0 -21 3 -35.5t12 -23t24.5 -12.5t40.5 -5v-35h-255v35q25 1 40.5 5t24.5 12.5t12 23t3 35.5v467zM121 787q0 -26 -17 -43t-43 -17t-43 17t-17 43t17 43
t43 17t43 -17t17 -43zM330 787q0 -26 -17 -43t-43 -17t-43 17t-17 43t17 43t43 17t43 -17t17 -43z" />
    <glyph glyph-name="Eth" unicode="&#xd0;" horiz-adv-x="670" 
d="M33 388h84v190q0 21 -3 35.5t-12 23t-24.5 12.5t-40.5 5v35h253q76 0 138.5 -20t106 -62.5t67.5 -107.5t24 -155q0 -75 -17.5 -138t-57.5 -108.5t-104 -71.5t-157 -26h-253v35q25 1 40.5 5t24.5 12.5t12 23t3 35.5v231h-84v46zM522 332q0 86 -14 145.5t-42 96t-69 52.5
t-95 16h-87v-254h129v-46h-129v-291h85q56 0 97.5 12.5t69.5 44t41.5 86t13.5 138.5z" />
    <glyph glyph-name="Ntilde" unicode="&#xd1;" horiz-adv-x="685" 
d="M516 578q0 21 -3 35.5t-12 23t-24.5 12.5t-40.5 5v35h219v-35q-23 -1 -37 -5t-22 -12.5t-10.5 -23t-2.5 -35.5v-578h-71l-250 408q-42 67 -59.5 108.5t-24.5 61.5h-6q3 -20 7.5 -65.5t4.5 -118.5v-283q0 -21 3 -35.5t12 -23t24.5 -12.5t40.5 -5v-35h-227v35q25 1 40.5 5
t24.5 12.5t12 23t3 35.5v467q0 21 -3 35.5t-12 23t-24.5 12.5t-40.5 5v35h162l255 -418q11 -18 21.5 -38.5t19.5 -40t16 -37t11 -29.5h6q-2 11 -4 32t-4 49t-3 60t-1 66v245zM414 818q26 0 43 12.5t30 32.5l36 -14q-13 -38 -38.5 -66.5t-70.5 -28.5q-26 0 -44.5 7t-34 15
t-29.5 15t-30 7q-29 0 -43.5 -13.5t-27.5 -33.5l-34 13q11 42 35.5 71t69.5 29q25 0 42.5 -7t32.5 -16t30 -16t33 -7z" />
    <glyph glyph-name="Ograve" unicode="&#xd2;" horiz-adv-x="674" 
d="M340 -11q-74 0 -129.5 27t-92.5 74.5t-55.5 113t-18.5 143.5q0 85 20.5 151t59 111t92 68.5t119.5 23.5q79 0 135 -29.5t91.5 -79t52 -115t16.5 -137.5q0 -79 -19.5 -144t-57 -111t-91.5 -71t-122 -25zM335 654q-100 0 -144.5 -74.5t-44.5 -221.5q0 -73 10 -132.5
t32.5 -102t60 -66t91.5 -23.5q43 0 77.5 16.5t58.5 52.5t37 92.5t13 135.5q0 77 -10 137t-33 101.5t-59.5 63t-88.5 21.5zM433 727l-214 70l43 92l191 -128z" />
    <glyph glyph-name="Oacute" unicode="&#xd3;" horiz-adv-x="674" 
d="M340 -11q-74 0 -129.5 27t-92.5 74.5t-55.5 113t-18.5 143.5q0 85 20.5 151t59 111t92 68.5t119.5 23.5q79 0 135 -29.5t91.5 -79t52 -115t16.5 -137.5q0 -79 -19.5 -144t-57 -111t-91.5 -71t-122 -25zM335 654q-100 0 -144.5 -74.5t-44.5 -221.5q0 -73 10 -132.5
t32.5 -102t60 -66t91.5 -23.5q43 0 77.5 16.5t58.5 52.5t37 92.5t13 135.5q0 77 -10 137t-33 101.5t-59.5 63t-88.5 21.5zM221 761l191 128l43 -92l-214 -70z" />
    <glyph glyph-name="Ocircumflex" unicode="&#xd4;" horiz-adv-x="674" 
d="M340 -11q-74 0 -129.5 27t-92.5 74.5t-55.5 113t-18.5 143.5q0 85 20.5 151t59 111t92 68.5t119.5 23.5q79 0 135 -29.5t91.5 -79t52 -115t16.5 -137.5q0 -79 -19.5 -144t-57 -111t-91.5 -71t-122 -25zM335 654q-100 0 -144.5 -74.5t-44.5 -221.5q0 -73 10 -132.5
t32.5 -102t60 -66t91.5 -23.5q43 0 77.5 16.5t58.5 52.5t37 92.5t13 135.5q0 77 -10 137t-33 101.5t-59.5 63t-88.5 21.5zM338 809l-137 -81l-25 30l162 149l162 -149l-25 -30z" />
    <glyph glyph-name="Otilde" unicode="&#xd5;" horiz-adv-x="674" 
d="M340 -11q-74 0 -129.5 27t-92.5 74.5t-55.5 113t-18.5 143.5q0 85 20.5 151t59 111t92 68.5t119.5 23.5q79 0 135 -29.5t91.5 -79t52 -115t16.5 -137.5q0 -79 -19.5 -144t-57 -111t-91.5 -71t-122 -25zM335 654q-100 0 -144.5 -74.5t-44.5 -221.5q0 -73 10 -132.5
t32.5 -102t60 -66t91.5 -23.5q43 0 77.5 16.5t58.5 52.5t37 92.5t13 135.5q0 77 -10 137t-33 101.5t-59.5 63t-88.5 21.5zM405 818q26 0 43 12.5t30 32.5l36 -14q-13 -38 -38.5 -66.5t-70.5 -28.5q-26 0 -44.5 7t-34 15t-29.5 15t-30 7q-29 0 -43.5 -13.5t-27.5 -33.5
l-34 13q11 42 35.5 71t69.5 29q25 0 42.5 -7t32.5 -16t30 -16t33 -7z" />
    <glyph glyph-name="Odieresis" unicode="&#xd6;" horiz-adv-x="674" 
d="M340 -11q-74 0 -129.5 27t-92.5 74.5t-55.5 113t-18.5 143.5q0 85 20.5 151t59 111t92 68.5t119.5 23.5q79 0 135 -29.5t91.5 -79t52 -115t16.5 -137.5q0 -79 -19.5 -144t-57 -111t-91.5 -71t-122 -25zM335 654q-100 0 -144.5 -74.5t-44.5 -221.5q0 -73 10 -132.5
t32.5 -102t60 -66t91.5 -23.5q43 0 77.5 16.5t58.5 52.5t37 92.5t13 135.5q0 77 -10 137t-33 101.5t-59.5 63t-88.5 21.5zM294 787q0 -26 -17 -43t-43 -17t-43 17t-17 43t17 43t43 17t43 -17t17 -43zM503 787q0 -26 -17 -43t-43 -17t-43 17t-17 43t17 43t43 17t43 -17
t17 -43z" />
    <glyph glyph-name="multiply" unicode="&#xd7;" horiz-adv-x="505" 
d="M92 469l160 -160l160 160l38 -38l-160 -160l160 -159l-38 -38l-160 160l-160 -160l-37 38l159 159l-159 160z" />
    <glyph glyph-name="Oslash" unicode="&#xd8;" horiz-adv-x="674" 
d="M528 631q54 -51 78 -127t24 -164q0 -79 -19.5 -144t-57 -111t-91.5 -71t-122 -25q-98 0 -166 48l-58 -98l-40 22l62 106q-48 48 -71 120t-23 160q0 85 20.5 151t59 111t92 68.5t119.5 23.5q47 0 85 -10.5t69 -29.5l53 88l43 -23zM526 331q0 74 -9.5 131.5t-29.5 99.5
l-279 -469q23 -29 55 -44t77 -15q43 0 77.5 16.5t58.5 52.5t37 92.5t13 135.5zM335 654q-100 0 -144.5 -74.5t-44.5 -221.5q0 -67 8 -122t27 -97l276 467q-46 48 -122 48z" />
    <glyph glyph-name="Ugrave" unicode="&#xd9;" horiz-adv-x="684" 
d="M517 578q0 21 -3 35.5t-12.5 23t-26 12.5t-43.5 5v35h224v-35q-23 -1 -37 -5t-22 -12.5t-10.5 -23t-2.5 -35.5v-354q0 -124 -60.5 -179.5t-173.5 -55.5q-125 0 -186 58t-61 170v361q0 21 -3 35.5t-11.5 23t-23 12.5t-37.5 5v35h255v-35q-27 -1 -43.5 -5t-26 -12.5
t-12.5 -23t-3 -35.5v-339q0 -50 8 -86t27 -59t51 -34t80 -11q83 0 118 41t35 134v354zM451 727l-214 70l43 92l191 -128z" />
    <glyph glyph-name="Uacute" unicode="&#xda;" horiz-adv-x="684" 
d="M517 578q0 21 -3 35.5t-12.5 23t-26 12.5t-43.5 5v35h224v-35q-23 -1 -37 -5t-22 -12.5t-10.5 -23t-2.5 -35.5v-354q0 -124 -60.5 -179.5t-173.5 -55.5q-125 0 -186 58t-61 170v361q0 21 -3 35.5t-11.5 23t-23 12.5t-37.5 5v35h255v-35q-27 -1 -43.5 -5t-26 -12.5
t-12.5 -23t-3 -35.5v-339q0 -50 8 -86t27 -59t51 -34t80 -11q83 0 118 41t35 134v354zM239 761l191 128l43 -92l-214 -70z" />
    <glyph glyph-name="Ucircumflex" unicode="&#xdb;" horiz-adv-x="684" 
d="M517 578q0 21 -3 35.5t-12.5 23t-26 12.5t-43.5 5v35h224v-35q-23 -1 -37 -5t-22 -12.5t-10.5 -23t-2.5 -35.5v-354q0 -124 -60.5 -179.5t-173.5 -55.5q-125 0 -186 58t-61 170v361q0 21 -3 35.5t-11.5 23t-23 12.5t-37.5 5v35h255v-35q-27 -1 -43.5 -5t-26 -12.5
t-12.5 -23t-3 -35.5v-339q0 -50 8 -86t27 -59t51 -34t80 -11q83 0 118 41t35 134v354zM356 809l-137 -81l-25 30l162 149l162 -149l-25 -30z" />
    <glyph glyph-name="Udieresis" unicode="&#xdc;" horiz-adv-x="684" 
d="M517 578q0 21 -3 35.5t-12.5 23t-26 12.5t-43.5 5v35h224v-35q-23 -1 -37 -5t-22 -12.5t-10.5 -23t-2.5 -35.5v-354q0 -124 -60.5 -179.5t-173.5 -55.5q-125 0 -186 58t-61 170v361q0 21 -3 35.5t-11.5 23t-23 12.5t-37.5 5v35h255v-35q-27 -1 -43.5 -5t-26 -12.5
t-12.5 -23t-3 -35.5v-339q0 -50 8 -86t27 -59t51 -34t80 -11q83 0 118 41t35 134v354zM312 787q0 -26 -17 -43t-43 -17t-43 17t-17 43t17 43t43 17t43 -17t17 -43zM521 787q0 -26 -17 -43t-43 -17t-43 17t-17 43t17 43t43 17t43 -17t17 -43z" />
    <glyph glyph-name="Yacute" unicode="&#xdd;" horiz-adv-x="594" 
d="M323 345l108 234q12 27 12 43q0 17 -15 23.5t-44 8.5v35h199v-35q-15 -2 -27 -6.5t-23 -14.5t-22 -27t-25 -45l-137 -279v-171q0 -21 3.5 -35.5t13 -23t26 -12.5t42.5 -5v-35h-265v35q26 1 42.5 5t26 12.5t13 23t3.5 35.5v165l-149 296q-12 24 -22.5 39t-21.5 24t-23 13
t-27 6v35h238v-35q-29 -1 -41 -8t-12 -22q0 -10 3.5 -21t10.5 -26l109 -232h4zM195 761l191 128l43 -92l-214 -70z" />
    <glyph glyph-name="Thorn" unicode="&#xde;" horiz-adv-x="577" 
d="M447 357q0 42 -7 71t-24 47t-47.5 26t-76.5 8h-80v-290h98q75 0 106 31.5t31 106.5zM212 557h87q71 0 119 -13.5t77 -38.5t41.5 -60t12.5 -78q0 -99 -59 -147t-174 -48h-104v-58q0 -22 3.5 -37t13.5 -24t27 -13t44 -5v-35h-263v35q25 1 40.5 5t24.5 12.5t12 23t3 35.5
v467q0 21 -3 35.5t-12 23t-24.5 12.5t-40.5 5v35h255v-35q-25 -1 -40.5 -5t-24.5 -12.5t-12 -23t-3 -35.5v-21z" />
    <glyph glyph-name="germandbls" unicode="&#xdf;" horiz-adv-x="585" 
d="M98 537q0 48 16.5 84t44.5 59.5t66 35.5t82 12q40 0 74.5 -9.5t60 -27.5t39.5 -43.5t14 -57.5q0 -29 -9.5 -50t-26 -37.5t-39.5 -30.5t-49 -29q-14 -8 -22 -14.5t-8 -14.5t7 -14.5t17 -11.5q40 -21 75 -44.5t61.5 -51.5t42 -61.5t15.5 -74.5q0 -36 -12.5 -66t-35.5 -52
t-56.5 -34.5t-75.5 -12.5q-51 0 -85 13t-57 30l23 44q28 -17 54.5 -27t62.5 -10q43 0 63.5 27t20.5 77q0 35 -9 61t-25 47.5t-38.5 40t-49.5 38.5q-17 12 -29 21t-20 17.5t-11.5 17.5t-3.5 20q0 10 3 18.5t10 16t18.5 16t29.5 19.5q35 22 50.5 46t15.5 61q0 54 -25.5 75
t-73.5 21q-63 0 -88 -39t-25 -115v-527h-161v34q21 1 35 4.5t21.5 11t10.5 20.5t3 34v332h-63v32l62 23v46z" />
    <glyph glyph-name="agrave" unicode="&#xe0;" horiz-adv-x="512" 
d="M420 131q0 -28 2.5 -45.5t10 -27.5t22.5 -14t39 -6v-33q-11 -5 -30 -8t-39 -3q-27 0 -43.5 5t-26.5 14.5t-14.5 22.5t-6.5 29q-6 -11 -18 -25t-29 -26t-39.5 -20.5t-50.5 -8.5q-72 0 -116.5 37t-44.5 106q0 45 19 76t53.5 49.5t82.5 27t107 8.5h17q8 0 18 -1v44
q0 64 -19 94t-72 30q-32 0 -52.5 -7.5t-34 -20t-20 -29t-9.5 -33.5h-63v89q16 9 37.5 18t46 16.5t51 12t52.5 4.5q85 0 129.5 -40t44.5 -128q0 -11 -0.5 -32t-1.5 -48.5t-1.5 -60t-0.5 -66.5zM331 240q-11 1 -18 1.5t-17 0.5q-86 0 -124.5 -25t-38.5 -82q0 -54 21 -73.5
t65 -19.5q35 0 63.5 21.5t45.5 51.5zM324 566l-212 96l53 91l179 -153z" />
    <glyph glyph-name="aacute" unicode="&#xe1;" horiz-adv-x="512" 
d="M420 131q0 -28 2.5 -45.5t10 -27.5t22.5 -14t39 -6v-33q-11 -5 -30 -8t-39 -3q-27 0 -43.5 5t-26.5 14.5t-14.5 22.5t-6.5 29q-6 -11 -18 -25t-29 -26t-39.5 -20.5t-50.5 -8.5q-72 0 -116.5 37t-44.5 106q0 45 19 76t53.5 49.5t82.5 27t107 8.5h17q8 0 18 -1v44
q0 64 -19 94t-72 30q-32 0 -52.5 -7.5t-34 -20t-20 -29t-9.5 -33.5h-63v89q16 9 37.5 18t46 16.5t51 12t52.5 4.5q85 0 129.5 -40t44.5 -128q0 -11 -0.5 -32t-1.5 -48.5t-1.5 -60t-0.5 -66.5zM331 240q-11 1 -18 1.5t-17 0.5q-86 0 -124.5 -25t-38.5 -82q0 -54 21 -73.5
t65 -19.5q35 0 63.5 21.5t45.5 51.5zM128 600l179 153l53 -91l-212 -96z" />
    <glyph glyph-name="acircumflex" unicode="&#xe2;" horiz-adv-x="512" 
d="M420 131q0 -28 2.5 -45.5t10 -27.5t22.5 -14t39 -6v-33q-11 -5 -30 -8t-39 -3q-27 0 -43.5 5t-26.5 14.5t-14.5 22.5t-6.5 29q-6 -11 -18 -25t-29 -26t-39.5 -20.5t-50.5 -8.5q-72 0 -116.5 37t-44.5 106q0 45 19 76t53.5 49.5t82.5 27t107 8.5h17q8 0 18 -1v44
q0 64 -19 94t-72 30q-32 0 -52.5 -7.5t-34 -20t-20 -29t-9.5 -33.5h-63v89q16 9 37.5 18t46 16.5t51 12t52.5 4.5q85 0 129.5 -40t44.5 -128q0 -11 -0.5 -32t-1.5 -48.5t-1.5 -60t-0.5 -66.5zM331 240q-11 1 -18 1.5t-17 0.5q-86 0 -124.5 -25t-38.5 -82q0 -54 21 -73.5
t65 -19.5q35 0 63.5 21.5t45.5 51.5zM244 649l-137 -85l-25 30l162 153l162 -153l-25 -30z" />
    <glyph glyph-name="atilde" unicode="&#xe3;" horiz-adv-x="512" 
d="M420 131q0 -28 2.5 -45.5t10 -27.5t22.5 -14t39 -6v-33q-11 -5 -30 -8t-39 -3q-27 0 -43.5 5t-26.5 14.5t-14.5 22.5t-6.5 29q-6 -11 -18 -25t-29 -26t-39.5 -20.5t-50.5 -8.5q-72 0 -116.5 37t-44.5 106q0 45 19 76t53.5 49.5t82.5 27t107 8.5h17q8 0 18 -1v44
q0 64 -19 94t-72 30q-32 0 -52.5 -7.5t-34 -20t-20 -29t-9.5 -33.5h-63v89q16 9 37.5 18t46 16.5t51 12t52.5 4.5q85 0 129.5 -40t44.5 -128q0 -11 -0.5 -32t-1.5 -48.5t-1.5 -60t-0.5 -66.5zM331 240q-11 1 -18 1.5t-17 0.5q-86 0 -124.5 -25t-38.5 -82q0 -54 21 -73.5
t65 -19.5q35 0 63.5 21.5t45.5 51.5zM300 669q24 0 39.5 11t26.5 31l35 -15q-6 -19 -15 -37t-21.5 -32.5t-28.5 -23t-36 -8.5t-37 4.5t-32 10t-28.5 10t-26.5 4.5q-26 0 -39.5 -12t-24.5 -32l-33 14q4 21 12.5 40t20.5 33.5t28 23.5t36 9t36.5 -5t30.5 -10.5t28 -10.5t29 -5
z" />
    <glyph glyph-name="adieresis" unicode="&#xe4;" horiz-adv-x="512" 
d="M420 131q0 -28 2.5 -45.5t10 -27.5t22.5 -14t39 -6v-33q-11 -5 -30 -8t-39 -3q-27 0 -43.5 5t-26.5 14.5t-14.5 22.5t-6.5 29q-6 -11 -18 -25t-29 -26t-39.5 -20.5t-50.5 -8.5q-72 0 -116.5 37t-44.5 106q0 45 19 76t53.5 49.5t82.5 27t107 8.5h17q8 0 18 -1v44
q0 64 -19 94t-72 30q-32 0 -52.5 -7.5t-34 -20t-20 -29t-9.5 -33.5h-63v89q16 9 37.5 18t46 16.5t51 12t52.5 4.5q85 0 129.5 -40t44.5 -128q0 -11 -0.5 -32t-1.5 -48.5t-1.5 -60t-0.5 -66.5zM331 240q-11 1 -18 1.5t-17 0.5q-86 0 -124.5 -25t-38.5 -82q0 -54 21 -73.5
t65 -19.5q35 0 63.5 21.5t45.5 51.5zM200 638q0 -26 -17 -43t-43 -17t-43 17t-17 43t17 43t43 17t43 -17t17 -43zM409 638q0 -26 -17 -43t-43 -17t-43 17t-17 43t17 43t43 17t43 -17t17 -43z" />
    <glyph glyph-name="aring" unicode="&#xe5;" horiz-adv-x="512" 
d="M420 131q0 -28 2.5 -45.5t10 -27.5t22.5 -14t39 -6v-33q-11 -5 -30 -8t-39 -3q-27 0 -43.5 5t-26.5 14.5t-14.5 22.5t-6.5 29q-6 -11 -18 -25t-29 -26t-39.5 -20.5t-50.5 -8.5q-72 0 -116.5 37t-44.5 106q0 45 19 76t53.5 49.5t82.5 27t107 8.5h17q8 0 18 -1v44
q0 64 -19 94t-72 30q-32 0 -52.5 -7.5t-34 -20t-20 -29t-9.5 -33.5h-63v89q16 9 37.5 18t46 16.5t51 12t52.5 4.5q85 0 129.5 -40t44.5 -128q0 -11 -0.5 -32t-1.5 -48.5t-1.5 -60t-0.5 -66.5zM331 240q-11 1 -18 1.5t-17 0.5q-86 0 -124.5 -25t-38.5 -82q0 -54 21 -73.5
t65 -19.5q35 0 63.5 21.5t45.5 51.5zM243 560q-45 0 -73 29t-28 73t28 73t73 29t73.5 -29t28.5 -73t-28.5 -73t-73.5 -29zM243 729q-28 0 -44.5 -19.5t-16.5 -48.5q0 -27 16.5 -46t44.5 -19q29 0 45.5 19t16.5 46q0 29 -16.5 48.5t-45.5 19.5z" />
    <glyph glyph-name="ae" unicode="&#xe6;" horiz-adv-x="770" 
d="M390 446q29 29 66.5 45t81.5 16q95 0 147.5 -62t52.5 -177v-27h-319q1 -54 10.5 -91t29 -59.5t49 -32t68.5 -9.5q32 0 69.5 12.5t63.5 29.5l21 -34q-36 -28 -80 -48t-98 -20q-120 0 -180 83q-25 -37 -67 -60t-108 -23q-72 0 -116.5 35t-44.5 104q0 45 19 76t53.5 50
t82.5 27.5t107 8.5h29v46q0 31 -4 53.5t-13 37.5t-25.5 22t-42.5 7q-32 0 -52.5 -7.5t-34 -20t-20 -29t-9.5 -33.5h-63v89q16 9 37.5 18t46 16.5t51 12t52.5 4.5q102 0 140 -60zM536 459q-26 0 -46 -8.5t-35 -28t-23.5 -52t-11.5 -80.5h223q0 92 -25 130.5t-82 38.5zM219 49
q76 0 126 72q-11 26 -14.5 55.5t-4.5 64.5h-30q-86 0 -124.5 -24.5t-38.5 -81.5q0 -27 7 -43.5t19 -26t27.5 -13t32.5 -3.5z" />
    <glyph glyph-name="ccedilla" unicode="&#xe7;" horiz-adv-x="463" 
d="M229 -198q-29 0 -48 7.5t-33 17.5l16 32q17 -11 31 -14.5t31 -3.5t28.5 6.5t11.5 29.5q0 10 -6 16t-16 10t-22.5 5.5t-25.5 1.5v21l18 62q-38 7 -70.5 25.5t-56.5 49t-37.5 73t-13.5 97.5q0 65 17.5 114.5t48 83t72.5 50.5t91 17q58 0 94.5 -13t55.5 -26v-92h-68
q-8 45 -25 65t-59 20q-29 0 -52.5 -10t-40 -33.5t-26 -61.5t-9.5 -94q0 -60 8.5 -101t26 -66t43.5 -36t61 -11q22 0 39.5 3.5t33 10.5t29.5 17t31 24l26 -28q-33 -38 -75.5 -60t-97.5 -22h-9l-8 -28q47 -3 66 -25t19 -49q0 -85 -99 -85z" />
    <glyph glyph-name="egrave" unicode="&#xe8;" horiz-adv-x="483" 
d="M289 49q32 0 69.5 12.5t63.5 29.5l21 -34q-36 -28 -80 -48t-98 -20q-108 0 -168.5 68t-60.5 192q0 61 16.5 109t45 81t68 50.5t85.5 17.5q95 0 147.5 -62t52.5 -177v-27h-319q1 -54 10.5 -91t29 -59.5t49 -32t68.5 -9.5zM249 459q-26 0 -46 -8.5t-35 -28t-23.5 -52
t-11.5 -80.5h223q0 92 -25 130.5t-82 38.5zM336 566l-212 96l53 91l179 -153z" />
    <glyph glyph-name="eacute" unicode="&#xe9;" horiz-adv-x="483" 
d="M289 49q32 0 69.5 12.5t63.5 29.5l21 -34q-36 -28 -80 -48t-98 -20q-108 0 -168.5 68t-60.5 192q0 61 16.5 109t45 81t68 50.5t85.5 17.5q95 0 147.5 -62t52.5 -177v-27h-319q1 -54 10.5 -91t29 -59.5t49 -32t68.5 -9.5zM249 459q-26 0 -46 -8.5t-35 -28t-23.5 -52
t-11.5 -80.5h223q0 92 -25 130.5t-82 38.5zM139 600l179 153l53 -91l-212 -96z" />
    <glyph glyph-name="ecircumflex" unicode="&#xea;" horiz-adv-x="483" 
d="M289 49q32 0 69.5 12.5t63.5 29.5l21 -34q-36 -28 -80 -48t-98 -20q-108 0 -168.5 68t-60.5 192q0 61 16.5 109t45 81t68 50.5t85.5 17.5q95 0 147.5 -62t52.5 -177v-27h-319q1 -54 10.5 -91t29 -59.5t49 -32t68.5 -9.5zM249 459q-26 0 -46 -8.5t-35 -28t-23.5 -52
t-11.5 -80.5h223q0 92 -25 130.5t-82 38.5zM249 649l-137 -85l-25 30l162 153l162 -153l-25 -30z" />
    <glyph glyph-name="edieresis" unicode="&#xeb;" horiz-adv-x="483" 
d="M289 49q32 0 69.5 12.5t63.5 29.5l21 -34q-36 -28 -80 -48t-98 -20q-108 0 -168.5 68t-60.5 192q0 61 16.5 109t45 81t68 50.5t85.5 17.5q95 0 147.5 -62t52.5 -177v-27h-319q1 -54 10.5 -91t29 -59.5t49 -32t68.5 -9.5zM249 459q-26 0 -46 -8.5t-35 -28t-23.5 -52
t-11.5 -80.5h223q0 92 -25 130.5t-82 38.5zM205 638q0 -26 -17 -43t-43 -17t-43 17t-17 43t17 43t43 17t43 -17t17 -43zM414 638q0 -26 -17 -43t-43 -17t-43 17t-17 43t17 43t43 17t43 -17t17 -43z" />
    <glyph glyph-name="igrave" unicode="&#xec;" horiz-adv-x="286" 
d="M29 0v34q21 1 35 4.5t21.5 11t10.5 20.5t3 34v245q0 27 -3 43.5t-11.5 25.5t-22.5 12t-36 4v30l149 40h15v-400q0 -21 2 -34.5t9.5 -21t21 -10.5t37.5 -4v-34h-231zM227 566l-212 96l53 91l179 -153z" />
    <glyph glyph-name="iacute" unicode="&#xed;" horiz-adv-x="286" 
d="M29 0v34q21 1 35 4.5t21.5 11t10.5 20.5t3 34v245q0 27 -3 43.5t-11.5 25.5t-22.5 12t-36 4v30l149 40h15v-400q0 -21 2 -34.5t9.5 -21t21 -10.5t37.5 -4v-34h-231zM28 600l179 153l53 -91l-212 -96z" />
    <glyph glyph-name="icircumflex" unicode="&#xee;" horiz-adv-x="286" 
d="M29 0v34q21 1 35 4.5t21.5 11t10.5 20.5t3 34v245q0 27 -3 43.5t-11.5 25.5t-22.5 12t-36 4v30l149 40h15v-400q0 -21 2 -34.5t9.5 -21t21 -10.5t37.5 -4v-34h-231zM143 649l-137 -85l-25 30l162 153l162 -153l-25 -30z" />
    <glyph glyph-name="idieresis" unicode="&#xef;" horiz-adv-x="286" 
d="M29 0v34q21 1 35 4.5t21.5 11t10.5 20.5t3 34v245q0 27 -3 43.5t-11.5 25.5t-22.5 12t-36 4v30l149 40h15v-400q0 -21 2 -34.5t9.5 -21t21 -10.5t37.5 -4v-34h-231zM100 638q0 -26 -17 -43t-43 -17t-43 17t-17 43t17 43t43 17t43 -17t17 -43zM309 638q0 -26 -17 -43
t-43 -17t-43 17t-17 43t17 43t43 17t43 -17t17 -43z" />
    <glyph glyph-name="eth" unicode="&#xf0;" horiz-adv-x="535" 
d="M108 573l122 50q-53 34 -133 58l15 37q51 -12 97.5 -28.5t86.5 -39.5l127 51l17 -38l-100 -41q73 -53 114.5 -139.5t41.5 -219.5q0 -68 -17 -119t-48 -86t-73 -52.5t-92 -17.5t-92.5 18.5t-73 52.5t-47.5 81.5t-17 105.5q0 61 18.5 109.5t50.5 81.5t74.5 50.5t90.5 17.5
q22 0 44.5 -6.5t42.5 -17.5q-15 32 -36 60t-50 52l-146 -59zM398 253q0 45 -4 87.5t-15 81.5q-26 16 -51 25t-52 9q-75 0 -108.5 -54.5t-33.5 -153.5q0 -50 7 -89t23 -66t41.5 -41.5t62.5 -14.5q65 0 97.5 55t32.5 161z" />
    <glyph glyph-name="ntilde" unicode="&#xf1;" horiz-adv-x="583" 
d="M492 104q0 -21 2.5 -34t10 -20.5t20 -11t32.5 -4.5v-34h-226v34q24 1 37.5 4t21 10t9.5 19t2 30v254q0 45 -18.5 63.5t-54.5 18.5q-45 0 -76.5 -17t-61.5 -46v-273q0 -18 2 -30t9.5 -19t21 -10t37.5 -4v-34h-231v34q21 1 35 4.5t21.5 11t10.5 20.5t3 34v245q0 27 -3 43.5
t-11.5 25.5t-22.5 12t-36 4v30l128 40h15q5 -12 10.5 -36.5t6.5 -50.5q17 18 35 33.5t39 27t44.5 18.5t52.5 7q60 0 97.5 -34t37.5 -100v-265zM352 669q24 0 39.5 11t26.5 31l35 -15q-6 -19 -15 -37t-21.5 -32.5t-28.5 -23t-36 -8.5t-37 4.5t-32 10t-28.5 10t-26.5 4.5
q-26 0 -39.5 -12t-24.5 -32l-33 14q4 21 12.5 40t20.5 33.5t28 23.5t36 9t36.5 -5t30.5 -10.5t28 -10.5t29 -5z" />
    <glyph glyph-name="ograve" unicode="&#xf2;" horiz-adv-x="532" 
d="M496 242q0 -60 -17 -107t-48 -79.5t-73 -50t-92 -17.5t-92.5 17.5t-73 51t-47.5 81.5t-17 109t17 109t47.5 81.5t72 51t91.5 17.5q55 0 98.5 -20t73 -55.5t45 -83.5t15.5 -105zM398 238q0 115 -34 167t-100 52q-38 0 -63 -14t-40 -39.5t-21 -63t-6 -83.5q0 -114 30 -167
t104 -53q65 0 97.5 52t32.5 149zM348 566l-212 96l53 91l179 -153z" />
    <glyph glyph-name="oacute" unicode="&#xf3;" horiz-adv-x="532" 
d="M496 242q0 -60 -17 -107t-48 -79.5t-73 -50t-92 -17.5t-92.5 17.5t-73 51t-47.5 81.5t-17 109t17 109t47.5 81.5t72 51t91.5 17.5q55 0 98.5 -20t73 -55.5t45 -83.5t15.5 -105zM398 238q0 115 -34 167t-100 52q-38 0 -63 -14t-40 -39.5t-21 -63t-6 -83.5q0 -114 30 -167
t104 -53q65 0 97.5 52t32.5 149zM150 600l179 153l53 -91l-212 -96z" />
    <glyph glyph-name="ocircumflex" unicode="&#xf4;" horiz-adv-x="532" 
d="M496 242q0 -60 -17 -107t-48 -79.5t-73 -50t-92 -17.5t-92.5 17.5t-73 51t-47.5 81.5t-17 109t17 109t47.5 81.5t72 51t91.5 17.5q55 0 98.5 -20t73 -55.5t45 -83.5t15.5 -105zM398 238q0 115 -34 167t-100 52q-38 0 -63 -14t-40 -39.5t-21 -63t-6 -83.5q0 -114 30 -167
t104 -53q65 0 97.5 52t32.5 149zM265 649l-137 -85l-25 30l162 153l162 -153l-25 -30z" />
    <glyph glyph-name="otilde" unicode="&#xf5;" horiz-adv-x="532" 
d="M496 242q0 -60 -17 -107t-48 -79.5t-73 -50t-92 -17.5t-92.5 17.5t-73 51t-47.5 81.5t-17 109t17 109t47.5 81.5t72 51t91.5 17.5q55 0 98.5 -20t73 -55.5t45 -83.5t15.5 -105zM398 238q0 115 -34 167t-100 52q-38 0 -63 -14t-40 -39.5t-21 -63t-6 -83.5q0 -114 30 -167
t104 -53q65 0 97.5 52t32.5 149zM329 669q24 0 39.5 11t26.5 31l35 -15q-6 -19 -15 -37t-21.5 -32.5t-28.5 -23t-36 -8.5t-37 4.5t-32 10t-28.5 10t-26.5 4.5q-26 0 -39.5 -12t-24.5 -32l-33 14q4 21 12.5 40t20.5 33.5t28 23.5t36 9t36.5 -5t30.5 -10.5t28 -10.5t29 -5z
" />
    <glyph glyph-name="odieresis" unicode="&#xf6;" horiz-adv-x="532" 
d="M496 242q0 -60 -17 -107t-48 -79.5t-73 -50t-92 -17.5t-92.5 17.5t-73 51t-47.5 81.5t-17 109t17 109t47.5 81.5t72 51t91.5 17.5q55 0 98.5 -20t73 -55.5t45 -83.5t15.5 -105zM398 238q0 115 -34 167t-100 52q-38 0 -63 -14t-40 -39.5t-21 -63t-6 -83.5q0 -114 30 -167
t104 -53q65 0 97.5 52t32.5 149zM222 638q0 -26 -17 -43t-43 -17t-43 17t-17 43t17 43t43 17t43 -17t17 -43zM431 638q0 -26 -17 -43t-43 -17t-43 17t-17 43t17 43t43 17t43 -17t17 -43z" />
    <glyph glyph-name="divide" unicode="&#xf7;" horiz-adv-x="615" 
d="M372 482q0 -29 -19 -48t-45 -19q-27 0 -45.5 18.5t-18.5 46.5q0 27 18.5 46.5t45.5 19.5q26 0 45 -19t19 -45zM55 298h505v-53h-505v53zM372 56q0 -29 -19 -48t-45 -19q-27 0 -45.5 18.5t-18.5 46.5q0 27 18.5 46.5t45.5 19.5q26 0 45 -19t19 -45z" />
    <glyph glyph-name="oslash" unicode="&#xf8;" horiz-adv-x="532" 
d="M415 451q40 -35 60.5 -89t20.5 -120q0 -60 -17 -107t-48 -79.5t-73 -50t-92 -17.5q-32 0 -60.5 7t-53.5 20l-52 -87l-37 22l54 90q-38 33 -59.5 85.5t-21.5 121.5q0 61 17 109t47.5 81.5t72 51t91.5 17.5q64 0 114 -28l50 84l40 -23zM134 257q0 -49 5 -86.5t17 -64.5
l191 320q-32 31 -83 31q-38 0 -63 -14t-40 -39.5t-21 -63t-6 -83.5zM398 238q0 93 -24 146l-191 -318q29 -29 85 -29q65 0 97.5 52t32.5 149z" />
    <glyph glyph-name="ugrave" unicode="&#xf9;" horiz-adv-x="580" 
d="M481 138q0 -27 3 -43.5t11.5 -25.5t22.5 -12t36 -4v-30l-121 -36h-15q-8 20 -14 42t-8 47q-17 -18 -34.5 -34t-37.5 -28t-43.5 -19t-51.5 -7q-60 0 -99 32t-39 101v228q0 27 -3 43.5t-11 25.5t-21.5 12t-34.5 4v30l139 40h22v-366q0 -47 19.5 -64t55.5 -17q45 0 74 17.5
t59 46.5v228q0 27 -3 43.5t-11 25.5t-21.5 12t-34.5 4v30l139 40h22v-366zM370 566l-212 96l53 91l179 -153z" />
    <glyph glyph-name="uacute" unicode="&#xfa;" horiz-adv-x="580" 
d="M481 138q0 -27 3 -43.5t11.5 -25.5t22.5 -12t36 -4v-30l-121 -36h-15q-8 20 -14 42t-8 47q-17 -18 -34.5 -34t-37.5 -28t-43.5 -19t-51.5 -7q-60 0 -99 32t-39 101v228q0 27 -3 43.5t-11 25.5t-21.5 12t-34.5 4v30l139 40h22v-366q0 -47 19.5 -64t55.5 -17q45 0 74 17.5
t59 46.5v228q0 27 -3 43.5t-11 25.5t-21.5 12t-34.5 4v30l139 40h22v-366zM171 600l179 153l53 -91l-212 -96z" />
    <glyph glyph-name="ucircumflex" unicode="&#xfb;" horiz-adv-x="580" 
d="M481 138q0 -27 3 -43.5t11.5 -25.5t22.5 -12t36 -4v-30l-121 -36h-15q-8 20 -14 42t-8 47q-17 -18 -34.5 -34t-37.5 -28t-43.5 -19t-51.5 -7q-60 0 -99 32t-39 101v228q0 27 -3 43.5t-11 25.5t-21.5 12t-34.5 4v30l139 40h22v-366q0 -47 19.5 -64t55.5 -17q45 0 74 17.5
t59 46.5v228q0 27 -3 43.5t-11 25.5t-21.5 12t-34.5 4v30l139 40h22v-366zM286 649l-137 -85l-25 30l162 153l162 -153l-25 -30z" />
    <glyph glyph-name="udieresis" unicode="&#xfc;" horiz-adv-x="580" 
d="M481 138q0 -27 3 -43.5t11.5 -25.5t22.5 -12t36 -4v-30l-121 -36h-15q-8 20 -14 42t-8 47q-17 -18 -34.5 -34t-37.5 -28t-43.5 -19t-51.5 -7q-60 0 -99 32t-39 101v228q0 27 -3 43.5t-11 25.5t-21.5 12t-34.5 4v30l139 40h22v-366q0 -47 19.5 -64t55.5 -17q45 0 74 17.5
t59 46.5v228q0 27 -3 43.5t-11 25.5t-21.5 12t-34.5 4v30l139 40h22v-366zM243 638q0 -26 -17 -43t-43 -17t-43 17t-17 43t17 43t43 17t43 -17t17 -43zM452 638q0 -26 -17 -43t-43 -17t-43 17t-17 43t17 43t43 17t43 -17t17 -43z" />
    <glyph glyph-name="yacute" unicode="&#xfd;" horiz-adv-x="505" 
d="M81 -144q28 7 52.5 16t44 24.5t35 40.5t27.5 65l-36 -5q-10 39 -22 80t-30 92l-80 218q-14 38 -29 52t-44 18v34h222v-34q-37 -2 -50.5 -9t-13.5 -22q0 -5 2 -12t5 -16l72 -202q16 -45 24 -80t11 -52h3q2 12 8.5 40.5t20.5 70.5l72 223q4 13 6 23q2 18 -10 26t-53 10v34
h188v-34q-15 -2 -25.5 -5.5t-19 -11t-15 -20.5t-13.5 -33l-140 -403q-16 -45 -33.5 -79t-39.5 -57.5t-50 -38.5t-65 -22zM155 600l179 153l53 -91l-212 -96z" />
    <glyph glyph-name="thorn" unicode="&#xfe;" horiz-adv-x="556" 
d="M422 236q0 58 -6.5 97t-20 62.5t-35.5 33.5t-52 10q-35 0 -67.5 -15.5t-62.5 -48.5v-271q23 -29 55.5 -44.5t61.5 -15.5q31 0 55 8.5t40 30.5t24 59t8 94zM151 730h15q5 -15 8.5 -42.5t3.5 -56.5v-206q28 36 65.5 57t86.5 21q40 0 74.5 -14.5t60 -45t40.5 -77.5t15 -111
q0 -59 -13.5 -106.5t-39 -82t-64 -53t-87.5 -18.5q-38 0 -73.5 13.5t-64.5 43.5v-145q0 -20 2.5 -33t11 -20.5t23.5 -11t41 -4.5v-34h-239v34q21 1 35 4.5t21.5 11t10.5 20.5t3 34v676q0 27 -3.5 43.5t-12.5 25.5t-24.5 12t-39.5 4v32z" />
    <glyph glyph-name="ydieresis" unicode="&#xff;" horiz-adv-x="505" 
d="M81 -144q28 7 52.5 16t44 24.5t35 40.5t27.5 65l-36 -5q-10 39 -22 80t-30 92l-80 218q-14 38 -29 52t-44 18v34h222v-34q-37 -2 -50.5 -9t-13.5 -22q0 -5 2 -12t5 -16l72 -202q16 -45 24 -80t11 -52h3q2 12 8.5 40.5t20.5 70.5l72 223q4 13 6 23q2 18 -10 26t-53 10v34
h188v-34q-15 -2 -25.5 -5.5t-19 -11t-15 -20.5t-13.5 -33l-140 -403q-16 -45 -33.5 -79t-39.5 -57.5t-50 -38.5t-65 -22zM226 638q0 -26 -17 -43t-43 -17t-43 17t-17 43t17 43t43 17t43 -17t17 -43zM435 638q0 -26 -17 -43t-43 -17t-43 17t-17 43t17 43t43 17t43 -17t17 -43
z" />
    <glyph glyph-name="dotlessi" unicode="&#x131;" horiz-adv-x="286" 
d="M29 0v34q21 1 35 4.5t21.5 11t10.5 20.5t3 34v245q0 27 -3 43.5t-11.5 25.5t-22.5 12t-36 4v30l149 40h15v-400q0 -21 2 -34.5t9.5 -21t21 -10.5t37.5 -4v-34h-231z" />
    <glyph glyph-name="IJ" unicode="&#x132;" horiz-adv-x="668" 
d="M117 578q0 21 -3 35.5t-12 23t-24.5 12.5t-40.5 5v35h255v-35q-25 -1 -40.5 -5t-24.5 -12.5t-12 -23t-3 -35.5v-467q0 -21 3 -35.5t12 -23t24.5 -12.5t40.5 -5v-35h-255v35q25 1 40.5 5t24.5 12.5t12 23t3 35.5v467zM451 578q0 21 -3.5 35.5t-13 23t-26 12.5t-42.5 5v35
h265v-35q-26 -1 -42.5 -5t-26 -12.5t-13 -23t-3.5 -35.5v-471q0 -59 -9.5 -99.5t-31 -69.5t-58 -48.5t-90.5 -36.5l-24 37q40 21 63.5 40.5t35.5 43.5t15.5 54t3.5 72v478z" />
    <glyph glyph-name="ij" unicode="&#x133;" horiz-adv-x="525" 
d="M29 0v34q21 1 35 4.5t21.5 11t10.5 20.5t3 34v245q0 27 -3 43.5t-11.5 25.5t-22.5 12t-36 4v30l149 40h15v-400q0 -21 2 -34.5t9.5 -21t21 -10.5t37.5 -4v-34h-231zM200 644q0 -26 -18 -44.5t-44 -18.5t-44 18.5t-18 44.5t18 44.5t44 18.5t44 -18.5t18 -44.5zM355 349
q0 27 -3 43.5t-11.5 25.5t-22.5 12t-36 4v30l149 40h15v-493q0 -56 -10 -91t-29 -58t-45 -38t-58 -30l-29 40q23 10 38.5 25t24.5 36t13 49.5t4 67.5v337zM456 644q0 -26 -18 -44.5t-44 -18.5t-44 18.5t-18 44.5t18 44.5t44 18.5t44 -18.5t18 -44.5z" />
    <glyph glyph-name="Lslash" unicode="&#x141;" horiz-adv-x="544" 
d="M212 371l194 70v-50l-194 -69v-273h144q27 0 46 6t32 20t21.5 37t16.5 57h44l-15 -169h-464v35q25 1 40.5 5t24.5 12.5t12 23t3 35.5v177l-78 -28v49l78 28v241q0 21 -3 35.5t-12 23t-24.5 12.5t-40.5 5v35h260v-35q-27 -1 -43.5 -5t-25.5 -13t-12.5 -24t-3.5 -36v-205z
" />
    <glyph glyph-name="lslash" unicode="&#x142;" horiz-adv-x="294" 
d="M103 378v206q0 27 -3.5 43.5t-12.5 25.5t-24.5 12t-39.5 4v32l144 29h15q5 -13 8.5 -40t3.5 -59v-210l83 40v-49l-83 -39v-266q0 -22 2.5 -36t10 -21.5t22.5 -11t39 -4.5v-34h-239v34q23 1 37.5 4.5t22.5 11t11 20.5t3 34v226l-82 -39v48z" />
    <glyph glyph-name="OE" unicode="&#x152;" horiz-adv-x="926" 
d="M465 51v591h-69q-54 0 -99.5 -16t-78.5 -52.5t-51.5 -96t-18.5 -145.5q0 -84 18 -138.5t51 -86t79 -44t102 -12.5h67zM868 689l10 -150h-42q-8 28 -16 47.5t-18.5 31.5t-25 17t-36.5 5h-167v-256h93q23 0 39 3t26 11t14.5 22t6.5 35h41v-190h-41q-3 41 -20.5 56t-64.5 15
h-94v-287h168q29 0 47.5 5t30 18t17.5 35.5t9 57.5h45v-165h-482q-93 0 -161.5 26t-113.5 71.5t-67 108.5t-22 138q0 90 28 155t77.5 107.5t115.5 62.5t143 20h460z" />
    <glyph glyph-name="oe" unicode="&#x153;" horiz-adv-x="847" 
d="M653 49q32 0 69.5 12.5t63.5 29.5l21 -34q-36 -28 -80 -48t-98 -20q-61 0 -109 25t-73 69q-29 -45 -76.5 -70t-104.5 -25q-50 0 -92.5 17.5t-73 51t-47.5 81.5t-17 109t17 109t47.5 81.5t72 51t91.5 17.5q60 0 107.5 -25.5t73.5 -69.5q26 48 71 72t99 24q95 0 147.5 -62
t52.5 -177v-27h-319q0 -54 10 -91t29.5 -59.5t49 -32t68.5 -9.5zM398 238q0 115 -34 167t-100 52q-38 0 -63 -14t-40 -39.5t-21 -63t-6 -83.5q0 -114 30 -167t104 -53q65 0 97.5 52t32.5 149zM613 459q-26 0 -46 -8.5t-35 -28t-23.5 -52t-11.5 -80.5h223q0 92 -25 130.5
t-82 38.5z" />
    <glyph glyph-name="Scaron" unicode="&#x160;" horiz-adv-x="538" 
d="M245 -11q-39 0 -71 5.5t-57.5 13.5t-44.5 17.5t-32 18.5v124h69q5 -33 14 -58t26 -41.5t43.5 -24.5t66.5 -8t68.5 10t45.5 27.5t25 41t8 51.5q0 32 -7 53.5t-23 37t-40.5 26t-58.5 21.5l-69 21q-76 23 -115.5 65.5t-39.5 115.5q0 43 15.5 78.5t44 61.5t70 40.5t93.5 14.5
q74 0 118.5 -16t70.5 -35v-107h-65q-5 25 -13 45.5t-24 35t-40 22.5t-60 8q-60 0 -94 -31t-34 -86q0 -28 7 -47t21.5 -33t37.5 -24t55 -20l70 -21q36 -11 67 -27t53 -39t34.5 -54t12.5 -71q0 -100 -63.5 -156t-184.5 -56zM417 907l25 -30l-162 -149l-162 149l25 30l137 -81z
" />
    <glyph glyph-name="scaron" unicode="&#x161;" horiz-adv-x="431" 
d="M202 -12q-35 0 -61.5 4.5t-46.5 11t-34 13.5t-23 13v97h67q5 -51 29.5 -72t77.5 -21q43 0 73 19.5t30 67.5q0 41 -21.5 58.5t-64.5 28.5l-59 14q-57 14 -92 46t-35 93q0 35 14 62t37.5 45t55.5 27.5t68 9.5q59 0 95.5 -13t54.5 -22v-90h-64q-8 40 -30 59.5t-64 19.5
q-45 0 -68.5 -20.5t-23.5 -56.5q0 -32 17 -50t63 -29l59 -14q71 -17 104 -49.5t33 -86.5q0 -75 -51.5 -120t-139.5 -45zM352 730l25 -30l-162 -153l-162 153l25 30l137 -85z" />
    <glyph glyph-name="Ydieresis" unicode="&#x178;" horiz-adv-x="594" 
d="M323 345l108 234q12 27 12 43q0 17 -15 23.5t-44 8.5v35h199v-35q-15 -2 -27 -6.5t-23 -14.5t-22 -27t-25 -45l-137 -279v-171q0 -21 3.5 -35.5t13 -23t26 -12.5t42.5 -5v-35h-265v35q26 1 42.5 5t26 12.5t13 23t3.5 35.5v165l-149 296q-12 24 -22.5 39t-21.5 24t-23 13
t-27 6v35h238v-35q-29 -1 -41 -8t-12 -22q0 -10 3.5 -21t10.5 -26l109 -232h4zM268 787q0 -26 -17 -43t-43 -17t-43 17t-17 43t17 43t43 17t43 -17t17 -43zM477 787q0 -26 -17 -43t-43 -17t-43 17t-17 43t17 43t43 17t43 -17t17 -43z" />
    <glyph glyph-name="Zcaron" unicode="&#x17d;" horiz-adv-x="519" 
d="M123 49h197q29 0 49.5 6.5t35 21t24 38t17.5 57.5h44l-15 -172h-451v56l374 584h-186q-51 0 -76.5 -27t-40.5 -86h-44l14 162h432v-56zM417 907l25 -30l-162 -149l-162 149l25 30l137 -81z" />
    <glyph glyph-name="zcaron" unicode="&#x17e;" horiz-adv-x="455" 
d="M408 0h-368v49l281 393h-122q-26 0 -42 -4t-26.5 -14.5t-16 -28.5t-9.5 -46h-43v142h358v-53l-278 -389h111q35 0 56.5 4.5t35 16t22.5 31.5t20 52h45zM384 730l25 -30l-162 -153l-162 153l25 30l137 -85z" />
    <glyph glyph-name="longs" unicode="&#x17f;" horiz-adv-x="316" 
d="M190 104q0 -20 3 -33t12.5 -21t27 -11.5t46.5 -4.5v-34h-250v34q21 1 35 4.5t21.5 11t10.5 20.5t3 34v332h-63v32l63 23v94q0 69 44 107t115 38q29 0 54.5 -5t43.5 -13v-83h-61q-8 52 -46 52q-29 0 -44 -21.5t-15 -73.5v-482z" />
    <glyph glyph-name="florin" unicode="&#x192;" horiz-adv-x="326" 
d="M40 417l73 13l7 111q5 80 49.5 120t116.5 40q29 0 56 -5t44 -13l-7 -83h-64q-3 24 -11 41t-30 17q-27 0 -45 -18t-22 -70l-11 -143h116v-44h-120l-32 -427q-3 -33 -14 -61.5t-30 -49.5t-46.5 -32.5t-61.5 -11.5l-7 26q38 12 56 38.5t22 85.5l30 432h-72z" />
    <glyph glyph-name="uni02BB" unicode="&#x2bb;" horiz-adv-x="267" 
d="M59 537q0 58 35.5 104t98.5 64l21 -29q-43 -17 -62 -37.5t-19 -42.5q0 -12 7.5 -18t27.5 -14q12 -5 26.5 -18t14.5 -39q0 -29 -20 -49t-51 -20q-35 0 -57 27.5t-22 71.5z" />
    <glyph glyph-name="afii57929" unicode="&#x2bc;" horiz-adv-x="267" 
d="M208 605q0 -58 -35.5 -104t-98.5 -64l-21 29q43 17 62 37.5t19 42.5q0 13 -8 19t-22 11q-17 6 -31.5 19.5t-14.5 39.5q0 29 20 49t51 20q35 0 57 -27.5t22 -71.5z" />
    <glyph glyph-name="circumflex" unicode="&#x2c6;" horiz-adv-x="484" 
d="M242 649l-137 -85l-25 30l162 153l162 -153l-25 -30z" />
    <glyph glyph-name="caron" unicode="&#x2c7;" horiz-adv-x="484" 
d="M379 730l25 -30l-162 -153l-162 153l25 30l137 -85z" />
    <glyph glyph-name="breve" unicode="&#x2d8;" horiz-adv-x="461" 
d="M232 567q-27 0 -51 12.5t-44 32t-34.5 43.5t-22.5 47l31 22q24 -36 52.5 -57.5t66.5 -21.5t66 21.5t53 57.5l32 -22q-8 -23 -22 -47t-33.5 -43.5t-43 -32t-50.5 -12.5z" />
    <glyph glyph-name="dotaccent" unicode="&#x2d9;" horiz-adv-x="284" 
d="M204 644q0 -26 -18 -44.5t-44 -18.5t-44 18.5t-18 44.5t18 44.5t44 18.5t44 -18.5t18 -44.5z" />
    <glyph glyph-name="ring" unicode="&#x2da;" horiz-adv-x="363" 
d="M181 560q-45 0 -73 29t-28 73t28 73t73 29t73.5 -29t28.5 -73t-28.5 -73t-73.5 -29zM181 729q-28 0 -44.5 -19.5t-16.5 -48.5q0 -27 16.5 -46t44.5 -19q29 0 45.5 19t16.5 46q0 29 -16.5 48.5t-45.5 19.5z" />
    <glyph glyph-name="ogonek" unicode="&#x2db;" horiz-adv-x="288" 
d="M240 -168q-18 -17 -40.5 -27t-54.5 -10q-48 0 -73 24t-25 62q0 44 33 78.5t94 59.5l21 -16q-41 -23 -54.5 -51t-13.5 -57q0 -23 12 -37.5t32 -14.5q14 0 25 2.5t28 10.5z" />
    <glyph glyph-name="tilde" unicode="&#x2dc;" horiz-adv-x="482" 
d="M301 669q24 0 39.5 11t26.5 31l35 -15q-6 -19 -15 -37t-21.5 -32.5t-28.5 -23t-36 -8.5t-37 4.5t-32 10t-28.5 10t-26.5 4.5q-26 0 -39.5 -12t-24.5 -32l-33 14q4 21 12.5 40t20.5 33.5t28 23.5t36 9t36.5 -5t30.5 -10.5t28 -10.5t29 -5z" />
    <glyph glyph-name="hungarumlaut" unicode="&#x2dd;" horiz-adv-x="499" 
d="M122 563l-42 18l70 225l85 -36zM274 557l-37 26l104 208l78 -51z" />
    <glyph glyph-name="gravecomb" unicode="&#x300;" 
d="M-183 566l-212 96l53 91l179 -153z" />
    <glyph glyph-name="acutecomb" unicode="&#x301;" 
d="M-381 600l179 153l53 -91l-212 -96z" />
    <glyph glyph-name="uni0302" unicode="&#x302;" 
d="M-266 649l-137 -85l-25 30l162 153l162 -153l-25 -30z" />
    <glyph glyph-name="tildecomb" unicode="&#x303;" 
d="M-202 669q24 0 39.5 11t26.5 31l35 -15q-6 -19 -15 -37t-21.5 -32.5t-28.5 -23t-36 -8.5t-37 4.5t-32 10t-28.5 10t-26.5 4.5q-26 0 -39.5 -12t-24.5 -32l-33 14q4 21 12.5 40t20.5 33.5t28 23.5t36 9t36.5 -5t30.5 -10.5t28 -10.5t29 -5z" />
    <glyph glyph-name="uni0304" unicode="&#x304;" 
d="M-360 616v57h281v-57h-281z" />
    <glyph glyph-name="uni0306" unicode="&#x306;" 
d="M-228 547q-27 0 -51 12.5t-44 32t-34.5 43.5t-22.5 47l31 22q24 -36 52.5 -57.5t66.5 -21.5t66 21.5t53 57.5l32 -22q-8 -23 -22 -47t-33.5 -43.5t-43 -32t-50.5 -12.5z" />
    <glyph glyph-name="uni0307" unicode="&#x307;" 
d="M-85 644q0 -26 -18 -44.5t-44 -18.5t-44 18.5t-18 44.5t18 44.5t44 18.5t44 -18.5t18 -44.5z" />
    <glyph glyph-name="uni0308" unicode="&#x308;" 
d="M-288 638q0 -26 -17 -43t-43 -17t-43 17t-17 43t17 43t43 17t43 -17t17 -43zM-79 638q0 -26 -17 -43t-43 -17t-43 17t-17 43t17 43t43 17t43 -17t17 -43z" />
    <glyph glyph-name="uni030A" unicode="&#x30a;" 
d="M-181 560q-45 0 -73 29t-28 73t28 73t73 29t73.5 -29t28.5 -73t-28.5 -73t-73.5 -29zM-181 729q-28 0 -44.5 -19.5t-16.5 -48.5q0 -27 16.5 -46t44.5 -19q29 0 45.5 19t16.5 46q0 29 -16.5 48.5t-45.5 19.5z" />
    <glyph glyph-name="uni030B" unicode="&#x30b;" 
d="M-376 572l-42 18l70 225l85 -36zM-224 566l-37 26l104 208l78 -51z" />
    <glyph glyph-name="uni030C" unicode="&#x30c;" 
d="M-70 730l25 -30l-162 -153l-162 153l25 30l137 -85z" />
    <glyph glyph-name="uni0312" unicode="&#x312;" 
d="M-232 645q0 47 32 84.5t95 50.5l19 -27q-41 -13 -54 -27t-13 -31q0 -10 6.5 -15.5t20.5 -10.5q13 -5 22 -16t9 -32q0 -23 -18 -39t-47 -16q-35 0 -53.5 22t-18.5 57z" />
    <glyph glyph-name="uni0313" unicode="&#x313;" 
d="M-150 527l-44 11l15 192l91 -15z" />
    <glyph glyph-name="dotbelowcomb" unicode="&#x323;" 
d="M200 -116q0 -26 -18 -44.5t-44 -18.5t-44 18.5t-18 44.5t18 44.5t44 18.5t44 -18.5t18 -44.5z" />
    <glyph glyph-name="uni0326" unicode="&#x326;" 
d="M218 -141q0 -47 -32 -84.5t-95 -50.5l-19 27q41 13 54 27t13 31q0 10 -6.5 15.5t-20.5 10.5q-13 5 -22 16t-9 32q0 23 18 39t47 16q35 0 53.5 -22t18.5 -57z" />
    <glyph glyph-name="uni0327" unicode="&#x327;" 
d="M-54 -113q0 -85 -99 -85q-29 0 -48 7.5t-33 17.5l16 32q17 -11 31 -14.5t31 -3.5t28.5 6.5t11.5 29.5q0 10 -6 16t-16 10t-22.5 5.5t-25.5 1.5v21l23 80l37 -6l-13 -44q47 -3 66 -25t19 -49z" />
    <glyph glyph-name="uni0328" unicode="&#x328;" 
d="M-47 -161q-18 -17 -40.5 -27t-54.5 -10q-48 0 -73 24t-25 62q0 44 33 78.5t94 59.5l21 -16q-41 -23 -54.5 -51t-13.5 -57q0 -23 12 -37.5t32 -14.5q14 0 25 2.5t28 10.5z" />
    <glyph glyph-name="uni0335" unicode="&#x335;" 
d="M-360 217v57h281v-57h-281z" />
    <glyph glyph-name="uni0336" unicode="&#x336;" 
d="M-759 220v51h705v-51h-705z" />
    <glyph glyph-name="uni037E" unicode="&#x37e;" horiz-adv-x="327" 
d="M238 31q0 -29 -10.5 -56.5t-29 -50.5t-45 -40.5t-58.5 -26.5l-20 31q44 17 66 39t22 44q0 14 -10 19.5t-26 13.5q-14 6 -28 19t-14 39q0 29 20.5 49.5t51.5 20.5q35 0 58 -28t23 -73zM227 373q0 -31 -20 -52t-51 -21t-51 21t-20 52t20 52t51 21t51 -21t20 -52z" />
    <glyph glyph-name="uni0394" unicode="&#x394;" horiz-adv-x="573" 
d="M446 54l-148 432q-3 10 -8 25t-9.5 31.5t-8.5 32t-6 27.5h-4q-5 -23 -15 -57t-19 -61l-149 -430h367zM12 0v35l226 654h87l230 -654v-35h-543z" />
    <glyph glyph-name="uni03A9" unicode="&#x3a9;" horiz-adv-x="700" 
d="M350 656q-50 0 -85.5 -19.5t-58.5 -55t-33.5 -86t-10.5 -111.5q0 -107 34 -184t115 -136v-64h-260l-13 151h40q6 -26 12 -41t17 -22.5t28.5 -10t46.5 -2.5h53q-34 25 -65.5 55.5t-56 68t-39 83.5t-14.5 101q0 66 20 124t57.5 101t91 68t121.5 25q67 0 121 -25t91.5 -68
t57.5 -101t20 -124q0 -55 -14.5 -101t-39 -83.5t-56 -68t-65.5 -55.5h53q29 0 46.5 2.5t28.5 10t17 22.5t12 41h40l-13 -151h-260v64q81 59 115 136t34 184q0 61 -10.5 111.5t-33 86t-58 55t-86.5 19.5z" />
    <glyph glyph-name="uni03BC" unicode="&#x3bc;" horiz-adv-x="541" 
d="M44 -176q8 42 10.5 84.5t2.5 96.5v157q-1 95 -2 179.5t-4 145.5l76 14h22v-46q0 -36 -0.5 -85t-0.5 -103v-98q0 -38 6.5 -60t17 -33.5t24 -15t28.5 -3.5q35 0 70.5 18.5t60.5 45.5v368l68 12h23v-379q0 -34 8.5 -54t41.5 -20q8 0 14 0.5t17 2.5v-38q-17 -10 -37.5 -16
t-45.5 -6q-36 0 -56 22t-28 59q-26 -34 -64 -59.5t-84 -25.5q-18 0 -39 6.5t-32 20.5l-4 -2q3 -11 4.5 -26.5t2.5 -32.5t1.5 -32.5t0.5 -24.5l1 -81l-99 -14z" />
    <glyph glyph-name="pi" unicode="&#x3c0;" horiz-adv-x="571" 
d="M450 -9q-26 0 -43 11t-27.5 29.5t-15 44.5t-4.5 56v82q0 48 1.5 96.5t4.5 108.5h-168q-2 -54 -4.5 -111.5t-7.5 -112t-13.5 -105t-22.5 -90.5h-99l-2 16q16 22 30.5 52.5t26.5 77t21 112.5t15 161q-38 -3 -59 -17.5t-43 -40.5l-28 22q11 31 26 52.5t35 35t47.5 19.5
t64.5 6h225q37 0 61.5 1.5t50.5 7.5h21l-7 -75q-15 -5 -35.5 -7t-48.5 -4v-287q0 -17 1.5 -32t7 -26.5t15 -18t25.5 -6.5q9 0 16.5 1t18.5 3v-39q-17 -10 -38.5 -16.5t-47.5 -6.5z" />
    <glyph glyph-name="uni2007" unicode="&#x2007;" horiz-adv-x="570" 
 />
    <glyph glyph-name="uni2008" unicode="&#x2008;" horiz-adv-x="272" 
 />
    <glyph glyph-name="uni200B" unicode="&#x200b;" horiz-adv-x="0" 
 />
    <glyph glyph-name="endash" unicode="&#x2013;" horiz-adv-x="591" 
d="M55 252v51h481v-51h-481z" />
    <glyph glyph-name="emdash" unicode="&#x2014;" horiz-adv-x="815" 
d="M55 252v51h705v-51h-705z" />
    <glyph glyph-name="quoteleft" unicode="&#x2018;" horiz-adv-x="267" 
d="M59 537q0 58 35.5 104t98.5 64l21 -29q-43 -17 -62 -37.5t-19 -42.5q0 -12 7.5 -18t27.5 -14q12 -5 26.5 -18t14.5 -39q0 -29 -20 -49t-51 -20q-35 0 -57 27.5t-22 71.5z" />
    <glyph glyph-name="quoteright" unicode="&#x2019;" horiz-adv-x="267" 
d="M208 605q0 -58 -35.5 -104t-98.5 -64l-21 29q43 17 62 37.5t19 42.5q0 13 -8 19t-22 11q-17 6 -31.5 19.5t-14.5 39.5q0 29 20 49t51 20q35 0 57 -27.5t22 -71.5z" />
    <glyph glyph-name="quotesinglbase" unicode="&#x201a;" horiz-adv-x="267" 
d="M208 37q0 -58 -35.5 -104t-98.5 -64l-21 29q43 17 62 37.5t19 42.5q0 11 -6.5 17t-23.5 13t-31.5 20t-14.5 39q0 29 20 49t51 20q35 0 57 -27.5t22 -71.5z" />
    <glyph glyph-name="quotedblleft" unicode="&#x201c;" horiz-adv-x="475" 
d="M59 537q0 58 35.5 104t98.5 64l21 -29q-43 -17 -62 -37.5t-19 -42.5q0 -12 7.5 -18t27.5 -14q12 -5 26.5 -18t14.5 -39q0 -29 -20 -49t-51 -20q-35 0 -57 27.5t-22 71.5zM267 537q0 58 35.5 104t98.5 64l21 -29q-43 -17 -62 -37.5t-19 -42.5q0 -12 7.5 -18t27.5 -14
q12 -5 26.5 -18t14.5 -39q0 -29 -20 -49t-51 -20q-35 0 -57 27.5t-22 71.5z" />
    <glyph glyph-name="quotedblright" unicode="&#x201d;" horiz-adv-x="475" 
d="M416 605q0 -58 -35.5 -104t-98.5 -64l-21 29q43 17 62 37.5t19 42.5q0 13 -8 19t-22 11q-17 6 -31.5 19.5t-14.5 39.5q0 29 20 49t51 20q35 0 57 -27.5t22 -71.5zM208 605q0 -58 -35.5 -104t-98.5 -64l-21 29q43 17 62 37.5t19 42.5q0 13 -8 19t-22 11q-17 6 -31.5 19.5
t-14.5 39.5q0 29 20 49t51 20q35 0 57 -27.5t22 -71.5z" />
    <glyph glyph-name="quotedblbase" unicode="&#x201e;" horiz-adv-x="475" 
d="M416 37q0 -58 -35.5 -104t-98.5 -64l-21 29q43 17 62 37.5t19 42.5q0 11 -6.5 17t-23.5 13t-31.5 20t-14.5 39q0 29 20 49t51 20q35 0 57 -27.5t22 -71.5zM208 37q0 -58 -35.5 -104t-98.5 -64l-21 29q43 17 62 37.5t19 42.5q0 11 -6.5 17t-23.5 13t-31.5 20t-14.5 39
q0 29 20 49t51 20q35 0 57 -27.5t22 -71.5z" />
    <glyph glyph-name="dagger" unicode="&#x2020;" horiz-adv-x="431" 
d="M163 451q-28 0 -46 -0.5t-30.5 -2t-20.5 -3.5l-16 -4h-20v73h20l16 -4q8 -2 20.5 -3.5t30.5 -2t46 -0.5h22v52q0 28 -0.5 46t-2 30.5t-3.5 20.5l-4 16v20h81v-20l-4 -16q-2 -8 -3.5 -20.5t-2 -30.5t-0.5 -46v-52h22q28 0 46 0.5t30.5 2t20.5 3.5l16 4h20v-73h-20l-16 4
q-8 2 -20.5 3.5t-30.5 2t-46 0.5h-22v-248q0 -78 -4 -124.5t-10 -78.5h-33q-7 32 -10.5 78.5t-3.5 124.5v248h-22z" />
    <glyph glyph-name="daggerdbl" unicode="&#x2021;" horiz-adv-x="431" 
d="M246 248h22q28 0 46 0.5t30.5 2t20.5 3.5l16 4h20v-73h-20l-16 4q-8 2 -20.5 3.5t-30.5 2t-46 0.5h-22v-62q0 -28 0.5 -46t2 -30.5t3.5 -20.5l4 -16v-20h-81v20l4 16q2 8 3.5 20.5t2 30.5t0.5 46v62h-22q-28 0 -46 -0.5t-30.5 -2t-20.5 -3.5l-16 -4h-20v73h20l16 -4
q8 -2 20.5 -3.5t30.5 -2t46 -0.5h22v193h-22q-28 0 -46 -0.5t-30.5 -2t-20.5 -3.5l-16 -4h-20v73h20l16 -4q8 -2 20.5 -3.5t30.5 -2t46 -0.5h22v62q0 28 -0.5 46t-2 30.5t-3.5 20.5l-4 16v20h81v-20l-4 -16q-2 -8 -3.5 -20.5t-2 -30.5t-0.5 -46v-62h22q28 0 46 0.5t30.5 2
t20.5 3.5l16 4h20v-73h-20l-16 4q-8 2 -20.5 3.5t-30.5 2t-46 0.5h-22v-193z" />
    <glyph glyph-name="bullet" unicode="&#x2022;" horiz-adv-x="517" 
d="M432 335q0 -37 -13.5 -69t-37.5 -56t-55.5 -38t-67.5 -14t-67.5 14t-55 38t-37 56t-13.5 69t13.5 69t37 56t55 38t67.5 14t67.5 -14t55.5 -38t37.5 -56t13.5 -69z" />
    <glyph glyph-name="ellipsis" unicode="&#x2026;" horiz-adv-x="768" 
d="M218 63q0 -32 -21 -54.5t-50 -22.5q-30 0 -51 22.5t-21 54.5q0 31 20.5 52t49.5 21q30 0 51.5 -21t21.5 -52zM455 63q0 -32 -21 -54.5t-50 -22.5q-30 0 -50.5 22.5t-20.5 54.5q0 31 20 52t49 21q31 0 52 -21t21 -52zM693 63q0 -16 -6 -30t-15.5 -24.5t-22.5 -16.5t-28 -6
q-30 0 -50.5 22.5t-20.5 54.5q0 31 20.5 52t49.5 21q30 0 51.5 -21t21.5 -52z" />
    <glyph glyph-name="perthousand" unicode="&#x2030;" horiz-adv-x="1263" 
d="M342 442q0 -47 -12 -84t-33.5 -63t-50 -40t-61.5 -14q-32 0 -60.5 14t-49.5 40.5t-33 64t-12 85.5q0 47 12 85t33 65t49 41.5t60 14.5q36 0 65.5 -16t50 -44.5t31.5 -66.5t11 -82zM262 437q0 93 -21 135t-55 42q-41 0 -57.5 -39.5t-16.5 -120.5q0 -95 18 -136t56 -41
q35 0 55.5 38.5t20.5 121.5zM222 -123h-53l487 853h54zM861 192q0 -47 -12 -84t-33.5 -63t-50 -40t-61.5 -14q-32 0 -60.5 14t-49.5 40.5t-33 64t-12 85.5q0 47 12 85t33 65t49 41.5t60 14.5q36 0 65.5 -16t50 -44.5t31.5 -66.5t11 -82zM781 187q0 93 -21 135t-55 42
q-41 0 -57.5 -39.5t-16.5 -120.5q0 -95 18 -136t56 -41q35 0 55.5 38.5t20.5 121.5zM1233 192q0 -47 -12 -84t-33.5 -63t-50 -40t-61.5 -14q-32 0 -60.5 14t-49.5 40.5t-33 64t-12 85.5q0 47 12 85t33 65t49 41.5t60 14.5q36 0 65.5 -16t50 -44.5t31.5 -66.5t11 -82z
M1153 187q0 93 -21 135t-55 42q-41 0 -57.5 -39.5t-16.5 -120.5q0 -95 18 -136t56 -41q35 0 55.5 38.5t20.5 121.5z" />
    <glyph glyph-name="guilsinglleft" unicode="&#x2039;" horiz-adv-x="309" 
d="M264 67l-39 -36l-170 213l170 213l39 -36l-113 -177z" />
    <glyph glyph-name="guilsinglright" unicode="&#x203a;" horiz-adv-x="309" 
d="M158 244l-113 177l39 36l170 -213l-170 -213l-39 36z" />
    <glyph glyph-name="fraction" unicode="&#x2044;" horiz-adv-x="287" 
d="M-75 -123h-54l487 853h54z" />
    <glyph glyph-name="uni2070" unicode="&#x2070;" horiz-adv-x="387" 
d="M356 442q0 -47 -12.5 -84t-35 -63t-52.5 -40t-64 -14q-33 0 -62.5 14t-51.5 40.5t-34.5 64t-12.5 85.5q0 47 12.5 85t34.5 65t51 41.5t62 14.5q38 0 68.5 -16t52 -44.5t33 -66.5t11.5 -82zM272 437q0 94 -22 135.5t-57 41.5q-42 0 -59.5 -39.5t-17.5 -120.5
q0 -96 18.5 -136.5t58.5 -40.5q37 0 58 38.5t21 121.5z" />
    <glyph glyph-name="uni2074" unicode="&#x2074;" horiz-adv-x="363" 
d="M202 341h-192v25l142 278h76l-154 -267h128q0 52 6 88t18 72l54 10v-170h52v-36h-52v-101l-78 -11v112z" />
    <glyph glyph-name="uni2075" unicode="&#x2075;" horiz-adv-x="320" 
d="M279 373q0 -36 -14.5 -63t-39 -45t-57.5 -27t-70 -9q-29 0 -46 3t-34 8l-8 33q17 -4 33.5 -6t38.5 -2q50 0 83 23t33 78q0 38 -17.5 56.5t-59.5 18.5q-25 0 -43 -4t-37 -11l22 218h207l-10 -57h-159l-12 -111q14 3 29 5t29 2q63 0 97.5 -28t34.5 -82z" />
    <glyph glyph-name="uni2076" unicode="&#x2076;" horiz-adv-x="354" 
d="M290 642q-38 -14 -68 -29t-52.5 -36t-37 -48.5t-20.5 -65.5q17 14 38.5 22t48.5 8q57 0 93 -31.5t36 -88.5q0 -29 -11 -53.5t-30 -42t-46 -27.5t-58 -10q-32 0 -59.5 11t-48 32.5t-32.5 52t-12 69.5q0 58 20.5 102.5t55 77t79.5 54t94 33.5zM181 453q-20 0 -37.5 -7.5
t-32.5 -18.5q-1 -6 -1 -13v-13q0 -69 19.5 -97t53.5 -28q32 0 50.5 23t18.5 74q0 24 -6 39.5t-15.5 24.5t-22.5 12.5t-27 3.5z" />
    <glyph glyph-name="uni2077" unicode="&#x2077;" horiz-adv-x="318" 
d="M294 605q-54 -70 -97 -163.5t-63 -193.5l-87 -16q12 47 33 95.5t46.5 94.5t54 87.5t55.5 76.5h-220l10 58h277z" />
    <glyph glyph-name="uni2078" unicode="&#x2078;" horiz-adv-x="348" 
d="M21 347q0 19 8 35t21.5 28.5t31 22.5t36.5 17q-38 19 -57 41t-19 57q0 23 11 42t29.5 32.5t42.5 21t51 7.5q60 0 96.5 -26t36.5 -68q0 -34 -26.5 -54.5t-59.5 -31.5q20 -8 39 -18.5t33.5 -25t23.5 -32.5t9 -42q0 -26 -12 -47t-32.5 -35.5t-48.5 -22.5t-61 -8
q-75 0 -114 31t-39 76zM260 343q0 16 -8 29t-22 23.5t-35 20.5t-46 21q-26 -16 -41 -36t-15 -49q0 -76 83 -76q39 0 61.5 18t22.5 49zM115 561q0 -14 4 -23t13 -17t24 -16t36 -19q18 12 31.5 28.5t13.5 45.5q0 25 -15.5 41t-45.5 16q-29 0 -45 -16.5t-16 -39.5z" />
    <glyph glyph-name="uni2079" unicode="&#x2079;" horiz-adv-x="354" 
d="M46 245q37 13 70 29.5t59 38t43 49.5t23 66q-17 -14 -38.5 -22t-47.5 -8q-57 0 -93 31.5t-36 88.5q0 29 10.5 53.5t30 42t46 27.5t58.5 10q70 0 110.5 -43.5t40.5 -121.5q0 -58 -20.5 -102.5t-55 -77t-79 -54t-93.5 -33.5zM173 438q20 0 37.5 7.5t31.5 18.5q1 6 1 12v14
q0 71 -19.5 98t-52.5 27q-32 0 -50.5 -23t-18.5 -74q0 -24 5.5 -39.5t15.5 -24.5t22.5 -12.5t27.5 -3.5z" />
    <glyph glyph-name="uni2080" unicode="&#x2080;" horiz-adv-x="387" 
d="M356 35q0 -47 -12.5 -84t-35 -63t-52.5 -40t-64 -14q-33 0 -62.5 14t-51.5 40.5t-34.5 64t-12.5 85.5q0 47 12.5 85t34.5 65t51 41.5t62 14.5q38 0 68.5 -16t52 -44.5t33 -66.5t11.5 -82zM272 30q0 94 -22 135.5t-57 41.5q-42 0 -59.5 -39.5t-17.5 -120.5
q0 -96 18.5 -136.5t58.5 -40.5q37 0 58 38.5t21 121.5z" />
    <glyph glyph-name="uni2081" unicode="&#x2081;" horiz-adv-x="314" 
d="M208 -86q0 -14 3.5 -21.5t13 -12t26 -6t42.5 -2.5v-29h-248v29q26 1 42.5 2.5t26 5.5t13 12t3.5 22v257q-20 -10 -45 -19.5t-45 -15.5l-9 28l120 73h57v-323z" />
    <glyph glyph-name="uni2082" unicode="&#x2082;" horiz-adv-x="333" 
d="M153 244q56 0 93 -28t37 -82q0 -29 -12.5 -53.5t-34.5 -48t-50.5 -47.5t-59.5 -51l-38 -33h214l-10 -58h-271v41l78 80q24 25 42 44.5t30.5 38.5t19 38t6.5 43q0 35 -18.5 52t-50.5 17q-24 0 -44.5 -8t-39.5 -22l-18 26q23 22 53 36.5t74 14.5z" />
    <glyph glyph-name="uni2083" unicode="&#x2083;" horiz-adv-x="321" 
d="M138 198q-29 0 -49.5 -8.5t-36.5 -19.5l-19 30q26 20 56.5 32t70.5 12q52 0 86.5 -23.5t34.5 -70.5q0 -39 -26 -62t-66 -33q48 -5 74.5 -32t26.5 -66q0 -33 -15.5 -58t-41.5 -42t-60 -25.5t-71 -8.5q-46 0 -76 9l-10 33q13 -3 30.5 -4.5t29.5 -1.5q56 0 93.5 26.5
t37.5 74.5q0 41 -20 56t-56 15q-12 0 -18.5 -0.5t-14.5 -1.5v43q8 -1 15 -1h16q34 0 54 15.5t20 50.5q0 30 -17.5 45.5t-47.5 15.5z" />
    <glyph glyph-name="uni2084" unicode="&#x2084;" horiz-adv-x="363" 
d="M202 -66h-192v25l142 278h76l-154 -267h128q0 52 6 88t18 72l54 10v-170h52v-36h-52v-101l-78 -11v112z" />
    <glyph glyph-name="uni2085" unicode="&#x2085;" horiz-adv-x="320" 
d="M279 -34q0 -36 -14.5 -63t-39 -45t-57.5 -27t-70 -9q-29 0 -46 3t-34 8l-8 33q17 -4 33.5 -6t38.5 -2q50 0 83 23t33 78q0 38 -17.5 56.5t-59.5 18.5q-25 0 -43 -4t-37 -11l22 218h207l-10 -57h-159l-12 -111q14 3 29 5t29 2q63 0 97.5 -28t34.5 -82z" />
    <glyph glyph-name="uni2086" unicode="&#x2086;" horiz-adv-x="354" 
d="M290 235q-38 -14 -68 -29t-52.5 -36t-37 -48.5t-20.5 -65.5q17 14 38.5 22t48.5 8q57 0 93 -31.5t36 -88.5q0 -29 -11 -53.5t-30 -42t-46 -27.5t-58 -10q-32 0 -59.5 11t-48 32.5t-32.5 52t-12 69.5q0 58 20.5 102.5t55 77t79.5 54t94 33.5zM181 46q-20 0 -37.5 -7.5
t-32.5 -18.5q-1 -6 -1 -13v-13q0 -69 19.5 -97t53.5 -28q32 0 50.5 23t18.5 74q0 24 -6 39.5t-15.5 24.5t-22.5 12.5t-27 3.5z" />
    <glyph glyph-name="uni2087" unicode="&#x2087;" horiz-adv-x="318" 
d="M294 198q-54 -70 -97 -163.5t-63 -193.5l-87 -16q12 47 33 95.5t46.5 94.5t54 87.5t55.5 76.5h-220l10 58h277z" />
    <glyph glyph-name="uni2088" unicode="&#x2088;" horiz-adv-x="348" 
d="M21 -60q0 19 8 35t21.5 28.5t31 22.5t36.5 17q-38 19 -57 41t-19 57q0 23 11 42t29.5 32.5t42.5 21t51 7.5q60 0 96.5 -26t36.5 -68q0 -34 -26.5 -54.5t-59.5 -31.5q20 -8 39 -18.5t33.5 -25t23.5 -32.5t9 -42q0 -26 -12 -47t-32.5 -35.5t-48.5 -22.5t-61 -8
q-75 0 -114 31t-39 76zM260 -64q0 16 -8 29t-22 23.5t-35 20.5t-46 21q-26 -16 -41 -36t-15 -49q0 -76 83 -76q39 0 61.5 18t22.5 49zM115 154q0 -14 4 -23t13 -17t24 -16t36 -19q18 12 31.5 28.5t13.5 45.5q0 25 -15.5 41t-45.5 16q-29 0 -45 -16.5t-16 -39.5z" />
    <glyph glyph-name="uni2089" unicode="&#x2089;" horiz-adv-x="354" 
d="M46 -162q37 13 70 29.5t59 38t43 49.5t23 66q-17 -14 -38.5 -22t-47.5 -8q-57 0 -93 31.5t-36 88.5q0 29 10.5 53.5t30 42t46 27.5t58.5 10q70 0 110.5 -43.5t40.5 -121.5q0 -58 -20.5 -102.5t-55 -77t-79 -54t-93.5 -33.5zM173 31q20 0 37.5 7.5t31.5 18.5q1 6 1 12v14
q0 71 -19.5 98t-52.5 27q-32 0 -50.5 -23t-18.5 -74q0 -24 5.5 -39.5t15.5 -24.5t22.5 -12.5t27.5 -3.5z" />
    <glyph glyph-name="Euro" unicode="&#x20ac;" horiz-adv-x="570" 
d="M195 253q6 -63 20 -105t36.5 -67t53.5 -35t69 -10q57 0 83 24.5t37 83.5h67v-105q-26 -19 -70.5 -34.5t-116.5 -15.5q-130 0 -200 70.5t-87 193.5h-92v44h88q-1 10 -1 20v42q0 10 1 21h-88v44h93q19 134 93 205.5t186 71.5q39 0 68.5 -3.5t52 -10t39 -15t29.5 -18.5v-112
h-72q-7 29 -15.5 50t-22 35t-33.5 20.5t-50 6.5q-36 0 -65 -12.5t-50 -39.5t-34.5 -71t-18.5 -107h264v-44h-267v-47q0 -20 1 -36h266v-44h-264z" />
    <glyph glyph-name="uni20B4" unicode="&#x20b4;" horiz-adv-x="570" 
d="M224 268q-29 -20 -44 -47t-15 -66q0 -52 33 -86t96 -34q60 0 94.5 28.5t45.5 76.5h62v-100q-49 -29 -103 -40.5t-111 -11.5q-108 0 -161 43.5t-53 113.5q0 38 18 70.5t44 52.5h-90v39h149l92 68h-241v39h298q28 18 50.5 47t22.5 66q0 50 -28.5 71.5t-79.5 21.5
q-63 0 -91.5 -25t-37.5 -73h-65v97q38 18 89 33.5t108 15.5q54 0 93 -10t64 -28.5t36.5 -44t11.5 -56.5t-18.5 -61t-56.5 -54h93v-39h-162l-89 -68h251v-39h-305z" />
    <glyph glyph-name="afii61352" unicode="&#x2116;" horiz-adv-x="1082" 
d="M516 578q0 21 -3 35.5t-12 23t-24.5 12.5t-40.5 5v35h219v-35q-23 -1 -37 -5t-22 -12.5t-10.5 -23t-2.5 -35.5v-578h-71l-250 408q-42 67 -59.5 108.5t-24.5 61.5h-6q3 -20 7.5 -65.5t4.5 -118.5v-283q0 -21 3 -35.5t12 -23t24.5 -12.5t40.5 -5v-35h-227v35q25 1 40.5 5
t24.5 12.5t12 23t3 35.5v467q0 21 -3 35.5t-12 23t-24.5 12.5t-40.5 5v35h162l255 -418q11 -18 21.5 -38.5t19.5 -40t16 -37t11 -29.5h6q-2 11 -4 32t-4 49t-3 60t-1 66v245zM1042 201h-367v53h367v-53zM861 348q48 0 71.5 38.5t23.5 110.5q0 86 -24.5 124.5t-72.5 38.5
q-54 0 -74.5 -39.5t-20.5 -108.5q0 -85 22 -124.5t75 -39.5zM858 307q-39 0 -71.5 13.5t-56 38.5t-37 61.5t-13.5 82.5t13.5 83t37 62.5t56 39t70.5 13.5q43 0 76.5 -15t56.5 -42t35 -64t12 -80q0 -45 -13.5 -81t-37.5 -61t-56.5 -38t-71.5 -13z" />
    <glyph glyph-name="uni2117" unicode="&#x2117;" horiz-adv-x="800" 
d="M400 31q63 0 118 22t95.5 62.5t64 98.5t23.5 129q0 73 -23.5 131t-64 98.5t-95.5 62.5t-118 22t-118 -22t-95.5 -62.5t-64 -98.5t-23.5 -131q0 -71 23.5 -129t64 -98.5t95.5 -62.5t118 -22zM408 555q41 0 73 -5t54 -19.5t33.5 -39.5t11.5 -64q0 -41 -12 -66.5t-33 -40.5
t-49 -20.5t-59 -5.5h-53v-72q0 -18 3 -29.5t10.5 -17.5t20 -8t30.5 -2v-29h-192v29q18 0 29 3t16.5 9t7 17t1.5 28v242q0 17 -1.5 28t-7 18t-16.5 10t-29 4v31h162zM502 425q0 27 -4.5 44.5t-16 28t-30.5 15t-48 4.5h-29v-185h42q48 0 67 19.5t19 73.5zM400 -12
q-76 0 -141 25t-113 71.5t-75 112.5t-27 147q0 80 28 146t76.5 113t113 72.5t138.5 25.5q73 0 138 -25.5t113.5 -72.5t76.5 -113t28 -146q0 -81 -27 -147t-75 -112.5t-113 -71.5t-141 -25z" />
    <glyph glyph-name="trademark" unicode="&#x2122;" horiz-adv-x="1039" 
d="M960 654q-32 -2 -42.5 -11.5t-10.5 -31.5v-8q0 -3 1 -9l15 -195q2 -23 6.5 -37.5t13 -23t20 -12t26.5 -4.5v-30h-191v30q29 2 43 11.5t14 44.5v5q0 4 -1 15l-10 128q-1 11 -1 21v49q0 9 1 17h-5q-3 -14 -9 -38t-15 -50l-83 -233h-52l-76 233q-7 22 -13.5 48t-9.5 40h-6
q0 -14 -0.5 -35.5t-2.5 -53.5l-8 -126q-2 -23 0 -37.5t8 -22.5t18 -11t30 -4v-31h-168v31q15 1 26 3.5t18.5 10.5t11.5 22t6 38l14 198q2 33 -7.5 45.5t-45.5 14.5v34h149l74 -225q11 -32 14.5 -55.5t4.5 -34.5h5q2 10 4.5 29t16.5 60l77 226h140v-35zM178 647
q-25 0 -40.5 -5t-25 -17t-14 -32t-7.5 -51h-41v147h357l8 -147h-41q-6 32 -13 52.5t-16.5 32t-24 16t-35.5 4.5h-15v-246q0 -21 2.5 -35.5t10.5 -23t23 -12.5t40 -5v-33h-224v33q25 1 40 5t23 12.5t10.5 23t2.5 35.5v246h-20z" />
    <glyph glyph-name="Omega" unicode="&#x2126;" horiz-adv-x="700" 
d="M350 656q-50 0 -85.5 -19.5t-58.5 -55t-33.5 -86t-10.5 -111.5q0 -107 34 -184t115 -136v-64h-260l-13 151h40q6 -26 12 -41t17 -22.5t28.5 -10t46.5 -2.5h53q-34 25 -65.5 55.5t-56 68t-39 83.5t-14.5 101q0 66 20 124t57.5 101t91 68t121.5 25q67 0 121 -25t91.5 -68
t57.5 -101t20 -124q0 -55 -14.5 -101t-39 -83.5t-56 -68t-65.5 -55.5h53q29 0 46.5 2.5t28.5 10t17 22.5t12 41h40l-13 -151h-260v64q81 59 115 136t34 184q0 61 -10.5 111.5t-33 86t-58 55t-86.5 19.5z" />
    <glyph glyph-name="estimated" unicode="&#x212e;" horiz-adv-x="945" 
d="M218 339v-218q16 -24 44.5 -42t63.5 -30t73.5 -18.5t73.5 -6.5t72.5 6t72 18.5t64.5 31t51 42.5h58q-55 -64 -134.5 -100.5t-184.5 -36.5q-86 0 -159.5 27t-127.5 75t-84.5 114.5t-30.5 145.5t31.5 146t86.5 116.5t128 77.5t156 28q80 0 153 -27.5t128.5 -77t88.5 -118.5
t33 -153h-657zM727 574q-42 46 -104 74t-150 28t-152.5 -27t-102.5 -74v-196h509v195z" />
    <glyph glyph-name="uni2150" unicode="&#x2150;" horiz-adv-x="926" 
d="M208 321q0 -14 3.5 -21.5t13 -12t26 -6t42.5 -2.5v-29h-248v29q26 1 42.5 2.5t26 5.5t13 12t3.5 22v257q-20 -10 -45 -19.5t-45 -15.5l-9 28l120 73h57v-323zM239 -123h-54l487 853h54zM885 355q-54 -70 -97 -163.5t-63 -193.5l-87 -16q12 47 33 95.5t46.5 94.5t54 87.5
t55.5 76.5h-220l10 58h277z" />
    <glyph glyph-name="uni2151" unicode="&#x2151;" horiz-adv-x="915" 
d="M607 -5q37 13 70 29.5t59 38t43 49.5t23 66q-17 -14 -38.5 -22t-47.5 -8q-57 0 -93 31.5t-36 88.5q0 29 10.5 53.5t30 42t46 27.5t58.5 10q70 0 110.5 -43.5t40.5 -121.5q0 -58 -20.5 -102.5t-55 -77t-79 -54t-93.5 -33.5zM734 188q20 0 37.5 7.5t31.5 18.5q1 6 1 12v14
q0 71 -19.5 98t-52.5 27q-32 0 -50.5 -23t-18.5 -74q0 -24 5.5 -39.5t15.5 -24.5t22.5 -12.5t27.5 -3.5zM208 321q0 -14 3.5 -21.5t13 -12t26 -6t42.5 -2.5v-29h-248v29q26 1 42.5 2.5t26 5.5t13 12t3.5 22v257q-20 -10 -45 -19.5t-45 -15.5l-9 28l120 73h57v-323zM239 -123
h-54l487 853h54z" />
    <glyph glyph-name="uni2152" unicode="&#x2152;" horiz-adv-x="1242" 
d="M208 321q0 -14 3.5 -21.5t13 -12t26 -6t42.5 -2.5v-29h-248v29q26 1 42.5 2.5t26 5.5t13 12t3.5 22v257q-20 -10 -45 -19.5t-45 -15.5l-9 28l120 73h57v-323zM239 -123h-54l487 853h54zM749 71q0 -14 3.5 -21.5t13 -12t26 -6t42.5 -2.5v-29h-248v29q26 1 42.5 2.5t26 5.5
t13 12t3.5 22v257q-20 -10 -45 -19.5t-45 -15.5l-9 28l120 73h57v-323zM1211 192q0 -47 -12.5 -84t-35 -63t-52.5 -40t-64 -14q-33 0 -62.5 14t-51.5 40.5t-34.5 64t-12.5 85.5q0 47 12.5 85t34.5 65t51 41.5t62 14.5q38 0 68.5 -16t52 -44.5t33 -66.5t11.5 -82zM1127 187
q0 94 -22 135.5t-57 41.5q-42 0 -59.5 -39.5t-17.5 -120.5q0 -96 18.5 -136.5t58.5 -40.5q37 0 58 38.5t21 121.5z" />
    <glyph glyph-name="onethird" unicode="&#x2153;" horiz-adv-x="922" 
d="M239 -123h-54l487 853h54zM208 321q0 -14 3.5 -21.5t13 -12t26 -6t42.5 -2.5v-29h-248v29q26 1 42.5 2.5t26 5.5t13 12t3.5 22v257q-20 -10 -45 -19.5t-45 -15.5l-9 28l120 73h57v-323zM739 355q-29 0 -49.5 -8.5t-36.5 -19.5l-19 30q26 20 56.5 32t70.5 12
q52 0 86.5 -23.5t34.5 -70.5q0 -39 -26 -62t-66 -33q48 -5 74.5 -32t26.5 -66q0 -33 -15.5 -58t-41.5 -42t-60 -25.5t-71 -8.5q-46 0 -76 9l-10 33q13 -3 30.5 -4.5t29.5 -1.5q56 0 93.5 26.5t37.5 74.5q0 41 -20 56t-56 15q-12 0 -18.5 -0.5t-14.5 -1.5v43q8 -1 15 -1h16
q34 0 54 15.5t20 50.5q0 30 -17.5 45.5t-47.5 15.5z" />
    <glyph glyph-name="twothirds" unicode="&#x2154;" horiz-adv-x="941" 
d="M153 651q56 0 93 -28t37 -82q0 -29 -12.5 -53.5t-34.5 -48t-50.5 -47.5t-59.5 -51l-38 -33h214l-10 -58h-271v41l78 80q24 25 42 44.5t30.5 38.5t19 38t6.5 43q0 35 -18.5 52t-50.5 17q-24 0 -44.5 -8t-39.5 -22l-18 26q23 22 53 36.5t74 14.5zM258 -123h-54l487 853h54z
M758 355q-29 0 -49.5 -8.5t-36.5 -19.5l-19 30q26 20 56.5 32t70.5 12q52 0 86.5 -23.5t34.5 -70.5q0 -39 -26 -62t-66 -33q48 -5 74.5 -32t26.5 -66q0 -33 -15.5 -58t-41.5 -42t-60 -25.5t-71 -8.5q-46 0 -76 9l-10 33q13 -3 30.5 -4.5t29.5 -1.5q56 0 93.5 26.5t37.5 74.5
q0 41 -20 56t-56 15q-12 0 -18.5 -0.5t-14.5 -1.5v43q8 -1 15 -1h16q34 0 54 15.5t20 50.5q0 30 -17.5 45.5t-47.5 15.5z" />
    <glyph glyph-name="uni2155" unicode="&#x2155;" horiz-adv-x="891" 
d="M850 123q0 -36 -14.5 -63t-39 -45t-57.5 -27t-70 -9q-29 0 -46 3t-34 8l-8 33q17 -4 33.5 -6t38.5 -2q50 0 83 23t33 78q0 38 -17.5 56.5t-59.5 18.5q-25 0 -43 -4t-37 -11l22 218h207l-10 -57h-159l-12 -111q14 3 29 5t29 2q63 0 97.5 -28t34.5 -82zM239 -123h-54
l487 853h54zM208 321q0 -14 3.5 -21.5t13 -12t26 -6t42.5 -2.5v-29h-248v29q26 1 42.5 2.5t26 5.5t13 12t3.5 22v257q-20 -10 -45 -19.5t-45 -15.5l-9 28l120 73h57v-323z" />
    <glyph glyph-name="uni2156" unicode="&#x2156;" horiz-adv-x="910" 
d="M153 651q56 0 93 -28t37 -82q0 -29 -12.5 -53.5t-34.5 -48t-50.5 -47.5t-59.5 -51l-38 -33h214l-10 -58h-271v41l78 80q24 25 42 44.5t30.5 38.5t19 38t6.5 43q0 35 -18.5 52t-50.5 17q-24 0 -44.5 -8t-39.5 -22l-18 26q23 22 53 36.5t74 14.5zM258 -123h-54l487 853h54z
M869 123q0 -36 -14.5 -63t-39 -45t-57.5 -27t-70 -9q-29 0 -46 3t-34 8l-8 33q17 -4 33.5 -6t38.5 -2q50 0 83 23t33 78q0 38 -17.5 56.5t-59.5 18.5q-25 0 -43 -4t-37 -11l22 218h207l-10 -57h-159l-12 -111q14 3 29 5t29 2q63 0 97.5 -28t34.5 -82z" />
    <glyph glyph-name="uni2157" unicode="&#x2157;" horiz-adv-x="848" 
d="M138 605q-29 0 -49.5 -8.5t-36.5 -19.5l-19 30q26 20 56.5 32t70.5 12q52 0 86.5 -23.5t34.5 -70.5q0 -39 -26 -62t-66 -33q48 -5 74.5 -32t26.5 -66q0 -33 -15.5 -58t-41.5 -42t-60 -25.5t-71 -8.5q-46 0 -76 9l-10 33q13 -3 30.5 -4.5t29.5 -1.5q56 0 93.5 26.5
t37.5 74.5q0 41 -20 56t-56 15q-12 0 -18.5 -0.5t-14.5 -1.5v43q8 -1 15 -1h16q34 0 54 15.5t20 50.5q0 30 -17.5 45.5t-47.5 15.5zM196 -123h-54l487 853h54zM807 123q0 -36 -14.5 -63t-39 -45t-57.5 -27t-70 -9q-29 0 -46 3t-34 8l-8 33q17 -4 33.5 -6t38.5 -2q50 0 83 23
t33 78q0 38 -17.5 56.5t-59.5 18.5q-25 0 -43 -4t-37 -11l22 218h207l-10 -57h-159l-12 -111q14 3 29 5t29 2q63 0 97.5 -28t34.5 -82z" />
    <glyph glyph-name="uni2158" unicode="&#x2158;" horiz-adv-x="900" 
d="M202 341h-192v25l142 278h76l-154 -267h128q0 52 6 88t18 72l54 10v-170h52v-36h-52v-101l-78 -11v112zM248 -123h-54l487 853h54zM859 123q0 -36 -14.5 -63t-39 -45t-57.5 -27t-70 -9q-29 0 -46 3t-34 8l-8 33q17 -4 33.5 -6t38.5 -2q50 0 83 23t33 78q0 38 -17.5 56.5
t-59.5 18.5q-25 0 -43 -4t-37 -11l22 218h207l-10 -57h-159l-12 -111q14 3 29 5t29 2q63 0 97.5 -28t34.5 -82z" />
    <glyph glyph-name="uni2159" unicode="&#x2159;" horiz-adv-x="895" 
d="M831 392q-38 -14 -68 -29t-52.5 -36t-37 -48.5t-20.5 -65.5q17 14 38.5 22t48.5 8q57 0 93 -31.5t36 -88.5q0 -29 -11 -53.5t-30 -42t-46 -27.5t-58 -10q-32 0 -59.5 11t-48 32.5t-32.5 52t-12 69.5q0 58 20.5 102.5t55 77t79.5 54t94 33.5zM722 203q-20 0 -37.5 -7.5
t-32.5 -18.5q-1 -6 -1 -13v-13q0 -69 19.5 -97t53.5 -28q32 0 50.5 23t18.5 74q0 24 -6 39.5t-15.5 24.5t-22.5 12.5t-27 3.5zM239 -123h-54l487 853h54zM208 321q0 -14 3.5 -21.5t13 -12t26 -6t42.5 -2.5v-29h-248v29q26 1 42.5 2.5t26 5.5t13 12t3.5 22v257
q-20 -10 -45 -19.5t-45 -15.5l-9 28l120 73h57v-323z" />
    <glyph glyph-name="uni215A" unicode="&#x215a;" horiz-adv-x="841" 
d="M279 373q0 -36 -14.5 -63t-39 -45t-57.5 -27t-70 -9q-29 0 -46 3t-34 8l-8 33q17 -4 33.5 -6t38.5 -2q50 0 83 23t33 78q0 38 -17.5 56.5t-59.5 18.5q-25 0 -43 -4t-37 -11l22 218h207l-10 -57h-159l-12 -111q14 3 29 5t29 2q63 0 97.5 -28t34.5 -82zM185 -123h-54
l487 853h54zM777 392q-38 -14 -68 -29t-52.5 -36t-37 -48.5t-20.5 -65.5q17 14 38.5 22t48.5 8q57 0 93 -31.5t36 -88.5q0 -29 -11 -53.5t-30 -42t-46 -27.5t-58 -10q-32 0 -59.5 11t-48 32.5t-32.5 52t-12 69.5q0 58 20.5 102.5t55 77t79.5 54t94 33.5zM668 203
q-20 0 -37.5 -7.5t-32.5 -18.5q-1 -6 -1 -13v-13q0 -69 19.5 -97t53.5 -28q32 0 50.5 23t18.5 74q0 24 -6 39.5t-15.5 24.5t-22.5 12.5t-27 3.5z" />
    <glyph glyph-name="oneeighth" unicode="&#x215b;" horiz-adv-x="949" 
d="M239 -123h-54l487 853h54zM208 321q0 -14 3.5 -21.5t13 -12t26 -6t42.5 -2.5v-29h-248v29q26 1 42.5 2.5t26 5.5t13 12t3.5 22v257q-20 -10 -45 -19.5t-45 -15.5l-9 28l120 73h57v-323zM622 97q0 19 8 35t21.5 28.5t31 22.5t36.5 17q-38 19 -57 41t-19 57q0 23 11 42
t29.5 32.5t42.5 21t51 7.5q60 0 96.5 -26t36.5 -68q0 -34 -26.5 -54.5t-59.5 -31.5q20 -8 39 -18.5t33.5 -25t23.5 -32.5t9 -42q0 -26 -12 -47t-32.5 -35.5t-48.5 -22.5t-61 -8q-75 0 -114 31t-39 76zM861 93q0 16 -8 29t-22 23.5t-35 20.5t-46 21q-26 -16 -41 -36t-15 -49
q0 -76 83 -76q39 0 61.5 18t22.5 49zM716 311q0 -14 4 -23t13 -17t24 -16t36 -19q18 12 31.5 28.5t13.5 45.5q0 25 -15.5 41t-45.5 16q-29 0 -45 -16.5t-16 -39.5z" />
    <glyph glyph-name="threeeighths" unicode="&#x215c;" horiz-adv-x="956" 
d="M138 605q-29 0 -49.5 -8.5t-36.5 -19.5l-19 30q26 20 56.5 32t70.5 12q52 0 86.5 -23.5t34.5 -70.5q0 -39 -26 -62t-66 -33q48 -5 74.5 -32t26.5 -66q0 -33 -15.5 -58t-41.5 -42t-60 -25.5t-71 -8.5q-46 0 -76 9l-10 33q13 -3 30.5 -4.5t29.5 -1.5q56 0 93.5 26.5
t37.5 74.5q0 41 -20 56t-56 15q-12 0 -18.5 -0.5t-14.5 -1.5v43q8 -1 15 -1h16q34 0 54 15.5t20 50.5q0 30 -17.5 45.5t-47.5 15.5zM629 97q0 19 8 35t21.5 28.5t31 22.5t36.5 17q-38 19 -57 41t-19 57q0 23 11 42t29.5 32.5t42.5 21t51 7.5q60 0 96.5 -26t36.5 -68
q0 -34 -26.5 -54.5t-59.5 -31.5q20 -8 39 -18.5t33.5 -25t23.5 -32.5t9 -42q0 -26 -12 -47t-32.5 -35.5t-48.5 -22.5t-61 -8q-75 0 -114 31t-39 76zM868 93q0 16 -8 29t-22 23.5t-35 20.5t-46 21q-26 -16 -41 -36t-15 -49q0 -76 83 -76q39 0 61.5 18t22.5 49zM723 311
q0 -14 4 -23t13 -17t24 -16t36 -19q18 12 31.5 28.5t13.5 45.5q0 25 -15.5 41t-45.5 16q-29 0 -45 -16.5t-16 -39.5zM246 -123h-54l487 853h54z" />
    <glyph glyph-name="fiveeighths" unicode="&#x215d;" horiz-adv-x="955" 
d="M628 97q0 19 8 35t21.5 28.5t31 22.5t36.5 17q-38 19 -57 41t-19 57q0 23 11 42t29.5 32.5t42.5 21t51 7.5q60 0 96.5 -26t36.5 -68q0 -34 -26.5 -54.5t-59.5 -31.5q20 -8 39 -18.5t33.5 -25t23.5 -32.5t9 -42q0 -26 -12 -47t-32.5 -35.5t-48.5 -22.5t-61 -8
q-75 0 -114 31t-39 76zM867 93q0 16 -8 29t-22 23.5t-35 20.5t-46 21q-26 -16 -41 -36t-15 -49q0 -76 83 -76q39 0 61.5 18t22.5 49zM722 311q0 -14 4 -23t13 -17t24 -16t36 -19q18 12 31.5 28.5t13.5 45.5q0 25 -15.5 41t-45.5 16q-29 0 -45 -16.5t-16 -39.5zM245 -123h-54
l487 853h54zM279 373q0 -36 -14.5 -63t-39 -45t-57.5 -27t-70 -9q-29 0 -46 3t-34 8l-8 33q17 -4 33.5 -6t38.5 -2q50 0 83 23t33 78q0 38 -17.5 56.5t-59.5 18.5q-25 0 -43 -4t-37 -11l22 218h207l-10 -57h-159l-12 -111q14 3 29 5t29 2q63 0 97.5 -28t34.5 -82z" />
    <glyph glyph-name="seveneighths" unicode="&#x215e;" horiz-adv-x="885" 
d="M558 97q0 19 8 35t21.5 28.5t31 22.5t36.5 17q-38 19 -57 41t-19 57q0 23 11 42t29.5 32.5t42.5 21t51 7.5q60 0 96.5 -26t36.5 -68q0 -34 -26.5 -54.5t-59.5 -31.5q20 -8 39 -18.5t33.5 -25t23.5 -32.5t9 -42q0 -26 -12 -47t-32.5 -35.5t-48.5 -22.5t-61 -8
q-75 0 -114 31t-39 76zM797 93q0 16 -8 29t-22 23.5t-35 20.5t-46 21q-26 -16 -41 -36t-15 -49q0 -76 83 -76q39 0 61.5 18t22.5 49zM652 311q0 -14 4 -23t13 -17t24 -16t36 -19q18 12 31.5 28.5t13.5 45.5q0 25 -15.5 41t-45.5 16q-29 0 -45 -16.5t-16 -39.5zM175 -123h-54
l487 853h54zM294 605q-54 -70 -97 -163.5t-63 -193.5l-87 -16q12 47 33 95.5t46.5 94.5t54 87.5t55.5 76.5h-220l10 58h277z" />
    <glyph glyph-name="uni215F" unicode="&#x215f;" horiz-adv-x="601" 
d="M208 321q0 -14 3.5 -21.5t13 -12t26 -6t42.5 -2.5v-29h-248v29q26 1 42.5 2.5t26 5.5t13 12t3.5 22v257q-20 -10 -45 -19.5t-45 -15.5l-9 28l120 73h57v-323zM239 -123h-54l487 853h54z" />
    <glyph glyph-name="uni2189" unicode="&#x2189;" horiz-adv-x="875" 
d="M356 442q0 -47 -12.5 -84t-35 -63t-52.5 -40t-64 -14q-33 0 -62.5 14t-51.5 40.5t-34.5 64t-12.5 85.5q0 47 12.5 85t34.5 65t51 41.5t62 14.5q38 0 68.5 -16t52 -44.5t33 -66.5t11.5 -82zM272 437q0 94 -22 135.5t-57 41.5q-42 0 -59.5 -39.5t-17.5 -120.5
q0 -96 18.5 -136.5t58.5 -40.5q37 0 58 38.5t21 121.5zM692 355q-29 0 -49.5 -8.5t-36.5 -19.5l-19 30q26 20 56.5 32t70.5 12q52 0 86.5 -23.5t34.5 -70.5q0 -39 -26 -62t-66 -33q48 -5 74.5 -32t26.5 -66q0 -33 -15.5 -58t-41.5 -42t-60 -25.5t-71 -8.5q-46 0 -76 9
l-10 33q13 -3 30.5 -4.5t29.5 -1.5q56 0 93.5 26.5t37.5 74.5q0 41 -20 56t-56 15q-12 0 -18.5 -0.5t-14.5 -1.5v43q8 -1 15 -1h16q34 0 54 15.5t20 50.5q0 30 -17.5 45.5t-47.5 15.5zM232 -123h-54l487 853h54z" />
    <glyph glyph-name="arrowleft" unicode="&#x2190;" horiz-adv-x="1011" 
d="M130 263q0 -19 -13 -32t-32 -13t-32 13t-13 32t13 32t32 13t32 -13t13 -32zM212 138q0 -19 -13 -32t-32 -13t-32 13t-13 32t13 32t32 13t32 -13t13 -32zM212 388q0 -19 -13 -32t-32 -13t-32 13t-13 32t13 32t32 13t32 -13t13 -32zM294 13q0 -19 -13 -32t-32 -13t-32 13
t-13 32t13 32t32 13t32 -13t13 -32zM298 263q0 -19 -13 -32t-32 -13t-32 13t-13 32t13 32t32 13t32 -13t13 -32zM294 513q0 -19 -13 -32t-32 -13t-32 13t-13 32t13 32t32 13t32 -13t13 -32zM376 -112q0 -19 -13 -32t-32 -13t-32 13t-13 32t13 32t32 13t32 -13t13 -32z
M376 638q0 -19 -13 -32t-32 -13t-32 13t-13 32t13 32t32 13t32 -13t13 -32zM466 263q0 -19 -13 -32t-32 -13t-32 13t-13 32t13 32t32 13t32 -13t13 -32zM634 263q0 -19 -13 -32t-32 -13t-32 13t-13 32t13 32t32 13t32 -13t13 -32zM802 263q0 -19 -13 -32t-32 -13t-32 13
t-13 32t13 32t32 13t32 -13t13 -32zM970 263q0 -19 -13 -32t-32 -13t-32 13t-13 32t13 32t32 13t32 -13t13 -32z" />
    <glyph glyph-name="arrowup" unicode="&#x2191;" horiz-adv-x="1011" 
d="M505 -94q-19 0 -32 13t-13 32t13 32t32 13t32 -13t13 -32t-13 -32t-32 -13zM505 74q-19 0 -32 13t-13 32t13 32t32 13t32 -13t13 -32t-13 -32t-32 -13zM505 242q-19 0 -32 13t-13 32t13 32t32 13t32 -13t13 -32t-13 -32t-32 -13zM505 410q-19 0 -32 13t-13 32t13 32
t32 13t32 -13t13 -32t-13 -32t-32 -13zM505 578q-19 0 -32 13t-13 32t13 32t32 13t32 -13t13 -32t-13 -32t-32 -13zM505 746q-19 0 -32 13t-13 32t13 32t32 13t32 -13t13 -32t-13 -32t-32 -13zM380 664q-19 0 -32 13t-13 32t13 32t32 13t32 -13t13 -32t-13 -32t-32 -13z
M255 582q-19 0 -32 13t-13 32t13 32t32 13t32 -13t13 -32t-13 -32t-32 -13zM130 500q-19 0 -32 13t-13 32t13 32t32 13t32 -13t13 -32t-13 -32t-32 -13zM630 664q-19 0 -32 13t-13 32t13 32t32 13t32 -13t13 -32t-13 -32t-32 -13zM755 582q-19 0 -32 13t-13 32t13 32t32 13
t32 -13t13 -32t-13 -32t-32 -13zM880 500q-19 0 -32 13t-13 32t13 32t32 13t32 -13t13 -32t-13 -32t-32 -13z" />
    <glyph glyph-name="arrowright" unicode="&#x2192;" horiz-adv-x="1011" 
d="M40 263q0 19 13 32t32 13t32 -13t13 -32t-13 -32t-32 -13t-32 13t-13 32zM208 263q0 19 13 32t32 13t32 -13t13 -32t-13 -32t-32 -13t-32 13t-13 32zM376 263q0 19 13 32t32 13t32 -13t13 -32t-13 -32t-32 -13t-32 13t-13 32zM544 263q0 19 13 32t32 13t32 -13t13 -32
t-13 -32t-32 -13t-32 13t-13 32zM634 -112q0 19 13 32t32 13t32 -13t13 -32t-13 -32t-32 -13t-32 13t-13 32zM634 638q0 19 13 32t32 13t32 -13t13 -32t-13 -32t-32 -13t-32 13t-13 32zM716 13q0 19 13 32t32 13t32 -13t13 -32t-13 -32t-32 -13t-32 13t-13 32zM712 263
q0 19 13 32t32 13t32 -13t13 -32t-13 -32t-32 -13t-32 13t-13 32zM716 513q0 19 13 32t32 13t32 -13t13 -32t-13 -32t-32 -13t-32 13t-13 32zM798 138q0 19 13 32t32 13t32 -13t13 -32t-13 -32t-32 -13t-32 13t-13 32zM798 388q0 19 13 32t32 13t32 -13t13 -32t-13 -32
t-32 -13t-32 13t-13 32zM880 263q0 19 13 32t32 13t32 -13t13 -32t-13 -32t-32 -13t-32 13t-13 32z" />
    <glyph glyph-name="arrowdown" unicode="&#x2193;" horiz-adv-x="1011" 
d="M505 836q19 0 32 -13t13 -32t-13 -32t-32 -13t-32 13t-13 32t13 32t32 13zM505 668q19 0 32 -13t13 -32t-13 -32t-32 -13t-32 13t-13 32t13 32t32 13zM505 500q19 0 32 -13t13 -32t-13 -32t-32 -13t-32 13t-13 32t13 32t32 13zM505 332q19 0 32 -13t13 -32t-13 -32
t-32 -13t-32 13t-13 32t13 32t32 13zM505 164q19 0 32 -13t13 -32t-13 -32t-32 -13t-32 13t-13 32t13 32t32 13zM505 -4q19 0 32 -13t13 -32t-13 -32t-32 -13t-32 13t-13 32t13 32t32 13zM630 78q19 0 32 -13t13 -32t-13 -32t-32 -13t-32 13t-13 32t13 32t32 13zM755 160
q19 0 32 -13t13 -32t-13 -32t-32 -13t-32 13t-13 32t13 32t32 13zM880 242q19 0 32 -13t13 -32t-13 -32t-32 -13t-32 13t-13 32t13 32t32 13zM380 78q19 0 32 -13t13 -32t-13 -32t-32 -13t-32 13t-13 32t13 32t32 13zM255 160q19 0 32 -13t13 -32t-13 -32t-32 -13t-32 13
t-13 32t13 32t32 13zM130 242q19 0 32 -13t13 -32t-13 -32t-32 -13t-32 13t-13 32t13 32t32 13z" />
    <glyph glyph-name="arrowboth" unicode="&#x2194;" horiz-adv-x="1346" 
d="M1048 263q0 19 13 32t32 13t32 -13t13 -32t-13 -32t-32 -13t-32 13t-13 32zM1216 263q0 19 13 32t32 13t32 -13t13 -32t-13 -32t-32 -13t-32 13t-13 32zM1134 138q0 19 13 32t32 13t32 -13t13 -32t-13 -32t-32 -13t-32 13t-13 32zM1052 13q0 19 13 32t32 13t32 -13
t13 -32t-13 -32t-32 -13t-32 13t-13 32zM970 -112q0 19 13 32t32 13t32 -13t13 -32t-13 -32t-32 -13t-32 13t-13 32zM1134 388q0 19 13 32t32 13t32 -13t13 -32t-13 -32t-32 -13t-32 13t-13 32zM1052 513q0 19 13 32t32 13t32 -13t13 -32t-13 -32t-32 -13t-32 13t-13 32z
M970 638q0 19 13 32t32 13t32 -13t13 -32t-13 -32t-32 -13t-32 13t-13 32zM970 263q0 -19 -13 -32t-32 -13t-32 13t-13 32t13 32t32 13t32 -13t13 -32zM802 263q0 -19 -13 -32t-32 -13t-32 13t-13 32t13 32t32 13t32 -13t13 -32zM634 263q0 -19 -13 -32t-32 -13t-32 13
t-13 32t13 32t32 13t32 -13t13 -32zM466 263q0 -19 -13 -32t-32 -13t-32 13t-13 32t13 32t32 13t32 -13t13 -32zM298 263q0 -19 -13 -32t-32 -13t-32 13t-13 32t13 32t32 13t32 -13t13 -32zM130 263q0 -19 -13 -32t-32 -13t-32 13t-13 32t13 32t32 13t32 -13t13 -32z
M212 138q0 -19 -13 -32t-32 -13t-32 13t-13 32t13 32t32 13t32 -13t13 -32zM294 13q0 -19 -13 -32t-32 -13t-32 13t-13 32t13 32t32 13t32 -13t13 -32zM376 -112q0 -19 -13 -32t-32 -13t-32 13t-13 32t13 32t32 13t32 -13t13 -32zM212 388q0 -19 -13 -32t-32 -13t-32 13
t-13 32t13 32t32 13t32 -13t13 -32zM294 513q0 -19 -13 -32t-32 -13t-32 13t-13 32t13 32t32 13t32 -13t13 -32zM376 638q0 -19 -13 -32t-32 -13t-32 13t-13 32t13 32t32 13t32 -13t13 -32z" />
    <glyph glyph-name="arrowupdn" unicode="&#x2195;" horiz-adv-x="1011" 
d="M505 -4q19 0 32 -13t13 -32t-13 -32t-32 -13t-32 13t-13 32t13 32t32 13zM505 -172q19 0 32 -13t13 -32t-13 -32t-32 -13t-32 13t-13 32t13 32t32 13zM630 -90q19 0 32 -13t13 -32t-13 -32t-32 -13t-32 13t-13 32t13 32t32 13zM755 -8q19 0 32 -13t13 -32t-13 -32
t-32 -13t-32 13t-13 32t13 32t32 13zM880 74q19 0 32 -13t13 -32t-13 -32t-32 -13t-32 13t-13 32t13 32t32 13zM380 -90q19 0 32 -13t13 -32t-13 -32t-32 -13t-32 13t-13 32t13 32t32 13zM255 -8q19 0 32 -13t13 -32t-13 -32t-32 -13t-32 13t-13 32t13 32t32 13zM130 74
q19 0 32 -13t13 -32t-13 -32t-32 -13t-32 13t-13 32t13 32t32 13zM505 74q-19 0 -32 13t-13 32t13 32t32 13t32 -13t13 -32t-13 -32t-32 -13zM505 242q-19 0 -32 13t-13 32t13 32t32 13t32 -13t13 -32t-13 -32t-32 -13zM505 410q-19 0 -32 13t-13 32t13 32t32 13t32 -13
t13 -32t-13 -32t-32 -13zM505 578q-19 0 -32 13t-13 32t13 32t32 13t32 -13t13 -32t-13 -32t-32 -13zM505 746q-19 0 -32 13t-13 32t13 32t32 13t32 -13t13 -32t-13 -32t-32 -13zM630 664q-19 0 -32 13t-13 32t13 32t32 13t32 -13t13 -32t-13 -32t-32 -13zM755 582
q-19 0 -32 13t-13 32t13 32t32 13t32 -13t13 -32t-13 -32t-32 -13zM880 500q-19 0 -32 13t-13 32t13 32t32 13t32 -13t13 -32t-13 -32t-32 -13zM380 664q-19 0 -32 13t-13 32t13 32t32 13t32 -13t13 -32t-13 -32t-32 -13zM255 582q-19 0 -32 13t-13 32t13 32t32 13t32 -13
t13 -32t-13 -32t-32 -13zM130 500q-19 0 -32 13t-13 32t13 32t32 13t32 -13t13 -32t-13 -32t-32 -13z" />
    <glyph glyph-name="uni2196" unicode="&#x2196;" horiz-adv-x="1011" 
d="M848 0q19 0 32 -13t13 -32t-13 -32t-32 -13t-32 13t-13 32t13 32t32 13zM729 119q19 0 32 -13t13 -32t-13 -32t-32 -13t-32 13t-13 32t13 32t32 13zM610 238q19 0 32 -13t13 -32t-13 -32t-32 -13t-32 13t-13 32t13 32t32 13zM492 357q19 0 32 -13t13 -32t-13 -32t-32 -13
t-32 13t-13 32t13 32t32 13zM373 475q19 0 32 -13t13 -32t-13 -32t-32 -13t-32 13t-13 32t13 32t32 13zM254 594q19 0 32 -13t13 -32t-13 -32t-32 -13t-32 13t-13 32t13 32t32 13zM223 447q19 0 32 -13t13 -32t-13 -32t-32 -13t-32 13t-13 32t13 32t32 13zM194 301
q19 0 32 -13t13 -32t-13 -32t-32 -13t-32 13t-13 32t13 32t32 13zM163 155q19 0 32 -13t13 -32t-13 -32t-32 -13t-32 13t-13 32t13 32t32 13zM400 625q19 0 32 -13t13 -32t-13 -32t-32 -13t-32 13t-13 32t13 32t32 13zM546 655q19 0 32 -13t13 -32t-13 -32t-32 -13t-32 13
t-13 32t13 32t32 13zM694 685q19 0 32 -13t13 -32t-13 -32t-32 -13t-32 13t-13 32t13 32t32 13z" />
    <glyph glyph-name="uni2197" unicode="&#x2197;" horiz-adv-x="1011" 
d="M163 0q19 0 32 -13t13 -32t-13 -32t-32 -13t-32 13t-13 32t13 32t32 13zM282 119q19 0 32 -13t13 -32t-13 -32t-32 -13t-32 13t-13 32t13 32t32 13zM401 238q19 0 32 -13t13 -32t-13 -32t-32 -13t-32 13t-13 32t13 32t32 13zM519 357q19 0 32 -13t13 -32t-13 -32t-32 -13
t-32 13t-13 32t13 32t32 13zM638 475q19 0 32 -13t13 -32t-13 -32t-32 -13t-32 13t-13 32t13 32t32 13zM757 594q19 0 32 -13t13 -32t-13 -32t-32 -13t-32 13t-13 32t13 32t32 13zM788 447q19 0 32 -13t13 -32t-13 -32t-32 -13t-32 13t-13 32t13 32t32 13zM817 301
q19 0 32 -13t13 -32t-13 -32t-32 -13t-32 13t-13 32t13 32t32 13zM848 155q19 0 32 -13t13 -32t-13 -32t-32 -13t-32 13t-13 32t13 32t32 13zM611 625q19 0 32 -13t13 -32t-13 -32t-32 -13t-32 13t-13 32t13 32t32 13zM465 655q19 0 32 -13t13 -32t-13 -32t-32 -13t-32 13
t-13 32t13 32t32 13zM317 685q19 0 32 -13t13 -32t-13 -32t-32 -13t-32 13t-13 32t13 32t32 13z" />
    <glyph glyph-name="uni2198" unicode="&#x2198;" horiz-adv-x="1011" 
d="M163 595q-19 0 -32 13t-13 32t13 32t32 13t32 -13t13 -32t-13 -32t-32 -13zM282 476q-19 0 -32 13t-13 32t13 32t32 13t32 -13t13 -32t-13 -32t-32 -13zM401 357q-19 0 -32 13t-13 32t13 32t32 13t32 -13t13 -32t-13 -32t-32 -13zM519 238q-19 0 -32 13t-13 32t13 32
t32 13t32 -13t13 -32t-13 -32t-32 -13zM638 120q-19 0 -32 13t-13 32t13 32t32 13t32 -13t13 -32t-13 -32t-32 -13zM757 1q-19 0 -32 13t-13 32t13 32t32 13t32 -13t13 -32t-13 -32t-32 -13zM788 148q-19 0 -32 13t-13 32t13 32t32 13t32 -13t13 -32t-13 -32t-32 -13z
M817 294q-19 0 -32 13t-13 32t13 32t32 13t32 -13t13 -32t-13 -32t-32 -13zM848 440q-19 0 -32 13t-13 32t13 32t32 13t32 -13t13 -32t-13 -32t-32 -13zM611 -30q-19 0 -32 13t-13 32t13 32t32 13t32 -13t13 -32t-13 -32t-32 -13zM465 -60q-19 0 -32 13t-13 32t13 32t32 13
t32 -13t13 -32t-13 -32t-32 -13zM317 -90q-19 0 -32 13t-13 32t13 32t32 13t32 -13t13 -32t-13 -32t-32 -13z" />
    <glyph glyph-name="uni2199" unicode="&#x2199;" horiz-adv-x="1011" 
d="M848 595q-19 0 -32 13t-13 32t13 32t32 13t32 -13t13 -32t-13 -32t-32 -13zM729 476q-19 0 -32 13t-13 32t13 32t32 13t32 -13t13 -32t-13 -32t-32 -13zM610 357q-19 0 -32 13t-13 32t13 32t32 13t32 -13t13 -32t-13 -32t-32 -13zM492 238q-19 0 -32 13t-13 32t13 32
t32 13t32 -13t13 -32t-13 -32t-32 -13zM373 120q-19 0 -32 13t-13 32t13 32t32 13t32 -13t13 -32t-13 -32t-32 -13zM254 1q-19 0 -32 13t-13 32t13 32t32 13t32 -13t13 -32t-13 -32t-32 -13zM223 148q-19 0 -32 13t-13 32t13 32t32 13t32 -13t13 -32t-13 -32t-32 -13z
M194 294q-19 0 -32 13t-13 32t13 32t32 13t32 -13t13 -32t-13 -32t-32 -13zM163 440q-19 0 -32 13t-13 32t13 32t32 13t32 -13t13 -32t-13 -32t-32 -13zM400 -30q-19 0 -32 13t-13 32t13 32t32 13t32 -13t13 -32t-13 -32t-32 -13zM546 -60q-19 0 -32 13t-13 32t13 32t32 13
t32 -13t13 -32t-13 -32t-32 -13zM694 -90q-19 0 -32 13t-13 32t13 32t32 13t32 -13t13 -32t-13 -32t-32 -13z" />
    <glyph glyph-name="partialdiff" unicode="&#x2202;" horiz-adv-x="540" 
d="M277 441q22 0 47 -4.5t46 -13.5q-32 92 -107 160.5t-202 106.5l41 33q78 -18 149.5 -52t126 -90t86.5 -136t32 -190q0 -65 -17 -114.5t-48 -83t-73 -51t-92 -17.5t-92.5 14.5t-73 43t-47.5 71t-17 98.5q0 61 19.5 104t53 70t77 39t91.5 12zM398 245q0 32 -3 63.5
t-10 60.5q-27 13 -55 18t-49 5q-75 0 -111 -40t-36 -128q0 -89 30 -137.5t104 -48.5q65 0 97.5 52t32.5 155z" />
    <glyph glyph-name="Delta" unicode="&#x2206;" horiz-adv-x="573" 
d="M12 0v35l226 654h87l230 -654v-35h-543zM446 54l-148 432q-3 10 -8 25t-9.5 31.5t-8.5 32t-6 27.5h-4q-5 -23 -15 -57t-19 -61l-149 -430h367z" />
    <glyph glyph-name="product" unicode="&#x220f;" horiz-adv-x="699" 
d="M662 644v-35q-25 -1 -40.5 -5t-24.5 -12.5t-12 -23t-3 -35.5v-608q0 -21 3 -35.5t12 -23t24.5 -12.5t40.5 -5v-35h-255v35q25 1 40.5 5t24.5 12.5t12 23t3 35.5v670h-275v-670q0 -21 3 -35.5t12 -23t24.5 -12.5t40.5 -5v-35h-255v35q25 1 40.5 5t24.5 12.5t12 23t3 35.5
v608q0 21 -3 35.5t-12 23t-24.5 12.5t-40.5 5v35h625z" />
    <glyph glyph-name="summation" unicode="&#x2211;" horiz-adv-x="529" 
d="M119 -107v-4h221q29 0 47.5 5t30 18t17.5 35.5t9 57.5h45v-191h-472v43l286 396l-286 391v45h462l10 -150h-42q-8 28 -16 47.5t-18.5 31.5t-25 17t-36.5 5h-196v-4l255 -347z" />
    <glyph glyph-name="minus" unicode="&#x2212;" horiz-adv-x="575" 
d="M55 298h465v-53h-465v53z" />
    <glyph glyph-name="uni2219" unicode="&#x2219;" horiz-adv-x="575" 
d="M461 335q0 -37 -13.5 -69t-37.5 -56t-55.5 -38t-67.5 -14t-67.5 14t-55 38t-37 56t-13.5 69t13.5 69t37 56t55 38t67.5 14t67.5 -14t55.5 -38t37.5 -56t13.5 -69z" />
    <glyph glyph-name="radical" unicode="&#x221a;" horiz-adv-x="579" 
d="M113 387q-7 20 -14 33t-18.5 21t-28 11.5t-42.5 4.5v34h168l97 -316q10 -33 15 -61t6 -35h4q2 8 9 37t17 58l188 536h55l-253 -710h-70z" />
    <glyph glyph-name="infinity" unicode="&#x221e;" horiz-adv-x="929" 
d="M477 303q51 60 106.5 89.5t124.5 29.5q28 0 59.5 -7t58.5 -25t45 -49t18 -79q0 -46 -16 -79t-41.5 -54.5t-59 -32t-67.5 -10.5q-48 0 -81 13.5t-68 37.5l-104 73q-51 -60 -106.5 -89.5t-124.5 -29.5q-28 0 -59.5 7t-58.5 25t-45 49t-18 79q0 46 16 79t41.5 54.5t58.5 32
t68 10.5q48 0 81 -13.5t68 -37.5zM106 250q0 -51 35 -76.5t88 -25.5q45 0 91.5 21.5t95.5 67.5l-123 84q-26 18 -46 25t-48 7q-45 0 -69 -27.5t-24 -75.5zM828 263q0 25 -10 44t-27.5 32t-41 19.5t-49.5 6.5q-45 0 -91.5 -21.5t-95.5 -67.5l123 -84q13 -9 24 -15t22 -10
t22.5 -5.5t25.5 -1.5q45 0 71.5 27.5t26.5 75.5z" />
    <glyph glyph-name="integral" unicode="&#x222b;" horiz-adv-x="334" 
d="M147 585q5 69 46.5 107t112.5 38q29 0 54.5 -5t43.5 -13v-83h-61q-8 52 -46 52q-29 0 -42.5 -21.5t-17.5 -73.5l-45 -627q-5 -69 -46.5 -107t-112.5 -38q-29 0 -54.5 5t-43.5 13v80h61q8 -52 46 -52q29 0 42.5 21.5t17.5 73.5z" />
    <glyph glyph-name="approxequal" unicode="&#x2248;" horiz-adv-x="568" 
d="M513 378q-19 -39 -46.5 -62.5t-74.5 -23.5q-29 0 -56 11t-53.5 24.5t-52 24.5t-52.5 11q-31 0 -52 -22t-35 -48l-36 39q7 18 19.5 34t28.5 29t36 20.5t43 7.5q29 0 56.5 -11.5t54.5 -25t52.5 -24.5t51.5 -11q31 0 49 21.5t33 47.5zM513 225q-19 -39 -46.5 -62.5
t-74.5 -23.5q-29 0 -56 11t-53.5 24.5t-52 24.5t-52.5 11q-31 0 -52 -22t-35 -48l-36 39q7 18 19.5 34t28.5 29t36 20.5t43 7.5q29 0 56.5 -11.5t54.5 -25t52.5 -24.5t51.5 -11q31 0 49 21.5t33 47.5z" />
    <glyph glyph-name="notequal" unicode="&#x2260;" horiz-adv-x="575" 
d="M55 374h270l83 140l45 -26l-67 -114h134v-53h-166l-56 -95h222v-53h-253l-87 -148l-46 27l72 121h-151v53h182l56 95h-238v53z" />
    <glyph glyph-name="lessequal" unicode="&#x2264;" horiz-adv-x="477" 
d="M55 274v72l367 172v-65l-306 -139l306 -116v-62zM55 85h367v-53h-367v53z" />
    <glyph glyph-name="greaterequal" unicode="&#x2265;" horiz-adv-x="477" 
d="M55 136v62l306 116l-306 139v65l367 -172v-72zM422 32h-367v53h367v-53z" />
    <glyph glyph-name="dotmath" unicode="&#x22c5;" horiz-adv-x="575" 
d="M358 278q0 -31 -21 -53t-50 -22t-49.5 22t-20.5 53q0 32 20.5 53t49.5 21t50 -21t21 -53z" />
    <glyph glyph-name="uni25B4" unicode="&#x25b4;" horiz-adv-x="516" 
d="M436 157h-356l178 386z" />
    <glyph glyph-name="uni25B8" unicode="&#x25b8;" horiz-adv-x="516" 
d="M90 172v356l386 -178z" />
    <glyph glyph-name="uni25BE" unicode="&#x25be;" horiz-adv-x="516" 
d="M80 523h356l-178 -386z" />
    <glyph glyph-name="uni25C2" unicode="&#x25c2;" horiz-adv-x="516" 
d="M426 528v-356l-386 178z" />
    <glyph glyph-name="lozenge" unicode="&#x25ca;" horiz-adv-x="592" 
d="M337 0h-86l-196 344l196 343h86l200 -343zM294 638l-161 -293l161 -294l166 294z" />
    <glyph glyph-name="uniFEFF" unicode="&#xfeff;" horiz-adv-x="0" 
 />
    <glyph glyph-name="zero.osf" horiz-adv-x="552" 
d="M511 246q0 -60 -18 -108t-49.5 -81.5t-74.5 -52t-93 -18.5t-93 18.5t-74.5 53t-49.5 83.5t-18 110t18 109.5t49 83t73.5 53t92.5 18.5q55 0 99 -21t75 -57t47 -85t16 -106zM413 242q0 115 -36.5 169.5t-102.5 54.5q-38 0 -63.5 -14.5t-41.5 -41.5t-23 -65t-7 -84
q0 -114 32.5 -170t106.5 -56q65 0 100 55t35 152z" />
    <glyph glyph-name="one.osf" horiz-adv-x="407" 
d="M268 108q0 -23 3 -36.5t12.5 -21.5t29 -11.5t52.5 -4.5v-34h-294v34q34 1 54.5 4.5t32 11.5t15.5 22t4 37v312q-31 -17 -57.5 -27t-59.5 -21l-13 33l163 107h58v-405z" />
    <glyph glyph-name="two.osf" horiz-adv-x="447" 
d="M220 517q94 0 139 -43t45 -110q0 -37 -14 -68t-42 -61.5t-70 -62t-98 -70.5l-42 -29h280l-16 -73h-378v46l97 73q38 28 72 56t59.5 57.5t40.5 61t15 66.5q0 46 -27.5 71t-75.5 25q-26 0 -46 -3.5t-36.5 -9t-30.5 -12.5t-27 -15l-27 42q82 59 182 59z" />
    <glyph glyph-name="three.osf" horiz-adv-x="469" 
d="M209 455q-54 0 -91 -15.5t-62 -34.5l-31 39q41 32 89 52.5t106 20.5q88 0 139 -41.5t51 -114.5q0 -56 -33 -97.5t-96 -59.5q69 -14 108 -54.5t39 -96.5q0 -55 -25.5 -95.5t-67.5 -67.5t-95.5 -40.5t-109.5 -13.5q-28 0 -56 3t-54 10l-11 43q26 -4 51.5 -6t48.5 -2
q48 0 89 9.5t70 29.5t45.5 51t16.5 75q0 37 -10 61t-30 38t-49.5 19.5t-67.5 5.5q-11 0 -21.5 -0.5t-23.5 -1.5v51q14 -1 26 -1.5t29 -0.5q65 0 100 30.5t35 107.5q0 44 -29 70.5t-80 26.5z" />
    <glyph glyph-name="four.osf" horiz-adv-x="539" 
d="M329 18h-305v42l225 461h98l-251 -454h233q1 157 39 276l52 17v-293h84v-49h-84v-178l-91 -19v197z" />
    <glyph glyph-name="five.osf" horiz-adv-x="462" 
d="M421 60q0 -55 -24 -97t-62.5 -70t-87.5 -42.5t-98 -14.5q-21 0 -37.5 1t-30 3.5t-25 5.5t-24.5 8l-11 46q27 -8 52.5 -11.5t60.5 -3.5q39 0 73.5 9t60 29t40.5 51.5t15 77.5q0 66 -30.5 101t-97.5 35q-38 0 -68 -6.5t-59 -17.5l31 337h309l-14 -75h-240l-18 -196
q21 6 43 9.5t42 3.5q94 0 147 -48.5t53 -134.5z" />
    <glyph glyph-name="six.osf" horiz-adv-x="525" 
d="M435 662q-59 -23 -108 -50.5t-85.5 -64.5t-61 -86t-34.5 -115q27 22 64.5 37.5t78.5 15.5q42 0 78.5 -13t63.5 -37.5t42.5 -60.5t15.5 -82q0 -47 -16 -87.5t-44.5 -70t-68.5 -46.5t-87 -17q-51 0 -93.5 18.5t-73 53.5t-47 86t-16.5 116q0 97 31.5 170.5t83.5 127.5
t120 89.5t142 56.5zM270 342q-35 0 -68.5 -12.5t-60.5 -32.5q-1 -11 -1 -22v-23q0 -60 9.5 -101.5t27 -67.5t42 -37.5t54.5 -11.5q55 0 87 39.5t32 130.5q0 43 -10 70t-26.5 42t-38.5 20.5t-47 5.5z" />
    <glyph glyph-name="seven.osf" horiz-adv-x="471" 
d="M431 437q-42 -56 -79.5 -125t-68.5 -145t-55.5 -157t-39.5 -161l-101 -26q18 77 48 158.5t67.5 161t79 152t83.5 131.5h-337l17 75h399z" />
    <glyph glyph-name="eight.osf" horiz-adv-x="539" 
d="M40 165q0 31 12.5 58t33 49t47 39t53.5 30q-22 12 -42.5 26.5t-36.5 33.5t-25.5 43t-9.5 53q0 38 16.5 69.5t44 54t63.5 35t76 12.5q45 0 81.5 -11.5t62.5 -32t40.5 -49t14.5 -62.5q0 -28 -11.5 -51.5t-29.5 -42.5t-41 -34t-47 -26q28 -12 56 -27.5t50.5 -37.5t36.5 -51
t14 -68q0 -43 -17.5 -78t-48.5 -59.5t-73.5 -37.5t-91.5 -13q-55 0 -97.5 14t-71.5 38t-44 56.5t-15 69.5zM409 156q0 33 -12 56t-35 41.5t-57.5 34.5t-79.5 35q-41 -29 -66 -65t-25 -87q0 -66 34.5 -101t101.5 -35q63 0 101 32t38 89zM159 511q0 -23 7 -41.5t23.5 -34.5
t43.5 -30.5t66 -29.5q32 22 56 54t24 80q0 51 -27 81t-81 30t-83 -31t-29 -78z" />
    <glyph glyph-name="nine.osf" horiz-adv-x="525" 
d="M43 -155q88 27 147.5 61t102.5 77q35 35 56 76t29 99q-26 -22 -63.5 -37t-78.5 -15q-42 0 -78.5 13t-63.5 37.5t-42.5 60.5t-15.5 82q0 47 16.5 87.5t46 70t70 46.5t87.5 17q103 0 164.5 -68.5t61.5 -200.5q0 -99 -32 -173t-87 -127.5t-129.5 -88.5t-158.5 -54zM255 163
q34 0 67.5 12t60.5 32q1 14 1.5 28t0.5 30q0 58 -9 97.5t-26 63.5t-40.5 34.5t-53.5 10.5q-55 0 -89 -39.5t-34 -130.5q0 -43 10 -70t26.5 -42t38.5 -20.5t47 -5.5z" />
    <glyph glyph-name="grave.uc" horiz-adv-x="682" 
d="M443 727l-214 70l43 92l191 -128z" />
    <glyph glyph-name="dieresis.uc" horiz-adv-x="682" 
d="M294 787q0 -26 -17 -43t-43 -17t-43 17t-17 43t17 43t43 17t43 -17t17 -43zM503 787q0 -26 -17 -43t-43 -17t-43 17t-17 43t17 43t43 17t43 -17t17 -43z" />
    <glyph glyph-name="acute.uc" horiz-adv-x="682" 
d="M239 761l191 128l43 -92l-214 -70z" />
    <glyph glyph-name="circumflex.uc" horiz-adv-x="682" 
d="M341 809l-137 -81l-25 30l162 149l162 -149l-25 -30z" />
    <glyph glyph-name="caron.uc" horiz-adv-x="525" 
d="M402 907l25 -30l-162 -149l-162 149l25 30l137 -81z" />
    <glyph glyph-name="ring.uc" horiz-adv-x="313" 
d="M156 719q-45 0 -73 29t-28 73t28 73t73 29t73.5 -29t28.5 -73t-28.5 -73t-73.5 -29zM156 888q-28 0 -44.5 -19.5t-16.5 -48.5q0 -27 16.5 -46t44.5 -19q29 0 45.5 19t16.5 46q0 29 -16.5 48.5t-45.5 19.5z" />
    <glyph glyph-name="tilde.uc" horiz-adv-x="682" 
d="M403 818q26 0 43 12.5t30 32.5l36 -14q-13 -38 -38.5 -66.5t-70.5 -28.5q-26 0 -44.5 7t-34 15t-29.5 15t-30 7q-29 0 -43.5 -13.5t-27.5 -33.5l-34 13q11 42 35.5 71t69.5 29q25 0 42.5 -7t32.5 -16t30 -16t33 -7z" />
    </font>
</defs>
</svg>
